%TF.GenerationSoftware,KiCad,Pcbnew,10.0.2*%
%TF.CreationDate,2026-05-23T16:12:35-04:00*%
%TF.ProjectId,custom devboard,63757374-6f6d-4206-9465-76626f617264,rev?*%
%TF.SameCoordinates,Original*%
%TF.FileFunction,Copper,L1,Top*%
%TF.FilePolarity,Positive*%
%FSLAX46Y46*%
G04 Gerber Fmt 4.6, Leading zero omitted, Abs format (unit mm)*
G04 Created by KiCad (PCBNEW 10.0.2) date 2026-05-23 16:12:35*
%MOMM*%
%LPD*%
G01*
G04 APERTURE LIST*
G04 Aperture macros list*
%AMRoundRect*
0 Rectangle with rounded corners*
0 $1 Rounding radius*
0 $2 $3 $4 $5 $6 $7 $8 $9 X,Y pos of 4 corners*
0 Add a 4 corners polygon primitive as box body*
4,1,4,$2,$3,$4,$5,$6,$7,$8,$9,$2,$3,0*
0 Add four circle primitives for the rounded corners*
1,1,$1+$1,$2,$3*
1,1,$1+$1,$4,$5*
1,1,$1+$1,$6,$7*
1,1,$1+$1,$8,$9*
0 Add four rect primitives between the rounded corners*
20,1,$1+$1,$2,$3,$4,$5,0*
20,1,$1+$1,$4,$5,$6,$7,0*
20,1,$1+$1,$6,$7,$8,$9,0*
20,1,$1+$1,$8,$9,$2,$3,0*%
G04 Aperture macros list end*
%TA.AperFunction,SMDPad,CuDef*%
%ADD10RoundRect,0.375000X0.375000X-0.625000X0.375000X0.625000X-0.375000X0.625000X-0.375000X-0.625000X0*%
%TD*%
%TA.AperFunction,SMDPad,CuDef*%
%ADD11RoundRect,0.500000X1.400000X-0.500000X1.400000X0.500000X-1.400000X0.500000X-1.400000X-0.500000X0*%
%TD*%
%TA.AperFunction,SMDPad,CuDef*%
%ADD12RoundRect,0.225000X0.250000X-0.225000X0.250000X0.225000X-0.250000X0.225000X-0.250000X-0.225000X0*%
%TD*%
%TA.AperFunction,SMDPad,CuDef*%
%ADD13RoundRect,0.200000X-0.275000X0.200000X-0.275000X-0.200000X0.275000X-0.200000X0.275000X0.200000X0*%
%TD*%
%TA.AperFunction,SMDPad,CuDef*%
%ADD14R,1.360000X1.230000*%
%TD*%
%TA.AperFunction,SMDPad,CuDef*%
%ADD15RoundRect,0.218750X-0.218750X-0.256250X0.218750X-0.256250X0.218750X0.256250X-0.218750X0.256250X0*%
%TD*%
%TA.AperFunction,SMDPad,CuDef*%
%ADD16R,0.600000X1.140000*%
%TD*%
%TA.AperFunction,SMDPad,CuDef*%
%ADD17R,0.300000X1.140000*%
%TD*%
%TA.AperFunction,ComponentPad*%
%ADD18O,1.100000X2.200000*%
%TD*%
%TA.AperFunction,ComponentPad*%
%ADD19O,1.100000X1.900000*%
%TD*%
%TA.AperFunction,SMDPad,CuDef*%
%ADD20RoundRect,0.225000X0.225000X0.250000X-0.225000X0.250000X-0.225000X-0.250000X0.225000X-0.250000X0*%
%TD*%
%TA.AperFunction,SMDPad,CuDef*%
%ADD21RoundRect,0.225000X-0.250000X0.225000X-0.250000X-0.225000X0.250000X-0.225000X0.250000X0.225000X0*%
%TD*%
%TA.AperFunction,SMDPad,CuDef*%
%ADD22RoundRect,0.200000X0.200000X0.275000X-0.200000X0.275000X-0.200000X-0.275000X0.200000X-0.275000X0*%
%TD*%
%TA.AperFunction,SMDPad,CuDef*%
%ADD23R,1.500000X0.900000*%
%TD*%
%TA.AperFunction,SMDPad,CuDef*%
%ADD24R,0.900000X1.500000*%
%TD*%
%TA.AperFunction,SMDPad,CuDef*%
%ADD25R,0.900000X0.900000*%
%TD*%
%TA.AperFunction,ComponentPad*%
%ADD26R,1.700000X1.700000*%
%TD*%
%TA.AperFunction,ComponentPad*%
%ADD27C,1.700000*%
%TD*%
%TA.AperFunction,ViaPad*%
%ADD28C,0.600000*%
%TD*%
%TA.AperFunction,Conductor*%
%ADD29C,0.400000*%
%TD*%
%TA.AperFunction,Conductor*%
%ADD30C,0.200000*%
%TD*%
G04 APERTURE END LIST*
D10*
%TO.P,U3,1,GND_1*%
%TO.N,GND*%
X124500000Y-80450000D03*
%TO.P,U3,2,VO_2*%
%TO.N,+3V3*%
X126800000Y-80450000D03*
D11*
X126800000Y-74150000D03*
D10*
%TO.P,U3,3,VI_3*%
%TO.N,+5V*%
X129100000Y-80450000D03*
%TD*%
D12*
%TO.P,C4,1*%
%TO.N,+5V*%
X131600000Y-80375000D03*
%TO.P,C4,2*%
%TO.N,GND*%
X131600000Y-78825000D03*
%TD*%
D13*
%TO.P,R1,1*%
%TO.N,Net-(J1-CC2)*%
X133400000Y-84675000D03*
%TO.P,R1,2*%
%TO.N,GND*%
X133400000Y-86325000D03*
%TD*%
D14*
%TO.P,SW2,1,1_1*%
%TO.N,GND*%
X135200000Y-92180000D03*
%TO.P,SW2,2,2_2*%
%TO.N,GPIO0*%
X135200000Y-87820000D03*
%TD*%
D15*
%TO.P,D3,1,K_1*%
%TO.N,GND*%
X127625000Y-67800000D03*
%TO.P,D3,2,A_2*%
%TO.N,Net-(D3-A)*%
X129200000Y-67800000D03*
%TD*%
D16*
%TO.P,J1,A1_B12,GND_A1_B12*%
%TO.N,GND*%
X124000000Y-87050000D03*
%TO.P,J1,A4_B9,VBUS_A4_B9*%
%TO.N,+5V*%
X124800000Y-87050000D03*
D17*
%TO.P,J1,A5,CC1_A5*%
%TO.N,Net-(J1-CC1)*%
X125950000Y-87050000D03*
%TO.P,J1,A6,DP1_A6*%
%TO.N,D+*%
X126950000Y-87050000D03*
%TO.P,J1,A7,DN1_A7*%
%TO.N,D-*%
X127450000Y-87050000D03*
%TO.P,J1,A8,SBU1_A8*%
%TO.N,unconnected-(J1-SBU1-PadA8)*%
X128450000Y-87050000D03*
D16*
%TO.P,J1,B1_A12,GND_B1_A12*%
%TO.N,GND*%
X130400000Y-87050000D03*
%TO.P,J1,B4_A9,VBUS_B4_A9*%
%TO.N,+5V*%
X129600000Y-87050000D03*
D17*
%TO.P,J1,B5,CC2_B5*%
%TO.N,Net-(J1-CC2)*%
X128950000Y-87050000D03*
%TO.P,J1,B6,DP2_B6*%
%TO.N,D+*%
X127950000Y-87050000D03*
%TO.P,J1,B7,DN2_B7*%
%TO.N,D-*%
X126450000Y-87050000D03*
%TO.P,J1,B8,SBU2_B8*%
%TO.N,unconnected-(J1-SBU2-PadB8)*%
X125450000Y-87050000D03*
D18*
%TO.P,J1,S1,SHIELD_S1*%
%TO.N,GND*%
X122875000Y-87630000D03*
%TO.P,J1,S2,SHIELD_S2*%
X131525000Y-87630000D03*
D19*
%TO.P,J1,S3,SHIELD_S3*%
X122875000Y-91800000D03*
%TO.P,J1,S4,SHIELD_S4*%
X131525000Y-91800000D03*
%TD*%
D15*
%TO.P,D2,1,K_1*%
%TO.N,GND*%
X127612500Y-69500000D03*
%TO.P,D2,2,A_2*%
%TO.N,Net-(D2-A)*%
X129187500Y-69500000D03*
%TD*%
D20*
%TO.P,C5,1*%
%TO.N,EN*%
X129175000Y-66200000D03*
%TO.P,C5,2*%
%TO.N,GND*%
X127625000Y-66200000D03*
%TD*%
D21*
%TO.P,C2,1*%
%TO.N,+3V3*%
X122100000Y-68150000D03*
%TO.P,C2,2*%
%TO.N,GND*%
X122100000Y-69700000D03*
%TD*%
D22*
%TO.P,R5,1*%
%TO.N,+3V3*%
X132625000Y-69500000D03*
%TO.P,R5,2*%
%TO.N,Net-(D2-A)*%
X130975000Y-69500000D03*
%TD*%
%TO.P,R6,1*%
%TO.N,GPIO21*%
X132637500Y-67800000D03*
%TO.P,R6,2*%
%TO.N,Net-(D3-A)*%
X130987500Y-67800000D03*
%TD*%
D14*
%TO.P,SW1,1,1_1*%
%TO.N,GND*%
X118900000Y-92180000D03*
%TO.P,SW1,2,2_2*%
%TO.N,EN*%
X118900000Y-87820000D03*
%TD*%
D23*
%TO.P,U2,1,GND_1*%
%TO.N,GND*%
X118250000Y-42990000D03*
%TO.P,U2,2,3V3_2*%
%TO.N,+3V3*%
X118250000Y-44260000D03*
%TO.P,U2,3,EN_3*%
%TO.N,EN*%
X118250000Y-45530000D03*
%TO.P,U2,4,GPIO4/TOUCH4/ADC1_CH3_4*%
%TO.N,GPIO4*%
X118250000Y-46800000D03*
%TO.P,U2,5,GPIO5/TOUCH5/ADC1_CH4_5*%
%TO.N,GPIO5*%
X118250000Y-48070000D03*
%TO.P,U2,6,GPIO6/TOUCH6/ADC1_CH5_6*%
%TO.N,GPIO6*%
X118250000Y-49340000D03*
%TO.P,U2,7,GPIO7/TOUCH7/ADC1_CH6_7*%
%TO.N,GPIO7*%
X118250000Y-50610000D03*
%TO.P,U2,8,GPIO15/U0RTS/ADC2_CH4/XTAL_32K_P_8*%
%TO.N,GPIO15*%
X118250000Y-51880000D03*
%TO.P,U2,9,GPIO16/U0CTS/ADC2_CH5/XTAL_32K_N_9*%
%TO.N,GPIO16*%
X118250000Y-53150000D03*
%TO.P,U2,10,GPIO17/U1TXD/ADC2_CH6_10*%
%TO.N,GPIO17*%
X118250000Y-54420000D03*
%TO.P,U2,11,GPIO18/U1RXD/ADC2_CH7/CLK_OUT3_11*%
%TO.N,GPIO18*%
X118250000Y-55690000D03*
%TO.P,U2,12,GPIO8/TOUCH8/ADC1_CH7/SUBSPICS1_12*%
%TO.N,GPIO8*%
X118250000Y-56960000D03*
%TO.P,U2,13,GPIO19/U1RTS/ADC2_CH8/CLK_OUT2/USB_D-_13*%
%TO.N,D-*%
X118250000Y-58230000D03*
%TO.P,U2,14,GPIO20/U1CTS/ADC2_CH9/CLK_OUT1/USB_D+_14*%
%TO.N,D+*%
X118250000Y-59500000D03*
D24*
%TO.P,U2,15,GPIO3/TOUCH3/ADC1_CH2_15*%
%TO.N,GPIO3*%
X120015000Y-60750000D03*
%TO.P,U2,16,GPIO46_16*%
%TO.N,GPIO46*%
X121285000Y-60750000D03*
%TO.P,U2,17,GPIO9/TOUCH9/ADC1_CH8/FSPIHD/SUBSPIHD_17*%
%TO.N,GPIO9*%
X122555000Y-60750000D03*
%TO.P,U2,18,GPIO10/TOUCH10/ADC1_CH9/FSPICS0/FSPIIO4/SUBSPICS0_18*%
%TO.N,GPIO10*%
X123825000Y-60750000D03*
%TO.P,U2,19,GPIO11/TOUCH11/ADC2_CH0/FSPID/FSPIIO5/SUBSPID_19*%
%TO.N,GPIO11*%
X125095000Y-60750000D03*
%TO.P,U2,20,GPIO12/TOUCH12/ADC2_CH1/FSPICLK/FSPIIO6/SUBSPICLK_20*%
%TO.N,GPIO12*%
X126365000Y-60750000D03*
%TO.P,U2,21,GPIO13/TOUCH13/ADC2_CH2/FSPIQ/FSPIIO7/SUBSPIQ_21*%
%TO.N,GPIO13*%
X127635000Y-60750000D03*
%TO.P,U2,22,GPIO14/TOUCH14/ADC2_CH3/FSPIWP/FSPIDQS/SUBSPIWP_22*%
%TO.N,GPIO14*%
X128905000Y-60750000D03*
%TO.P,U2,23,GPIO21_23*%
%TO.N,GPIO21*%
X130175000Y-60750000D03*
%TO.P,U2,24,GPIO47/SPICLK_P/SUBSPICLK_P_DIFF_24*%
%TO.N,GPIO47*%
X131445000Y-60750000D03*
%TO.P,U2,25,GPIO48/SPICLK_N/SUBSPICLK_N_DIFF_25*%
%TO.N,GPIO48*%
X132715000Y-60750000D03*
%TO.P,U2,26,GPIO45_26*%
%TO.N,GPIO45*%
X133985000Y-60750000D03*
D23*
%TO.P,U2,27,GPIO0/BOOT_27*%
%TO.N,GPIO0*%
X135750000Y-59500000D03*
%TO.P,U2,28,SPIIO6/GPIO35/FSPID/SUBSPID_28*%
%TO.N,GPIO35*%
X135750000Y-58230000D03*
%TO.P,U2,29,SPIIO7/GPIO36/FSPICLK/SUBSPICLK_29*%
%TO.N,GPIO36*%
X135750000Y-56960000D03*
%TO.P,U2,30,SPIDQS/GPIO37/FSPIQ/SUBSPIQ_30*%
%TO.N,GPIO37*%
X135750000Y-55690000D03*
%TO.P,U2,31,GPIO38/FSPIWP/SUBSPIWP_31*%
%TO.N,GPIO38*%
X135750000Y-54420000D03*
%TO.P,U2,32,MTCK/GPIO39/CLK_OUT3/SUBSPICS1_32*%
%TO.N,GPIO39*%
X135750000Y-53150000D03*
%TO.P,U2,33,MTDO/GPIO40/CLK_OUT2_33*%
%TO.N,GPIO40*%
X135750000Y-51880000D03*
%TO.P,U2,34,MTDI/GPIO41/CLK_OUT1_34*%
%TO.N,GPIO41*%
X135750000Y-50610000D03*
%TO.P,U2,35,MTMS/GPIO42_35*%
%TO.N,GPIO42*%
X135750000Y-49340000D03*
%TO.P,U2,36,U0RXD/GPIO44/CLK_OUT2_36*%
%TO.N,GPIO44*%
X135750000Y-48070000D03*
%TO.P,U2,37,U0TXD/GPIO43/CLK_OUT1_37*%
%TO.N,GPIO43*%
X135750000Y-46800000D03*
%TO.P,U2,38,GPIO2/TOUCH2/ADC1_CH1_38*%
%TO.N,GPIO2*%
X135750000Y-45530000D03*
%TO.P,U2,39,GPIO1/TOUCH1/ADC1_CH0_39*%
%TO.N,GPIO1*%
X135750000Y-44260000D03*
%TO.P,U2,40,GND_40*%
%TO.N,GND*%
X135750000Y-42990000D03*
D25*
%TO.P,U2,41,GND_41*%
X124100000Y-49310000D03*
X124100000Y-50710000D03*
X124100000Y-52110000D03*
X124100000Y-52110000D03*
X125500000Y-49310000D03*
X125500000Y-49310000D03*
X125500000Y-50710000D03*
X125500000Y-52110000D03*
X126900000Y-49310000D03*
X126900000Y-50710000D03*
X126900000Y-52110000D03*
%TD*%
D22*
%TO.P,R4,1*%
%TO.N,+5V*%
X132625000Y-71200000D03*
%TO.P,R4,2*%
%TO.N,Net-(D1-A)*%
X130975000Y-71200000D03*
%TD*%
D21*
%TO.P,C1,1*%
%TO.N,+3V3*%
X123800000Y-68150000D03*
%TO.P,C1,2*%
%TO.N,GND*%
X123800000Y-69700000D03*
%TD*%
D22*
%TO.P,R3,1*%
%TO.N,+3V3*%
X132625000Y-66200000D03*
%TO.P,R3,2*%
%TO.N,EN*%
X130975000Y-66200000D03*
%TD*%
D15*
%TO.P,D1,1,K_1*%
%TO.N,GND*%
X127600000Y-71200000D03*
%TO.P,D1,2,A_2*%
%TO.N,Net-(D1-A)*%
X129175000Y-71200000D03*
%TD*%
D13*
%TO.P,R2,1*%
%TO.N,Net-(J1-CC1)*%
X120700000Y-84575000D03*
%TO.P,R2,2*%
%TO.N,GND*%
X120700000Y-86225000D03*
%TD*%
D26*
%TO.P,J3,1,Pin_1_1*%
%TO.N,+5V*%
X139700000Y-43180000D03*
D27*
%TO.P,J3,2,Pin_2_2*%
%TO.N,GPIO1*%
X139700000Y-45720000D03*
%TO.P,J3,3,Pin_3_3*%
%TO.N,GPIO2*%
X139700000Y-48260000D03*
%TO.P,J3,4,Pin_4_4*%
%TO.N,GPIO43*%
X139700000Y-50800000D03*
%TO.P,J3,5,Pin_5_5*%
%TO.N,GPIO44*%
X139700000Y-53340000D03*
%TO.P,J3,6,Pin_6_6*%
%TO.N,GPIO42*%
X139700000Y-55880000D03*
%TO.P,J3,7,Pin_7_7*%
%TO.N,GPIO41*%
X139700000Y-58420000D03*
%TO.P,J3,8,Pin_8_8*%
%TO.N,GPIO40*%
X139700000Y-60960000D03*
%TO.P,J3,9,Pin_9_9*%
%TO.N,GPIO39*%
X139700000Y-63500000D03*
%TO.P,J3,10,Pin_10_10*%
%TO.N,GPIO38*%
X139700000Y-66040000D03*
%TO.P,J3,11,Pin_11_11*%
%TO.N,GPIO37*%
X139700000Y-68580000D03*
%TO.P,J3,12,Pin_12_12*%
%TO.N,GPIO36*%
X139700000Y-71120000D03*
%TO.P,J3,13,Pin_13_13*%
%TO.N,GPIO35*%
X139700000Y-73660000D03*
%TO.P,J3,14,Pin_14_14*%
%TO.N,GPIO0*%
X139700000Y-76200000D03*
%TO.P,J3,15,Pin_15_15*%
%TO.N,GPIO45*%
X139700000Y-78740000D03*
%TO.P,J3,16,Pin_16_16*%
%TO.N,GPIO48*%
X139700000Y-81280000D03*
%TO.P,J3,17,Pin_17_17*%
%TO.N,GPIO47*%
X139700000Y-83820000D03*
%TO.P,J3,18,Pin_18_18*%
%TO.N,GPIO21*%
X139700000Y-86360000D03*
%TO.P,J3,19,Pin_19_19*%
%TO.N,GPIO14*%
X139700000Y-88900000D03*
%TO.P,J3,20,Pin_20_20*%
%TO.N,GPIO13*%
X139700000Y-91440000D03*
%TD*%
D26*
%TO.P,J2,1,Pin_1_1*%
%TO.N,GND*%
X114300000Y-43185000D03*
D27*
%TO.P,J2,2,Pin_2_2*%
%TO.N,+3V3*%
X114300000Y-45725000D03*
%TO.P,J2,3,Pin_3_3*%
%TO.N,EN*%
X114300000Y-48265000D03*
%TO.P,J2,4,Pin_4_4*%
%TO.N,GPIO4*%
X114300000Y-50805000D03*
%TO.P,J2,5,Pin_5_5*%
%TO.N,GPIO5*%
X114300000Y-53345000D03*
%TO.P,J2,6,Pin_6_6*%
%TO.N,GPIO6*%
X114300000Y-55885000D03*
%TO.P,J2,7,Pin_7_7*%
%TO.N,GPIO7*%
X114300000Y-58425000D03*
%TO.P,J2,8,Pin_8_8*%
%TO.N,GPIO15*%
X114300000Y-60965000D03*
%TO.P,J2,9,Pin_9_9*%
%TO.N,GPIO16*%
X114300000Y-63505000D03*
%TO.P,J2,10,Pin_10_10*%
%TO.N,GPIO17*%
X114300000Y-66045000D03*
%TO.P,J2,11,Pin_11_11*%
%TO.N,GPIO18*%
X114300000Y-68585000D03*
%TO.P,J2,12,Pin_12_12*%
%TO.N,GPIO8*%
X114300000Y-71125000D03*
%TO.P,J2,13,Pin_13_13*%
%TO.N,D-*%
X114300000Y-73665000D03*
%TO.P,J2,14,Pin_14_14*%
%TO.N,D+*%
X114300000Y-76205000D03*
%TO.P,J2,15,Pin_15_15*%
%TO.N,GPIO3*%
X114300000Y-78745000D03*
%TO.P,J2,16,Pin_16_16*%
%TO.N,GPIO46*%
X114300000Y-81285000D03*
%TO.P,J2,17,Pin_17_17*%
%TO.N,GPIO9*%
X114300000Y-83825000D03*
%TO.P,J2,18,Pin_18_18*%
%TO.N,GPIO10*%
X114300000Y-86365000D03*
%TO.P,J2,19,Pin_19_19*%
%TO.N,GPIO11*%
X114300000Y-88905000D03*
%TO.P,J2,20,Pin_20_20*%
%TO.N,GPIO12*%
X114300000Y-91445000D03*
%TD*%
D28*
%TO.N,+3V3*%
X121000000Y-47225000D03*
%TO.N,Net-(J1-CC2)*%
X128900000Y-85000000D03*
X130400000Y-85000000D03*
%TO.N,GND*%
X127900000Y-55500000D03*
X127600000Y-51400000D03*
X125500000Y-79000000D03*
X131500000Y-77800000D03*
X120300000Y-81200000D03*
X135100000Y-90000000D03*
X124795000Y-50005000D03*
X131700000Y-82700000D03*
X126600000Y-63900000D03*
X123600000Y-74600000D03*
X126200000Y-52800000D03*
X124805000Y-51405000D03*
X126200000Y-43200000D03*
X127800000Y-82900000D03*
X126205000Y-48605000D03*
X126195000Y-51405000D03*
X123500000Y-51400000D03*
X125200000Y-89900000D03*
X119200000Y-72400000D03*
X130200000Y-46900000D03*
X121000000Y-48775000D03*
X123000000Y-83800000D03*
X125100000Y-58000000D03*
X123500000Y-50000000D03*
X124795000Y-48605000D03*
X122300000Y-78100000D03*
X126255000Y-49955000D03*
X119506393Y-42995577D03*
X125200000Y-77100000D03*
X127600000Y-50000000D03*
X122200000Y-83000000D03*
X132700000Y-77300000D03*
X134500000Y-42990000D03*
X124800000Y-52800000D03*
X122100000Y-72400000D03*
X129400000Y-90000000D03*
X128600000Y-72400000D03*
X119000000Y-89900000D03*
X123000000Y-71000000D03*
%TO.N,GPIO0*%
X134400000Y-58600000D03*
%TO.N,+5V*%
X127000000Y-77000000D03*
X129600000Y-85800000D03*
X125300000Y-85800000D03*
%TO.N,D+*%
X127100521Y-84699479D03*
X118124265Y-60924265D03*
X121000521Y-58300521D03*
%TO.N,D-*%
X126499479Y-85300521D03*
X120399479Y-57699479D03*
%TO.N,+3V3*%
X122800000Y-58700000D03*
X124800000Y-66900000D03*
%TO.N,EN*%
X123700000Y-72100000D03*
X128400000Y-65200000D03*
X119700000Y-45700000D03*
%TO.N,GPIO21*%
X136500000Y-83800000D03*
%TO.N,GPIO17*%
X120100000Y-54400000D03*
%TO.N,GPIO18*%
X120100000Y-55700000D03*
%TO.N,GPIO8*%
X119700000Y-57000000D03*
%TO.N,GPIO13*%
X131000000Y-64600000D03*
%TO.N,GPIO14*%
X132000000Y-64500000D03*
%TO.N,GPIO47*%
X135675000Y-78559901D03*
%TO.N,GPIO48*%
X137000000Y-77900000D03*
%TO.N,GPIO45*%
X137500000Y-76700000D03*
%TO.N,GPIO35*%
X134500000Y-57700000D03*
%TO.N,GPIO36*%
X134400000Y-56600000D03*
%TD*%
%TO.N,+3V3*%
D29*
X126250000Y-76689339D02*
X126800000Y-76139339D01*
X126250000Y-77310661D02*
X126250000Y-76689339D01*
X126800000Y-77860661D02*
X126250000Y-77310661D01*
X126800000Y-80450000D02*
X126800000Y-77860661D01*
%TO.N,+5V*%
X129100000Y-79100000D02*
X127000000Y-77000000D01*
X129100000Y-80450000D02*
X129100000Y-79100000D01*
%TO.N,+3V3*%
X126800000Y-76139339D02*
X126800000Y-74150000D01*
%TO.N,GPIO47*%
D30*
X135659901Y-78559901D02*
X135675000Y-78559901D01*
X134219000Y-77119000D02*
X135659901Y-78559901D01*
X131445000Y-60750000D02*
X131445000Y-62345000D01*
X131445000Y-62345000D02*
X134219000Y-65119000D01*
X134219000Y-65119000D02*
X134219000Y-77119000D01*
%TO.N,+5V*%
D29*
X129600000Y-80950000D02*
X129600000Y-85800000D01*
%TO.N,+3V3*%
X122365000Y-47225000D02*
X121000000Y-47225000D01*
X122570000Y-47430000D02*
X122800000Y-47660000D01*
X122570000Y-47430000D02*
X122365000Y-47225000D01*
%TO.N,Net-(J1-CC2)*%
D30*
X133400000Y-84675000D02*
X133075000Y-85000000D01*
X128900000Y-85000000D02*
X128900000Y-85300000D01*
X133075000Y-85000000D02*
X130400000Y-85000000D01*
X128900000Y-85300000D02*
X128950000Y-85350000D01*
X128950000Y-85350000D02*
X128950000Y-87050000D01*
%TO.N,GND*%
X124795000Y-48605000D02*
X125500000Y-49310000D01*
X131525000Y-87630000D02*
X131525000Y-91800000D01*
X127625000Y-66200000D02*
X127625000Y-71175000D01*
X124500000Y-80450000D02*
X124500000Y-82300000D01*
X118900000Y-92180000D02*
X122495000Y-92180000D01*
X126255000Y-49955000D02*
X126900000Y-49310000D01*
X127600000Y-71400000D02*
X128600000Y-72400000D01*
X124500000Y-80450000D02*
X124500000Y-80000000D01*
X131525000Y-87630000D02*
X132095000Y-87630000D01*
X122100000Y-69700000D02*
X122100000Y-72400000D01*
X124100000Y-52110000D02*
X124100000Y-49310000D01*
X124100000Y-49310000D02*
X126900000Y-49310000D01*
X132095000Y-87630000D02*
X133400000Y-86325000D01*
X135750000Y-42990000D02*
X134500000Y-42990000D01*
X121470000Y-86225000D02*
X122875000Y-87630000D01*
X126195000Y-51405000D02*
X126900000Y-52110000D01*
X126900000Y-52110000D02*
X124100000Y-52110000D01*
X127625000Y-71175000D02*
X127600000Y-71200000D01*
X131500000Y-77800000D02*
X131500000Y-78725000D01*
X119180000Y-42990000D02*
X124795000Y-48605000D01*
X124500000Y-80000000D02*
X125500000Y-79000000D01*
X122000000Y-69700000D02*
X123800000Y-69700000D01*
X130945000Y-87050000D02*
X131525000Y-87630000D01*
X124500000Y-82300000D02*
X123000000Y-83800000D01*
X122875000Y-91800000D02*
X122875000Y-87630000D01*
X126900000Y-49310000D02*
X126900000Y-52110000D01*
X126205000Y-48605000D02*
X125500000Y-49310000D01*
X118250000Y-42990000D02*
X114495000Y-42990000D01*
X130400000Y-87050000D02*
X130945000Y-87050000D01*
X131500000Y-78725000D02*
X131600000Y-78825000D01*
X122875000Y-87630000D02*
X123420000Y-87630000D01*
X135200000Y-92180000D02*
X131905000Y-92180000D01*
X118250000Y-42990000D02*
X119180000Y-42990000D01*
X124795000Y-50005000D02*
X126195000Y-51405000D01*
X120700000Y-86225000D02*
X121470000Y-86225000D01*
X124100000Y-49310000D02*
X124795000Y-50005000D01*
X131905000Y-92180000D02*
X131525000Y-91800000D01*
X134500000Y-42990000D02*
X131820000Y-42990000D01*
X127600000Y-71200000D02*
X127600000Y-71400000D01*
X122495000Y-92180000D02*
X122875000Y-91800000D01*
X124100000Y-52110000D02*
X124805000Y-51405000D01*
X124805000Y-51405000D02*
X126255000Y-49955000D01*
X131820000Y-42990000D02*
X126205000Y-48605000D01*
X114495000Y-42990000D02*
X114300000Y-43185000D01*
%TO.N,GPIO0*%
X135750000Y-59500000D02*
X134800000Y-59500000D01*
X137200000Y-78700000D02*
X139700000Y-76200000D01*
X135200000Y-87820000D02*
X137200000Y-85820000D01*
X137200000Y-85820000D02*
X137200000Y-78700000D01*
X134800000Y-59500000D02*
X134400000Y-59100000D01*
X134400000Y-59100000D02*
X134400000Y-58600000D01*
%TO.N,Net-(D3-A)*%
X129200000Y-67800000D02*
X130987500Y-67800000D01*
%TO.N,+5V*%
D29*
X129200000Y-78700000D02*
X129200000Y-80350000D01*
X124800000Y-86300000D02*
X125300000Y-85800000D01*
X124800000Y-87050000D02*
X124800000Y-86300000D01*
X129100000Y-80450000D02*
X131525000Y-80450000D01*
X129600000Y-85800000D02*
X129600000Y-87050000D01*
X129200000Y-78700000D02*
X132625000Y-75275000D01*
X131525000Y-80450000D02*
X131600000Y-80375000D01*
X129100000Y-80450000D02*
X129600000Y-80950000D01*
X129200000Y-80350000D02*
X129100000Y-80450000D01*
X132625000Y-75275000D02*
X132625000Y-71200000D01*
%TO.N,Net-(J1-CC1)*%
D30*
X125950000Y-85600057D02*
X125950000Y-87050000D01*
X120700000Y-84575000D02*
X124924943Y-84575000D01*
X124924943Y-84575000D02*
X125950000Y-85600057D01*
%TO.N,D+*%
X118550000Y-59500000D02*
X118960000Y-59090000D01*
X120717678Y-58300521D02*
X121000521Y-58300521D01*
X127100521Y-84699479D02*
X127100521Y-84982322D01*
X118960000Y-59090000D02*
X119928199Y-59090000D01*
X127925000Y-86169999D02*
X127950000Y-86194999D01*
X126999000Y-87921000D02*
X127780000Y-87921000D01*
X127950000Y-86194999D02*
X127950000Y-87050000D01*
X126950000Y-87872000D02*
X126999000Y-87921000D01*
X127925000Y-85806801D02*
X127925000Y-86169999D01*
X118250000Y-59500000D02*
X118550000Y-59500000D01*
X119928199Y-59090000D02*
X120717678Y-58300521D01*
X127950000Y-87751000D02*
X127950000Y-87050000D01*
X118124265Y-60924265D02*
X118124265Y-59625735D01*
X118124265Y-59625735D02*
X118250000Y-59500000D01*
X127780000Y-87921000D02*
X127950000Y-87751000D01*
X127100521Y-84982322D02*
X127925000Y-85806801D01*
X126950000Y-87050000D02*
X126950000Y-87872000D01*
%TO.N,D-*%
X120399479Y-57982322D02*
X120399479Y-57699479D01*
X127450000Y-86194999D02*
X127450000Y-87050000D01*
X126450000Y-86228000D02*
X126499000Y-86179000D01*
X126499000Y-86179000D02*
X127434001Y-86179000D01*
X118960000Y-58640000D02*
X119741801Y-58640000D01*
X126450000Y-87050000D02*
X126450000Y-86228000D01*
X127475000Y-85993199D02*
X127475000Y-86169999D01*
X118550000Y-58230000D02*
X118960000Y-58640000D01*
X127434001Y-86179000D02*
X127450000Y-86194999D01*
X127475000Y-86169999D02*
X127450000Y-86194999D01*
X126499479Y-85300521D02*
X126782322Y-85300521D01*
X118250000Y-58230000D02*
X118550000Y-58230000D01*
X119741801Y-58640000D02*
X120399479Y-57982322D01*
X126782322Y-85300521D02*
X127475000Y-85993199D01*
%TO.N,Net-(D2-A)*%
X129187500Y-69500000D02*
X130975000Y-69500000D01*
%TO.N,+3V3*%
D29*
X131824000Y-71729484D02*
X131824000Y-70301000D01*
X126800000Y-74150000D02*
X124676000Y-72026000D01*
X124676000Y-72026000D02*
X124676000Y-69209468D01*
X126800000Y-74150000D02*
X129403484Y-74150000D01*
X118250000Y-44260000D02*
X119400000Y-44260000D01*
X118250000Y-44260000D02*
X115765000Y-44260000D01*
X124676000Y-69209468D02*
X123616532Y-68150000D01*
X131800000Y-67025000D02*
X131800000Y-68675000D01*
X115765000Y-44260000D02*
X114300000Y-45725000D01*
X131800000Y-68675000D02*
X132625000Y-69500000D01*
X132625000Y-66200000D02*
X131800000Y-67025000D01*
X124800000Y-66900000D02*
X124800000Y-67150000D01*
X131824000Y-70301000D02*
X132625000Y-69500000D01*
X123616532Y-68150000D02*
X122000000Y-68150000D01*
X129403484Y-74150000D02*
X131824000Y-71729484D01*
X119400000Y-44260000D02*
X122570000Y-47430000D01*
X122800000Y-47660000D02*
X122800000Y-58700000D01*
X124800000Y-67150000D02*
X123800000Y-68150000D01*
%TO.N,EN*%
D30*
X129175000Y-66200000D02*
X130975000Y-66200000D01*
X118900000Y-76900000D02*
X123700000Y-72100000D01*
X119700000Y-45700000D02*
X118420000Y-45700000D01*
X118420000Y-45700000D02*
X118250000Y-45530000D01*
X118250000Y-45530000D02*
X117035000Y-45530000D01*
X129175000Y-66200000D02*
X129175000Y-65975000D01*
X129175000Y-65975000D02*
X128400000Y-65200000D01*
X118900000Y-87820000D02*
X118900000Y-76900000D01*
X117035000Y-45530000D02*
X114300000Y-48265000D01*
%TO.N,GPIO21*%
X133326000Y-64851000D02*
X130175000Y-61700000D01*
X130175000Y-61700000D02*
X130175000Y-60750000D01*
X133818000Y-68980500D02*
X133818000Y-81118000D01*
X132637500Y-67800000D02*
X133326000Y-67111500D01*
X132637500Y-67800000D02*
X133818000Y-68980500D01*
X133326000Y-67111500D02*
X133326000Y-64851000D01*
X133818000Y-81118000D02*
X134300000Y-81600000D01*
X134300000Y-81600000D02*
X136500000Y-83800000D01*
%TO.N,GPIO4*%
X118250000Y-46800000D02*
X117718000Y-46800000D01*
X114300000Y-50218000D02*
X114300000Y-50805000D01*
X117718000Y-46800000D02*
X114300000Y-50218000D01*
%TO.N,GPIO5*%
X118250000Y-48070000D02*
X117300000Y-48070000D01*
X117300000Y-48070000D02*
X115451000Y-49919000D01*
X115451000Y-49919000D02*
X115451000Y-52194000D01*
X115451000Y-52194000D02*
X114300000Y-53345000D01*
%TO.N,GPIO6*%
X118250000Y-49340000D02*
X117300000Y-49340000D01*
X115852000Y-54333000D02*
X114300000Y-55885000D01*
X115852000Y-50788000D02*
X115852000Y-54333000D01*
X117300000Y-49340000D02*
X115852000Y-50788000D01*
%TO.N,GPIO7*%
X116253000Y-56472000D02*
X114300000Y-58425000D01*
X118250000Y-50610000D02*
X117300000Y-50610000D01*
X116253000Y-51657000D02*
X116253000Y-56472000D01*
X117300000Y-50610000D02*
X116253000Y-51657000D01*
%TO.N,GPIO15*%
X117718000Y-51880000D02*
X116654000Y-52944000D01*
X116654000Y-58611000D02*
X114300000Y-60965000D01*
X116654000Y-52944000D02*
X116654000Y-58611000D01*
X118250000Y-51880000D02*
X117718000Y-51880000D01*
%TO.N,GPIO16*%
X118250000Y-53150000D02*
X117300000Y-53150000D01*
X117055000Y-60750000D02*
X114300000Y-63505000D01*
X117055000Y-53395000D02*
X117055000Y-60750000D01*
X117300000Y-53150000D02*
X117055000Y-53395000D01*
%TO.N,GPIO17*%
X118250000Y-54420000D02*
X120080000Y-54420000D01*
X120080000Y-54420000D02*
X120100000Y-54400000D01*
%TO.N,GPIO18*%
X120090000Y-55690000D02*
X120100000Y-55700000D01*
X118250000Y-55690000D02*
X120090000Y-55690000D01*
%TO.N,GPIO8*%
X118290000Y-57000000D02*
X118250000Y-56960000D01*
X119700000Y-57000000D02*
X118290000Y-57000000D01*
%TO.N,GPIO3*%
X115451000Y-65314000D02*
X115451000Y-77594000D01*
X120015000Y-60750000D02*
X115451000Y-65314000D01*
X115451000Y-77594000D02*
X114300000Y-78745000D01*
%TO.N,GPIO46*%
X115852000Y-79733000D02*
X114300000Y-81285000D01*
X115852000Y-66948000D02*
X115852000Y-79733000D01*
X121285000Y-60750000D02*
X121285000Y-61515000D01*
X121285000Y-61515000D02*
X115852000Y-66948000D01*
%TO.N,GPIO9*%
X116500000Y-81625000D02*
X114300000Y-83825000D01*
X122555000Y-60750000D02*
X122555000Y-61445000D01*
X122555000Y-61445000D02*
X116500000Y-67500000D01*
X116500000Y-67500000D02*
X116500000Y-81625000D01*
%TO.N,GPIO10*%
X116901000Y-83764000D02*
X114300000Y-86365000D01*
X123825000Y-60750000D02*
X123825000Y-61700000D01*
X116901000Y-68624000D02*
X116901000Y-83764000D01*
X123825000Y-61700000D02*
X116901000Y-68624000D01*
%TO.N,GPIO11*%
X117302000Y-69493000D02*
X117302000Y-85903000D01*
X125095000Y-60750000D02*
X125095000Y-61700000D01*
X125095000Y-61700000D02*
X117302000Y-69493000D01*
X117302000Y-85903000D02*
X114300000Y-88905000D01*
%TO.N,GPIO12*%
X126365000Y-61700000D02*
X120666000Y-67399000D01*
X120666000Y-67399000D02*
X120025890Y-67399000D01*
X126365000Y-60750000D02*
X126365000Y-61700000D01*
X120025890Y-67399000D02*
X117703000Y-69721890D01*
X117703000Y-69721890D02*
X117703000Y-88042000D01*
X117703000Y-88042000D02*
X114300000Y-91445000D01*
%TO.N,GPIO13*%
X127635000Y-61235000D02*
X131000000Y-64600000D01*
X127635000Y-60750000D02*
X127635000Y-61235000D01*
%TO.N,GPIO14*%
X128905000Y-60750000D02*
X128905000Y-61405000D01*
X128905000Y-61405000D02*
X132000000Y-64500000D01*
%TO.N,GPIO48*%
X134700000Y-75600000D02*
X137000000Y-77900000D01*
X132715000Y-61215000D02*
X134700000Y-63200000D01*
X132715000Y-60750000D02*
X132715000Y-61215000D01*
X134700000Y-63200000D02*
X134700000Y-75600000D01*
%TO.N,GPIO45*%
X135200000Y-61965000D02*
X135200000Y-74400000D01*
X133985000Y-60750000D02*
X135200000Y-61965000D01*
X135200000Y-74400000D02*
X137500000Y-76700000D01*
%TO.N,GPIO35*%
X135750000Y-58230000D02*
X135030000Y-58230000D01*
X135030000Y-58230000D02*
X134500000Y-57700000D01*
%TO.N,GPIO36*%
X134760000Y-56960000D02*
X134400000Y-56600000D01*
X135750000Y-56960000D02*
X134760000Y-56960000D01*
%TO.N,GPIO37*%
X136896000Y-57884400D02*
X137199000Y-58187400D01*
X135750000Y-55690000D02*
X136282000Y-55690000D01*
X136282000Y-55690000D02*
X136896000Y-56304000D01*
X137199000Y-64106100D02*
X137200000Y-64107100D01*
X137200000Y-64107100D02*
X137200000Y-66080000D01*
X136896000Y-56304000D02*
X136896000Y-57884400D01*
X137199000Y-58187400D02*
X137199000Y-64106100D01*
X137200000Y-66080000D02*
X139700000Y-68580000D01*
%TO.N,GPIO38*%
X136896000Y-54616000D02*
X136896000Y-55344400D01*
X135750000Y-54420000D02*
X136700000Y-54420000D01*
X136700000Y-54420000D02*
X136896000Y-54616000D01*
X137297000Y-57718300D02*
X137600000Y-58021300D01*
X137297000Y-55745400D02*
X137297000Y-57718300D01*
X137600000Y-58021300D02*
X137600000Y-63940000D01*
X136896000Y-55344400D02*
X137297000Y-55745400D01*
X137600000Y-63940000D02*
X139700000Y-66040000D01*
%TO.N,GPIO39*%
X135750000Y-53150000D02*
X136700000Y-53150000D01*
X136700000Y-53150000D02*
X137297000Y-53747000D01*
X138099000Y-57953200D02*
X138099000Y-59926100D01*
X137297000Y-55178300D02*
X137698000Y-55579300D01*
X137698000Y-57552200D02*
X138099000Y-57953200D01*
X138100000Y-61900000D02*
X139700000Y-63500000D01*
X137698000Y-55579300D02*
X137698000Y-57552200D01*
X138100000Y-59927100D02*
X138100000Y-61900000D01*
X138099000Y-59926100D02*
X138100000Y-59927100D01*
X137297000Y-53747000D02*
X137297000Y-55178300D01*
%TO.N,GPIO40*%
X138500000Y-57787100D02*
X138500000Y-59760000D01*
X136538700Y-51880000D02*
X137698000Y-53039300D01*
X138500000Y-59760000D02*
X139700000Y-60960000D01*
X135750000Y-51880000D02*
X136538700Y-51880000D01*
X137698000Y-53039300D02*
X137698000Y-55012200D01*
X137698000Y-55012200D02*
X138099000Y-55413200D01*
X138099000Y-57386100D02*
X138500000Y-57787100D01*
X138099000Y-55413200D02*
X138099000Y-57386100D01*
%TO.N,GPIO41*%
X138500000Y-55247100D02*
X138500000Y-57220000D01*
X137747000Y-52521200D02*
X138099000Y-52873200D01*
X136700000Y-50610000D02*
X137747000Y-51657000D01*
X137747000Y-51657000D02*
X137747000Y-52521200D01*
X135750000Y-50610000D02*
X136700000Y-50610000D01*
X138099000Y-52873200D02*
X138099000Y-54846100D01*
X138500000Y-57220000D02*
X139700000Y-58420000D01*
X138099000Y-54846100D02*
X138500000Y-55247100D01*
%TO.N,GPIO42*%
X138500000Y-54680000D02*
X139700000Y-55880000D01*
X138148000Y-50788000D02*
X138148000Y-52355100D01*
X135750000Y-49340000D02*
X136700000Y-49340000D01*
X136700000Y-49340000D02*
X138148000Y-50788000D01*
X138148000Y-52355100D02*
X138500000Y-52707100D01*
X138500000Y-52707100D02*
X138500000Y-54680000D01*
%TO.N,GPIO44*%
X138549000Y-52189000D02*
X139700000Y-53340000D01*
X138549000Y-50323240D02*
X138549000Y-52189000D01*
X135750000Y-48070000D02*
X136295760Y-48070000D01*
X136295760Y-48070000D02*
X138549000Y-50323240D01*
%TO.N,GPIO43*%
X135750000Y-46800000D02*
X136282000Y-46800000D01*
X139700000Y-50218000D02*
X139700000Y-50800000D01*
X136282000Y-46800000D02*
X139700000Y-50218000D01*
%TO.N,GPIO2*%
X136970000Y-45530000D02*
X139700000Y-48260000D01*
X135750000Y-45530000D02*
X136970000Y-45530000D01*
%TO.N,GPIO1*%
X138240000Y-44260000D02*
X139700000Y-45720000D01*
X135750000Y-44260000D02*
X138240000Y-44260000D01*
%TO.N,Net-(D1-A)*%
D29*
X130975000Y-71200000D02*
X130975000Y-71325000D01*
D30*
X129175000Y-71200000D02*
X130975000Y-71200000D01*
%TD*%
%TA.AperFunction,Conductor*%
%TO.N,GND*%
G36*
X133136834Y-75856336D02*
G01*
X133192767Y-75898208D01*
X133217184Y-75963672D01*
X133217500Y-75972518D01*
X133217500Y-81031330D01*
X133217499Y-81031348D01*
X133217499Y-81197054D01*
X133217498Y-81197054D01*
X133249195Y-81315348D01*
X133258423Y-81349785D01*
X133276441Y-81380993D01*
X133283496Y-81393211D01*
X133283497Y-81393215D01*
X133283498Y-81393215D01*
X133337479Y-81486714D01*
X133337481Y-81486717D01*
X133456349Y-81605585D01*
X133456355Y-81605590D01*
X135665425Y-83814660D01*
X135698910Y-83875983D01*
X135699361Y-83878149D01*
X135730261Y-84033491D01*
X135730264Y-84033501D01*
X135790602Y-84179172D01*
X135790609Y-84179185D01*
X135878210Y-84310288D01*
X135878213Y-84310292D01*
X135989707Y-84421786D01*
X135989711Y-84421789D01*
X136120814Y-84509390D01*
X136120827Y-84509397D01*
X136266498Y-84569735D01*
X136266503Y-84569737D01*
X136400496Y-84596390D01*
X136421153Y-84600499D01*
X136421156Y-84600500D01*
X136475500Y-84600500D01*
X136542539Y-84620185D01*
X136588294Y-84672989D01*
X136599500Y-84724500D01*
X136599500Y-85519902D01*
X136579815Y-85586941D01*
X136563181Y-85607583D01*
X135502582Y-86668181D01*
X135441259Y-86701666D01*
X135414901Y-86704500D01*
X134499000Y-86704500D01*
X134431961Y-86684815D01*
X134386206Y-86632011D01*
X134375000Y-86580500D01*
X134375000Y-86575000D01*
X133650000Y-86575000D01*
X133650000Y-87224999D01*
X133731581Y-87224999D01*
X133802102Y-87218591D01*
X133802107Y-87218590D01*
X133858609Y-87200984D01*
X133928469Y-87199832D01*
X133987862Y-87236633D01*
X134017930Y-87299701D01*
X134019500Y-87319369D01*
X134019500Y-88482870D01*
X134019501Y-88482876D01*
X134025908Y-88542483D01*
X134076202Y-88677328D01*
X134076206Y-88677335D01*
X134162452Y-88792544D01*
X134162455Y-88792547D01*
X134277664Y-88878793D01*
X134277671Y-88878797D01*
X134412517Y-88929091D01*
X134412516Y-88929091D01*
X134419444Y-88929835D01*
X134472127Y-88935500D01*
X135927872Y-88935499D01*
X135987483Y-88929091D01*
X136122331Y-88878796D01*
X136237546Y-88792546D01*
X136323796Y-88677331D01*
X136374091Y-88542483D01*
X136380500Y-88482873D01*
X136380499Y-87540095D01*
X136400183Y-87473057D01*
X136416813Y-87452420D01*
X137568713Y-86300521D01*
X137568716Y-86300520D01*
X137680520Y-86188716D01*
X137681326Y-86187318D01*
X137688110Y-86180503D01*
X137712015Y-86167375D01*
X137734036Y-86151292D01*
X137742190Y-86150805D01*
X137749353Y-86146872D01*
X137776560Y-86148752D01*
X137803781Y-86147127D01*
X137810905Y-86151126D01*
X137819057Y-86151690D01*
X137840930Y-86167983D01*
X137864706Y-86181331D01*
X137868536Y-86188546D01*
X137875090Y-86193428D01*
X137884681Y-86218957D01*
X137897468Y-86243043D01*
X137898852Y-86256677D01*
X137899663Y-86258834D01*
X137899261Y-86260701D01*
X137900000Y-86267975D01*
X137900000Y-92675500D01*
X137880315Y-92742539D01*
X137827511Y-92788294D01*
X137776000Y-92799500D01*
X136504000Y-92799500D01*
X136436961Y-92779815D01*
X136391206Y-92727011D01*
X136380000Y-92675500D01*
X136380000Y-92430000D01*
X134020000Y-92430000D01*
X134020000Y-92675500D01*
X134000315Y-92742539D01*
X133947511Y-92788294D01*
X133896000Y-92799500D01*
X132598771Y-92799500D01*
X132531732Y-92779815D01*
X132485977Y-92727011D01*
X132476033Y-92657853D01*
X132484210Y-92628047D01*
X132534649Y-92506274D01*
X132534651Y-92506266D01*
X132574999Y-92303420D01*
X132575000Y-92303417D01*
X132575000Y-92050000D01*
X131825000Y-92050000D01*
X131825000Y-91550000D01*
X132575000Y-91550000D01*
X132575000Y-91517155D01*
X134020000Y-91517155D01*
X134020000Y-91930000D01*
X134950000Y-91930000D01*
X135450000Y-91930000D01*
X136380000Y-91930000D01*
X136380000Y-91517172D01*
X136379999Y-91517155D01*
X136373598Y-91457627D01*
X136373596Y-91457620D01*
X136323354Y-91322913D01*
X136323350Y-91322906D01*
X136237190Y-91207812D01*
X136237187Y-91207809D01*
X136122093Y-91121649D01*
X136122086Y-91121645D01*
X135987379Y-91071403D01*
X135987372Y-91071401D01*
X135927844Y-91065000D01*
X135450000Y-91065000D01*
X135450000Y-91930000D01*
X134950000Y-91930000D01*
X134950000Y-91065000D01*
X134472155Y-91065000D01*
X134412627Y-91071401D01*
X134412620Y-91071403D01*
X134277913Y-91121645D01*
X134277906Y-91121649D01*
X134162812Y-91207809D01*
X134162809Y-91207812D01*
X134076649Y-91322906D01*
X134076645Y-91322913D01*
X134026403Y-91457620D01*
X134026401Y-91457627D01*
X134020000Y-91517155D01*
X132575000Y-91517155D01*
X132575000Y-91296583D01*
X132574999Y-91296579D01*
X132534651Y-91093733D01*
X132534649Y-91093725D01*
X132455499Y-90902641D01*
X132455494Y-90902631D01*
X132340589Y-90730664D01*
X132340586Y-90730660D01*
X132194339Y-90584413D01*
X132194335Y-90584410D01*
X132022368Y-90469505D01*
X132022358Y-90469500D01*
X131831272Y-90390349D01*
X131831267Y-90390347D01*
X131775000Y-90379155D01*
X131775000Y-91233011D01*
X131765060Y-91215795D01*
X131709205Y-91159940D01*
X131640796Y-91120444D01*
X131564496Y-91100000D01*
X131485504Y-91100000D01*
X131409204Y-91120444D01*
X131340795Y-91159940D01*
X131284940Y-91215795D01*
X131275000Y-91233011D01*
X131275000Y-90379156D01*
X131274999Y-90379155D01*
X131218732Y-90390347D01*
X131218727Y-90390349D01*
X131027641Y-90469500D01*
X131027631Y-90469505D01*
X130855664Y-90584410D01*
X130855660Y-90584413D01*
X130709413Y-90730660D01*
X130709410Y-90730664D01*
X130594505Y-90902631D01*
X130594500Y-90902641D01*
X130515350Y-91093725D01*
X130515348Y-91093733D01*
X130475000Y-91296579D01*
X130475000Y-91550000D01*
X131225000Y-91550000D01*
X131225000Y-92050000D01*
X130475000Y-92050000D01*
X130475000Y-92303420D01*
X130515348Y-92506266D01*
X130515350Y-92506274D01*
X130565790Y-92628047D01*
X130573259Y-92697517D01*
X130541984Y-92759996D01*
X130481895Y-92795648D01*
X130451229Y-92799500D01*
X123948771Y-92799500D01*
X123881732Y-92779815D01*
X123835977Y-92727011D01*
X123826033Y-92657853D01*
X123834210Y-92628047D01*
X123884649Y-92506274D01*
X123884651Y-92506266D01*
X123924999Y-92303420D01*
X123925000Y-92303417D01*
X123925000Y-92050000D01*
X123175000Y-92050000D01*
X123175000Y-91550000D01*
X123925000Y-91550000D01*
X123925000Y-91296583D01*
X123924999Y-91296579D01*
X123884651Y-91093733D01*
X123884649Y-91093725D01*
X123805499Y-90902641D01*
X123805494Y-90902631D01*
X123690589Y-90730664D01*
X123690586Y-90730660D01*
X123544339Y-90584413D01*
X123544335Y-90584410D01*
X123372368Y-90469505D01*
X123372358Y-90469500D01*
X123181272Y-90390349D01*
X123181267Y-90390347D01*
X123125000Y-90379155D01*
X123125000Y-91233011D01*
X123115060Y-91215795D01*
X123059205Y-91159940D01*
X122990796Y-91120444D01*
X122914496Y-91100000D01*
X122835504Y-91100000D01*
X122759204Y-91120444D01*
X122690795Y-91159940D01*
X122634940Y-91215795D01*
X122625000Y-91233011D01*
X122625000Y-90379156D01*
X122624999Y-90379155D01*
X122568732Y-90390347D01*
X122568727Y-90390349D01*
X122377641Y-90469500D01*
X122377631Y-90469505D01*
X122205664Y-90584410D01*
X122205660Y-90584413D01*
X122059413Y-90730660D01*
X122059410Y-90730664D01*
X121944505Y-90902631D01*
X121944500Y-90902641D01*
X121865350Y-91093725D01*
X121865348Y-91093733D01*
X121825000Y-91296579D01*
X121825000Y-91550000D01*
X122575000Y-91550000D01*
X122575000Y-92050000D01*
X121825000Y-92050000D01*
X121825000Y-92303420D01*
X121865348Y-92506266D01*
X121865350Y-92506274D01*
X121915790Y-92628047D01*
X121923259Y-92697517D01*
X121891984Y-92759996D01*
X121831895Y-92795648D01*
X121801229Y-92799500D01*
X120204000Y-92799500D01*
X120136961Y-92779815D01*
X120091206Y-92727011D01*
X120080000Y-92675500D01*
X120080000Y-92430000D01*
X117720000Y-92430000D01*
X117720000Y-92675500D01*
X117700315Y-92742539D01*
X117647511Y-92788294D01*
X117596000Y-92799500D01*
X116224000Y-92799500D01*
X116156961Y-92779815D01*
X116111206Y-92727011D01*
X116100000Y-92675500D01*
X116100000Y-91517155D01*
X117720000Y-91517155D01*
X117720000Y-91930000D01*
X118650000Y-91930000D01*
X119150000Y-91930000D01*
X120080000Y-91930000D01*
X120080000Y-91517172D01*
X120079999Y-91517155D01*
X120073598Y-91457627D01*
X120073596Y-91457620D01*
X120027424Y-91333825D01*
X120023354Y-91322913D01*
X120023350Y-91322906D01*
X119937190Y-91207812D01*
X119937187Y-91207809D01*
X119822093Y-91121649D01*
X119822086Y-91121645D01*
X119687379Y-91071403D01*
X119687372Y-91071401D01*
X119627844Y-91065000D01*
X119150000Y-91065000D01*
X119150000Y-91930000D01*
X118650000Y-91930000D01*
X118650000Y-91065000D01*
X118172155Y-91065000D01*
X118112627Y-91071401D01*
X118112620Y-91071403D01*
X117977913Y-91121645D01*
X117977906Y-91121649D01*
X117862812Y-91207809D01*
X117862809Y-91207812D01*
X117776649Y-91322906D01*
X117776645Y-91322913D01*
X117726403Y-91457620D01*
X117726401Y-91457627D01*
X117720000Y-91517155D01*
X116100000Y-91517155D01*
X116100000Y-90545596D01*
X116119685Y-90478557D01*
X116136319Y-90457915D01*
X116664130Y-89930104D01*
X117751728Y-88842506D01*
X117813049Y-88809023D01*
X117882741Y-88814007D01*
X117913718Y-88830922D01*
X117977669Y-88878796D01*
X117977671Y-88878797D01*
X118112517Y-88929091D01*
X118112516Y-88929091D01*
X118119444Y-88929835D01*
X118172127Y-88935500D01*
X119627872Y-88935499D01*
X119687483Y-88929091D01*
X119822331Y-88878796D01*
X119937546Y-88792546D01*
X120023796Y-88677331D01*
X120074091Y-88542483D01*
X120080500Y-88482873D01*
X120080499Y-87219367D01*
X120100184Y-87152329D01*
X120152988Y-87106574D01*
X120222146Y-87096630D01*
X120241390Y-87100983D01*
X120297894Y-87118590D01*
X120368418Y-87124999D01*
X120950000Y-87124999D01*
X121031581Y-87124999D01*
X121102102Y-87118591D01*
X121102107Y-87118590D01*
X121264396Y-87068018D01*
X121409877Y-86980072D01*
X121409878Y-86980071D01*
X121507139Y-86882811D01*
X121530071Y-86859878D01*
X121530072Y-86859877D01*
X121618019Y-86714395D01*
X121668590Y-86552106D01*
X121675000Y-86481572D01*
X121675000Y-86475000D01*
X120950000Y-86475000D01*
X120950000Y-87124999D01*
X120368418Y-87124999D01*
X120449999Y-87124998D01*
X120450000Y-87124998D01*
X120450000Y-86349000D01*
X120469685Y-86281961D01*
X120522489Y-86236206D01*
X120574000Y-86225000D01*
X120700000Y-86225000D01*
X120700000Y-86099000D01*
X120719685Y-86031961D01*
X120772489Y-85986206D01*
X120824000Y-85975000D01*
X121674999Y-85975000D01*
X121674999Y-85968417D01*
X121668591Y-85897897D01*
X121668590Y-85897892D01*
X121618018Y-85735603D01*
X121530072Y-85590122D01*
X121427984Y-85488034D01*
X121423645Y-85480088D01*
X121416397Y-85474662D01*
X121407162Y-85449902D01*
X121394499Y-85426711D01*
X121395144Y-85417680D01*
X121391981Y-85409198D01*
X121397597Y-85383377D01*
X121399483Y-85357019D01*
X121405301Y-85347965D01*
X121406833Y-85340925D01*
X121427984Y-85312673D01*
X121492668Y-85247989D01*
X121528840Y-85211818D01*
X121590163Y-85178334D01*
X121616520Y-85175500D01*
X124522536Y-85175500D01*
X124589575Y-85195185D01*
X124635330Y-85247989D01*
X124645274Y-85317147D01*
X124625638Y-85368391D01*
X124590609Y-85420814D01*
X124590604Y-85420823D01*
X124530809Y-85565184D01*
X124503929Y-85605412D01*
X124255888Y-85853453D01*
X124255884Y-85853458D01*
X124238924Y-85878842D01*
X124224453Y-85900500D01*
X124211949Y-85919214D01*
X124179223Y-85968191D01*
X124126421Y-86095667D01*
X124126418Y-86095677D01*
X124099500Y-86231004D01*
X124099500Y-86669030D01*
X124079815Y-86736069D01*
X124027011Y-86781824D01*
X123957853Y-86791768D01*
X123894297Y-86762743D01*
X123860939Y-86716483D01*
X123805499Y-86582641D01*
X123805494Y-86582631D01*
X123690589Y-86410664D01*
X123690586Y-86410660D01*
X123544339Y-86264413D01*
X123544335Y-86264410D01*
X123372368Y-86149505D01*
X123372358Y-86149500D01*
X123181272Y-86070349D01*
X123181267Y-86070347D01*
X123125000Y-86059155D01*
X123125000Y-86913011D01*
X123115060Y-86895795D01*
X123059205Y-86839940D01*
X122990796Y-86800444D01*
X122914496Y-86780000D01*
X122835504Y-86780000D01*
X122759204Y-86800444D01*
X122690795Y-86839940D01*
X122634940Y-86895795D01*
X122625000Y-86913011D01*
X122625000Y-86059156D01*
X122624999Y-86059155D01*
X122568732Y-86070347D01*
X122568727Y-86070349D01*
X122377641Y-86149500D01*
X122377631Y-86149505D01*
X122205664Y-86264410D01*
X122205660Y-86264413D01*
X122059413Y-86410660D01*
X122059410Y-86410664D01*
X121944505Y-86582631D01*
X121944500Y-86582641D01*
X121865350Y-86773725D01*
X121865348Y-86773733D01*
X121825000Y-86976579D01*
X121825000Y-87380000D01*
X122575000Y-87380000D01*
X122575000Y-87880000D01*
X121825000Y-87880000D01*
X121825000Y-88283420D01*
X121865348Y-88486266D01*
X121865350Y-88486274D01*
X121944500Y-88677358D01*
X121944505Y-88677368D01*
X122059410Y-88849335D01*
X122059413Y-88849339D01*
X122205660Y-88995586D01*
X122205664Y-88995589D01*
X122377631Y-89110494D01*
X122377641Y-89110499D01*
X122568723Y-89189648D01*
X122568725Y-89189649D01*
X122625000Y-89200842D01*
X122625000Y-88346988D01*
X122634940Y-88364205D01*
X122690795Y-88420060D01*
X122759204Y-88459556D01*
X122835504Y-88480000D01*
X122914496Y-88480000D01*
X122990796Y-88459556D01*
X123059205Y-88420060D01*
X123115060Y-88364205D01*
X123125000Y-88346988D01*
X123125000Y-89200842D01*
X123181274Y-89189649D01*
X123181276Y-89189648D01*
X123372358Y-89110499D01*
X123372368Y-89110494D01*
X123544335Y-88995589D01*
X123544339Y-88995586D01*
X123690586Y-88849339D01*
X123690589Y-88849335D01*
X123805494Y-88677368D01*
X123805501Y-88677355D01*
X123822580Y-88636123D01*
X123866420Y-88581719D01*
X123932714Y-88559654D01*
X123999141Y-88576188D01*
X124097511Y-88632982D01*
X124097512Y-88632982D01*
X124097515Y-88632984D01*
X124237525Y-88670500D01*
X124237528Y-88670500D01*
X124382472Y-88670500D01*
X124382475Y-88670500D01*
X124522485Y-88632984D01*
X124648015Y-88560509D01*
X124750509Y-88458015D01*
X124822984Y-88332485D01*
X124860500Y-88192475D01*
X124860500Y-88163917D01*
X124880185Y-88096878D01*
X124932989Y-88051123D01*
X125002147Y-88041179D01*
X125049258Y-88060695D01*
X125049886Y-88059546D01*
X125057671Y-88063797D01*
X125102618Y-88080561D01*
X125192517Y-88114091D01*
X125252127Y-88120500D01*
X125647872Y-88120499D01*
X125647873Y-88120498D01*
X125647885Y-88120498D01*
X125686744Y-88116320D01*
X125713252Y-88116320D01*
X125752127Y-88120500D01*
X126147872Y-88120499D01*
X126147873Y-88120498D01*
X126147885Y-88120498D01*
X126186744Y-88116320D01*
X126204717Y-88115699D01*
X126208988Y-88115861D01*
X126252127Y-88120500D01*
X126330845Y-88120499D01*
X126333198Y-88120589D01*
X126364169Y-88130978D01*
X126395520Y-88140183D01*
X126397358Y-88142110D01*
X126399440Y-88142809D01*
X126406935Y-88152155D01*
X126435868Y-88182498D01*
X126444347Y-88197184D01*
X126464170Y-88231520D01*
X126469480Y-88240716D01*
X126518480Y-88289716D01*
X126630284Y-88401520D01*
X126630286Y-88401521D01*
X126630290Y-88401524D01*
X126730806Y-88459556D01*
X126767216Y-88480577D01*
X126879019Y-88510534D01*
X126919942Y-88521500D01*
X126919943Y-88521500D01*
X127693331Y-88521500D01*
X127693347Y-88521501D01*
X127700943Y-88521501D01*
X127859054Y-88521501D01*
X127859057Y-88521501D01*
X128011785Y-88480577D01*
X128096655Y-88431577D01*
X128148716Y-88401520D01*
X128260520Y-88289716D01*
X128260520Y-88289714D01*
X128270723Y-88279512D01*
X128270727Y-88279506D01*
X128308505Y-88241729D01*
X128308510Y-88241725D01*
X128318714Y-88231520D01*
X128318716Y-88231520D01*
X128393417Y-88156817D01*
X128454740Y-88123333D01*
X128481099Y-88120499D01*
X128647872Y-88120499D01*
X128647885Y-88120498D01*
X128686744Y-88116320D01*
X128713252Y-88116320D01*
X128752127Y-88120500D01*
X129147872Y-88120499D01*
X129207483Y-88114091D01*
X129342331Y-88063796D01*
X129342334Y-88063793D01*
X129350114Y-88059546D01*
X129350920Y-88061022D01*
X129406642Y-88040234D01*
X129474916Y-88055079D01*
X129524326Y-88104480D01*
X129539500Y-88163917D01*
X129539500Y-88192475D01*
X129565556Y-88289716D01*
X129577017Y-88332488D01*
X129649488Y-88458011D01*
X129649490Y-88458013D01*
X129649491Y-88458015D01*
X129751985Y-88560509D01*
X129751986Y-88560510D01*
X129751988Y-88560511D01*
X129877511Y-88632982D01*
X129877512Y-88632982D01*
X129877515Y-88632984D01*
X130017525Y-88670500D01*
X130017528Y-88670500D01*
X130162472Y-88670500D01*
X130162475Y-88670500D01*
X130302485Y-88632984D01*
X130400859Y-88576187D01*
X130468757Y-88559715D01*
X130534784Y-88582567D01*
X130577419Y-88636121D01*
X130594502Y-88677361D01*
X130594505Y-88677368D01*
X130709410Y-88849335D01*
X130709413Y-88849339D01*
X130855660Y-88995586D01*
X130855664Y-88995589D01*
X131027631Y-89110494D01*
X131027641Y-89110499D01*
X131218723Y-89189648D01*
X131218725Y-89189649D01*
X131275000Y-89200842D01*
X131275000Y-88346988D01*
X131284940Y-88364205D01*
X131340795Y-88420060D01*
X131409204Y-88459556D01*
X131485504Y-88480000D01*
X131564496Y-88480000D01*
X131640796Y-88459556D01*
X131709205Y-88420060D01*
X131765060Y-88364205D01*
X131775000Y-88346988D01*
X131775000Y-89200842D01*
X131831274Y-89189649D01*
X131831276Y-89189648D01*
X132022358Y-89110499D01*
X132022368Y-89110494D01*
X132194335Y-88995589D01*
X132194339Y-88995586D01*
X132340586Y-88849339D01*
X132340589Y-88849335D01*
X132455494Y-88677368D01*
X132455499Y-88677358D01*
X132534649Y-88486274D01*
X132534651Y-88486266D01*
X132574999Y-88283420D01*
X132575000Y-88283417D01*
X132575000Y-87880000D01*
X131825000Y-87880000D01*
X131825000Y-87380000D01*
X132575000Y-87380000D01*
X132575000Y-87230336D01*
X132594685Y-87163297D01*
X132647489Y-87117542D01*
X132716647Y-87107598D01*
X132763150Y-87124219D01*
X132835604Y-87168019D01*
X132835603Y-87168019D01*
X132997894Y-87218590D01*
X132997892Y-87218590D01*
X133068418Y-87224999D01*
X133149999Y-87224998D01*
X133150000Y-87224998D01*
X133150000Y-86575000D01*
X132419000Y-86575000D01*
X132351961Y-86555315D01*
X132306206Y-86502511D01*
X132295000Y-86451000D01*
X132295000Y-86365075D01*
X132194334Y-86264409D01*
X132022368Y-86149505D01*
X132022358Y-86149500D01*
X131831272Y-86070349D01*
X131831267Y-86070347D01*
X131775000Y-86059155D01*
X131775000Y-86913011D01*
X131765060Y-86895795D01*
X131709205Y-86839940D01*
X131640796Y-86800444D01*
X131564496Y-86780000D01*
X131485504Y-86780000D01*
X131409204Y-86800444D01*
X131340795Y-86839940D01*
X131284940Y-86895795D01*
X131275000Y-86913011D01*
X131275000Y-86059156D01*
X131274999Y-86059155D01*
X131218732Y-86070347D01*
X131218723Y-86070350D01*
X131134851Y-86105091D01*
X131065381Y-86112560D01*
X131013088Y-86089797D01*
X130942088Y-86036646D01*
X130942086Y-86036645D01*
X130807379Y-85986403D01*
X130807372Y-85986401D01*
X130747844Y-85980000D01*
X130744521Y-85979823D01*
X130744530Y-85979644D01*
X130744525Y-85979644D01*
X130744536Y-85979540D01*
X130744585Y-85978624D01*
X130682229Y-85960315D01*
X130636474Y-85907511D01*
X130626530Y-85838353D01*
X130655555Y-85774797D01*
X130701816Y-85741439D01*
X130779172Y-85709397D01*
X130779172Y-85709396D01*
X130779179Y-85709394D01*
X130857317Y-85657184D01*
X130910875Y-85621398D01*
X130977553Y-85600520D01*
X130979766Y-85600500D01*
X132404248Y-85600500D01*
X132471287Y-85620185D01*
X132517042Y-85672989D01*
X132526986Y-85742147D01*
X132510365Y-85788649D01*
X132481982Y-85835599D01*
X132481980Y-85835603D01*
X132431409Y-85997893D01*
X132425000Y-86068427D01*
X132425000Y-86075000D01*
X134374999Y-86075000D01*
X134374999Y-86068417D01*
X134368591Y-85997897D01*
X134368590Y-85997892D01*
X134318018Y-85835603D01*
X134230072Y-85690122D01*
X134127984Y-85588034D01*
X134094499Y-85526711D01*
X134099483Y-85457019D01*
X134127983Y-85412673D01*
X134230472Y-85310185D01*
X134318478Y-85164606D01*
X134369086Y-85002196D01*
X134375500Y-84931616D01*
X134375500Y-84418384D01*
X134369086Y-84347804D01*
X134318478Y-84185394D01*
X134230472Y-84039815D01*
X134230470Y-84039813D01*
X134230469Y-84039811D01*
X134110188Y-83919530D01*
X133964606Y-83831522D01*
X133802196Y-83780914D01*
X133802194Y-83780913D01*
X133802192Y-83780913D01*
X133752778Y-83776423D01*
X133731616Y-83774500D01*
X133068384Y-83774500D01*
X133049145Y-83776248D01*
X132997807Y-83780913D01*
X132835393Y-83831522D01*
X132689811Y-83919530D01*
X132569530Y-84039811D01*
X132481522Y-84185393D01*
X132475012Y-84206286D01*
X132441948Y-84312392D01*
X132403212Y-84370538D01*
X132339187Y-84398512D01*
X132323564Y-84399500D01*
X130979766Y-84399500D01*
X130912727Y-84379815D01*
X130910875Y-84378602D01*
X130779185Y-84290609D01*
X130779172Y-84290602D01*
X130633501Y-84230264D01*
X130633489Y-84230261D01*
X130478845Y-84199500D01*
X130478842Y-84199500D01*
X130424500Y-84199500D01*
X130357461Y-84179815D01*
X130311706Y-84127011D01*
X130300500Y-84075500D01*
X130300500Y-81398467D01*
X130304164Y-81368547D01*
X130334995Y-81244571D01*
X130370278Y-81184266D01*
X130432563Y-81152608D01*
X130455330Y-81150500D01*
X130825440Y-81150500D01*
X130890538Y-81169615D01*
X130890809Y-81169177D01*
X130892410Y-81170164D01*
X130892479Y-81170185D01*
X130892706Y-81170347D01*
X131041294Y-81261998D01*
X131041297Y-81261999D01*
X131041303Y-81262003D01*
X131202292Y-81315349D01*
X131301655Y-81325500D01*
X131898344Y-81325499D01*
X131898352Y-81325498D01*
X131898355Y-81325498D01*
X131952760Y-81319940D01*
X131997708Y-81315349D01*
X132158697Y-81262003D01*
X132303044Y-81172968D01*
X132422968Y-81053044D01*
X132512003Y-80908697D01*
X132565349Y-80747708D01*
X132575500Y-80648345D01*
X132575499Y-80101656D01*
X132565349Y-80002292D01*
X132512003Y-79841303D01*
X132511999Y-79841297D01*
X132511998Y-79841294D01*
X132422970Y-79696959D01*
X132422967Y-79696955D01*
X132413339Y-79687327D01*
X132379854Y-79626004D01*
X132384838Y-79556312D01*
X132413345Y-79511959D01*
X132422573Y-79502731D01*
X132511542Y-79358492D01*
X132511547Y-79358481D01*
X132564855Y-79197606D01*
X132574999Y-79098322D01*
X132575000Y-79098309D01*
X132575000Y-79075000D01*
X130625001Y-79075000D01*
X130625001Y-79098322D01*
X130635144Y-79197607D01*
X130688452Y-79358481D01*
X130688457Y-79358492D01*
X130777424Y-79502728D01*
X130777427Y-79502732D01*
X130786660Y-79511965D01*
X130789583Y-79517319D01*
X130794637Y-79520743D01*
X130806135Y-79547631D01*
X130820145Y-79573288D01*
X130819709Y-79579374D01*
X130822109Y-79584985D01*
X130817246Y-79613813D01*
X130815161Y-79642980D01*
X130811244Y-79649401D01*
X130810489Y-79653882D01*
X130796758Y-79673154D01*
X130790692Y-79683101D01*
X130788721Y-79685266D01*
X130777032Y-79696956D01*
X130774817Y-79700546D01*
X130767166Y-79708955D01*
X130740839Y-79724984D01*
X130715699Y-79742787D01*
X130710054Y-79743728D01*
X130707488Y-79745291D01*
X130701551Y-79745146D01*
X130675453Y-79749500D01*
X130455330Y-79749500D01*
X130388291Y-79729815D01*
X130342536Y-79677011D01*
X130334995Y-79655426D01*
X130327678Y-79626004D01*
X130301641Y-79521307D01*
X130253630Y-79424501D01*
X130217032Y-79350707D01*
X130217030Y-79350704D01*
X130097722Y-79202278D01*
X130097721Y-79202277D01*
X129978518Y-79106459D01*
X129938599Y-79049116D01*
X129936019Y-78979294D01*
X129968522Y-78922133D01*
X130413319Y-78477337D01*
X130474642Y-78443852D01*
X130544334Y-78448836D01*
X130600267Y-78490708D01*
X130624684Y-78556172D01*
X130625000Y-78565018D01*
X130625000Y-78575000D01*
X131350000Y-78575000D01*
X131850000Y-78575000D01*
X132574999Y-78575000D01*
X132574999Y-78551692D01*
X132574998Y-78551677D01*
X132564855Y-78452392D01*
X132511547Y-78291518D01*
X132511542Y-78291507D01*
X132422575Y-78147271D01*
X132422572Y-78147267D01*
X132302732Y-78027427D01*
X132302728Y-78027424D01*
X132158492Y-77938457D01*
X132158481Y-77938452D01*
X131997606Y-77885144D01*
X131898322Y-77875000D01*
X131850000Y-77875000D01*
X131850000Y-78575000D01*
X131350000Y-78575000D01*
X131350000Y-77903313D01*
X131263486Y-77863786D01*
X131256652Y-77857862D01*
X131247979Y-77855316D01*
X131230668Y-77835339D01*
X131210690Y-77818022D01*
X131208144Y-77809346D01*
X131202223Y-77802513D01*
X131198460Y-77776345D01*
X131191017Y-77750979D01*
X131193565Y-77742303D01*
X131192279Y-77733354D01*
X131203261Y-77709305D01*
X131210713Y-77683943D01*
X131217546Y-77678023D01*
X131221303Y-77669798D01*
X131227322Y-77663333D01*
X133005819Y-75884837D01*
X133067142Y-75851352D01*
X133136834Y-75856336D01*
G37*
%TD.AperFunction*%
%TA.AperFunction,Conductor*%
G36*
X124339015Y-72695537D02*
G01*
X124383391Y-72724048D01*
X124568954Y-72909611D01*
X124602439Y-72970934D01*
X124597455Y-73040626D01*
X124577377Y-73075650D01*
X124560305Y-73096587D01*
X124466089Y-73276954D01*
X124410114Y-73472583D01*
X124410113Y-73472586D01*
X124399500Y-73591966D01*
X124399500Y-74708028D01*
X124399501Y-74708034D01*
X124410113Y-74827415D01*
X124466089Y-75023045D01*
X124466090Y-75023046D01*
X124466091Y-75023049D01*
X124560302Y-75203407D01*
X124560304Y-75203409D01*
X124688890Y-75361109D01*
X124782803Y-75437684D01*
X124846593Y-75489698D01*
X125026951Y-75583909D01*
X125222582Y-75639886D01*
X125341963Y-75650500D01*
X125975500Y-75650499D01*
X125984186Y-75653049D01*
X125993147Y-75651761D01*
X126017183Y-75662738D01*
X126042539Y-75670183D01*
X126048467Y-75677025D01*
X126056703Y-75680786D01*
X126070989Y-75703017D01*
X126088294Y-75722987D01*
X126090581Y-75733502D01*
X126094477Y-75739564D01*
X126099500Y-75774499D01*
X126099500Y-75797819D01*
X126079815Y-75864858D01*
X126063181Y-75885500D01*
X125705888Y-76242792D01*
X125705887Y-76242793D01*
X125629222Y-76357531D01*
X125576421Y-76485006D01*
X125576418Y-76485018D01*
X125556356Y-76585879D01*
X125556356Y-76585881D01*
X125549500Y-76620346D01*
X125549500Y-77241667D01*
X125549500Y-77379655D01*
X125549500Y-77379657D01*
X125549499Y-77379657D01*
X125576418Y-77514983D01*
X125576421Y-77514993D01*
X125629222Y-77642468D01*
X125705887Y-77757206D01*
X125705888Y-77757207D01*
X126063181Y-78114498D01*
X126096666Y-78175821D01*
X126099500Y-78202179D01*
X126099500Y-78932259D01*
X126079815Y-78999298D01*
X126030595Y-79043347D01*
X125950704Y-79082969D01*
X125802280Y-79202276D01*
X125802278Y-79202278D01*
X125801993Y-79202633D01*
X125746326Y-79271885D01*
X125688982Y-79311803D01*
X125619160Y-79314383D01*
X125559027Y-79278804D01*
X125553031Y-79271884D01*
X125497364Y-79202630D01*
X125349025Y-79083392D01*
X125349022Y-79083390D01*
X125178523Y-78998831D01*
X124993824Y-78952897D01*
X124951097Y-78950000D01*
X124750000Y-78950000D01*
X124750000Y-81950000D01*
X124951097Y-81950000D01*
X124993824Y-81947102D01*
X125178523Y-81901168D01*
X125349022Y-81816609D01*
X125349025Y-81816607D01*
X125497366Y-81697367D01*
X125497367Y-81697366D01*
X125553033Y-81628115D01*
X125610376Y-81588196D01*
X125680198Y-81585616D01*
X125740331Y-81621194D01*
X125746305Y-81628089D01*
X125802278Y-81697722D01*
X125802280Y-81697724D01*
X125950704Y-81817030D01*
X125950707Y-81817032D01*
X126121302Y-81901639D01*
X126121303Y-81901639D01*
X126121307Y-81901641D01*
X126306111Y-81947600D01*
X126348877Y-81950500D01*
X127251122Y-81950499D01*
X127293889Y-81947600D01*
X127478693Y-81901641D01*
X127649296Y-81817030D01*
X127797722Y-81697722D01*
X127853353Y-81628514D01*
X127910696Y-81588595D01*
X127980518Y-81586015D01*
X128040651Y-81621594D01*
X128046647Y-81628514D01*
X128102277Y-81697721D01*
X128102278Y-81697722D01*
X128250704Y-81817030D01*
X128250707Y-81817032D01*
X128421302Y-81901639D01*
X128421303Y-81901639D01*
X128421307Y-81901641D01*
X128606111Y-81947600D01*
X128648877Y-81950500D01*
X128775500Y-81950499D01*
X128842539Y-81970183D01*
X128888294Y-82022987D01*
X128899500Y-82074499D01*
X128899500Y-84082152D01*
X128879815Y-84149191D01*
X128827011Y-84194946D01*
X128799692Y-84203769D01*
X128666508Y-84230261D01*
X128666498Y-84230264D01*
X128520827Y-84290602D01*
X128520814Y-84290609D01*
X128389711Y-84378210D01*
X128389707Y-84378213D01*
X128278213Y-84489707D01*
X128278210Y-84489711D01*
X128190609Y-84620814D01*
X128190602Y-84620827D01*
X128139582Y-84744004D01*
X128095741Y-84798408D01*
X128029447Y-84820473D01*
X127961748Y-84803194D01*
X127914137Y-84752057D01*
X127901021Y-84696552D01*
X127901021Y-84620634D01*
X127901020Y-84620632D01*
X127883148Y-84530784D01*
X127870258Y-84465982D01*
X127850543Y-84418386D01*
X127809918Y-84320306D01*
X127809911Y-84320293D01*
X127722310Y-84189190D01*
X127722307Y-84189186D01*
X127610813Y-84077692D01*
X127610809Y-84077689D01*
X127479706Y-83990088D01*
X127479693Y-83990081D01*
X127334022Y-83929743D01*
X127334010Y-83929740D01*
X127179366Y-83898979D01*
X127179363Y-83898979D01*
X127021679Y-83898979D01*
X127021676Y-83898979D01*
X126867031Y-83929740D01*
X126867019Y-83929743D01*
X126721348Y-83990081D01*
X126721335Y-83990088D01*
X126590232Y-84077689D01*
X126590228Y-84077692D01*
X126478734Y-84189186D01*
X126478731Y-84189190D01*
X126391130Y-84320293D01*
X126391125Y-84320302D01*
X126331459Y-84464351D01*
X126287618Y-84518754D01*
X126264351Y-84531459D01*
X126120302Y-84591125D01*
X126120295Y-84591129D01*
X126007095Y-84666767D01*
X125940418Y-84687644D01*
X125873038Y-84669159D01*
X125850524Y-84651345D01*
X125412533Y-84213355D01*
X125412531Y-84213352D01*
X125293660Y-84094481D01*
X125293652Y-84094475D01*
X125198977Y-84039815D01*
X125198975Y-84039814D01*
X125156733Y-84015425D01*
X125156732Y-84015424D01*
X125144206Y-84012067D01*
X125004000Y-83974499D01*
X124845886Y-83974499D01*
X124838290Y-83974499D01*
X124838274Y-83974500D01*
X121616520Y-83974500D01*
X121549481Y-83954815D01*
X121528839Y-83938181D01*
X121410188Y-83819530D01*
X121264606Y-83731522D01*
X121102196Y-83680914D01*
X121102194Y-83680913D01*
X121102192Y-83680913D01*
X121052778Y-83676423D01*
X121031616Y-83674500D01*
X120368384Y-83674500D01*
X120349145Y-83676248D01*
X120297807Y-83680913D01*
X120135393Y-83731522D01*
X119989811Y-83819530D01*
X119869530Y-83939811D01*
X119781522Y-84085393D01*
X119781522Y-84085394D01*
X119742884Y-84209387D01*
X119704148Y-84267534D01*
X119640123Y-84295508D01*
X119571138Y-84284427D01*
X119519095Y-84237808D01*
X119500500Y-84172496D01*
X119500500Y-81151096D01*
X123250000Y-81151096D01*
X123252897Y-81193824D01*
X123298831Y-81378523D01*
X123383390Y-81549022D01*
X123383392Y-81549025D01*
X123502632Y-81697366D01*
X123502633Y-81697367D01*
X123650974Y-81816607D01*
X123650977Y-81816609D01*
X123821476Y-81901168D01*
X124006175Y-81947102D01*
X124048903Y-81950000D01*
X124250000Y-81950000D01*
X124250000Y-80700000D01*
X123250000Y-80700000D01*
X123250000Y-81151096D01*
X119500500Y-81151096D01*
X119500500Y-79748903D01*
X123250000Y-79748903D01*
X123250000Y-80200000D01*
X124250000Y-80200000D01*
X124250000Y-78950000D01*
X124048903Y-78950000D01*
X124006175Y-78952897D01*
X123821476Y-78998831D01*
X123650977Y-79083390D01*
X123650974Y-79083392D01*
X123502633Y-79202632D01*
X123502632Y-79202633D01*
X123383392Y-79350974D01*
X123383390Y-79350977D01*
X123298831Y-79521476D01*
X123252897Y-79706175D01*
X123250000Y-79748903D01*
X119500500Y-79748903D01*
X119500500Y-77200097D01*
X119520185Y-77133058D01*
X119536819Y-77112416D01*
X121604286Y-75044949D01*
X123714662Y-72934572D01*
X123775983Y-72901089D01*
X123778150Y-72900638D01*
X123836085Y-72889113D01*
X123933497Y-72869737D01*
X124079179Y-72809394D01*
X124210289Y-72721789D01*
X124210291Y-72721786D01*
X124214993Y-72717928D01*
X124216309Y-72719532D01*
X124269322Y-72690569D01*
X124339015Y-72695537D01*
G37*
%TD.AperFunction*%
%TA.AperFunction,Conductor*%
G36*
X121072422Y-67941444D02*
G01*
X121115615Y-67996364D01*
X121124500Y-68042455D01*
X121124500Y-68423337D01*
X121124501Y-68423355D01*
X121134650Y-68522707D01*
X121134651Y-68522710D01*
X121187996Y-68683694D01*
X121188001Y-68683705D01*
X121277029Y-68828040D01*
X121277032Y-68828044D01*
X121286660Y-68837672D01*
X121320145Y-68898995D01*
X121315161Y-68968687D01*
X121286663Y-69013031D01*
X121277428Y-69022265D01*
X121277424Y-69022271D01*
X121188457Y-69166507D01*
X121188452Y-69166518D01*
X121135144Y-69327393D01*
X121125000Y-69426677D01*
X121125000Y-69450000D01*
X123676000Y-69450000D01*
X123743039Y-69469685D01*
X123788794Y-69522489D01*
X123800000Y-69574000D01*
X123800000Y-69700000D01*
X123851500Y-69700000D01*
X123918539Y-69719685D01*
X123964294Y-69772489D01*
X123975500Y-69824000D01*
X123975500Y-71187523D01*
X123955815Y-71254562D01*
X123903011Y-71300317D01*
X123833853Y-71310261D01*
X123827309Y-71309140D01*
X123778846Y-71299500D01*
X123778842Y-71299500D01*
X123621158Y-71299500D01*
X123621155Y-71299500D01*
X123466510Y-71330261D01*
X123466498Y-71330264D01*
X123320827Y-71390602D01*
X123320814Y-71390609D01*
X123189711Y-71478210D01*
X123189707Y-71478213D01*
X123078213Y-71589707D01*
X123078210Y-71589711D01*
X122990609Y-71720814D01*
X122990602Y-71720827D01*
X122930264Y-71866498D01*
X122930261Y-71866508D01*
X122899361Y-72021850D01*
X122866976Y-72083761D01*
X122865425Y-72085339D01*
X118515181Y-76435583D01*
X118453858Y-76469068D01*
X118384166Y-76464084D01*
X118328233Y-76422212D01*
X118303816Y-76356748D01*
X118303500Y-76347902D01*
X118303500Y-70021987D01*
X118312144Y-69992546D01*
X118316327Y-69973322D01*
X121125001Y-69973322D01*
X121135144Y-70072607D01*
X121188452Y-70233481D01*
X121188457Y-70233492D01*
X121277424Y-70377728D01*
X121277427Y-70377732D01*
X121397267Y-70497572D01*
X121397271Y-70497575D01*
X121541507Y-70586542D01*
X121541518Y-70586547D01*
X121702393Y-70639855D01*
X121801683Y-70649999D01*
X122350000Y-70649999D01*
X122398308Y-70649999D01*
X122398322Y-70649998D01*
X122497607Y-70639855D01*
X122658481Y-70586547D01*
X122658492Y-70586542D01*
X122802728Y-70497575D01*
X122802732Y-70497572D01*
X122862319Y-70437986D01*
X122923642Y-70404501D01*
X122993334Y-70409485D01*
X123037681Y-70437986D01*
X123097267Y-70497572D01*
X123097271Y-70497575D01*
X123241507Y-70586542D01*
X123241518Y-70586547D01*
X123402393Y-70639855D01*
X123501683Y-70649999D01*
X123549999Y-70649998D01*
X123550000Y-70649998D01*
X123550000Y-69950000D01*
X122350000Y-69950000D01*
X122350000Y-70649999D01*
X121801683Y-70649999D01*
X121849999Y-70649998D01*
X121850000Y-70649998D01*
X121850000Y-69950000D01*
X121125001Y-69950000D01*
X121125001Y-69973322D01*
X118316327Y-69973322D01*
X118318668Y-69962560D01*
X118322422Y-69957544D01*
X118323185Y-69954948D01*
X118339819Y-69934306D01*
X118463168Y-69810957D01*
X119305439Y-68968687D01*
X120238307Y-68035819D01*
X120299630Y-68002334D01*
X120325988Y-67999500D01*
X120579331Y-67999500D01*
X120579347Y-67999501D01*
X120586943Y-67999501D01*
X120745054Y-67999501D01*
X120745057Y-67999501D01*
X120897785Y-67958577D01*
X120938496Y-67935070D01*
X121006394Y-67918595D01*
X121072422Y-67941444D01*
G37*
%TD.AperFunction*%
%TA.AperFunction,Conductor*%
G36*
X127043332Y-61981341D02*
G01*
X127052745Y-61984851D01*
X127077517Y-61994091D01*
X127137127Y-62000500D01*
X127499902Y-62000499D01*
X127566941Y-62020183D01*
X127587583Y-62036818D01*
X130165425Y-64614660D01*
X130198910Y-64675983D01*
X130199361Y-64678149D01*
X130230261Y-64833491D01*
X130230264Y-64833501D01*
X130290602Y-64979172D01*
X130290609Y-64979185D01*
X130378210Y-65110288D01*
X130378213Y-65110292D01*
X130413395Y-65145474D01*
X130446880Y-65206797D01*
X130441896Y-65276489D01*
X130400024Y-65332422D01*
X130389865Y-65339271D01*
X130339814Y-65369528D01*
X130339810Y-65369531D01*
X130219530Y-65489811D01*
X130200359Y-65521524D01*
X130148830Y-65568711D01*
X130079970Y-65580548D01*
X130015642Y-65553278D01*
X129988706Y-65522471D01*
X129972968Y-65496956D01*
X129853044Y-65377032D01*
X129853040Y-65377029D01*
X129708705Y-65288001D01*
X129708699Y-65287998D01*
X129708697Y-65287997D01*
X129661121Y-65272232D01*
X129547709Y-65234651D01*
X129448352Y-65224500D01*
X129448345Y-65224500D01*
X129325098Y-65224500D01*
X129295657Y-65215855D01*
X129265671Y-65209332D01*
X129260655Y-65205577D01*
X129258059Y-65204815D01*
X129237417Y-65188181D01*
X129234573Y-65185337D01*
X129201088Y-65124014D01*
X129200637Y-65121847D01*
X129179363Y-65014896D01*
X129169737Y-64966503D01*
X129138028Y-64889949D01*
X129109397Y-64820827D01*
X129109390Y-64820814D01*
X129021789Y-64689711D01*
X129021786Y-64689707D01*
X128910292Y-64578213D01*
X128910288Y-64578210D01*
X128779185Y-64490609D01*
X128779172Y-64490602D01*
X128633501Y-64430264D01*
X128633489Y-64430261D01*
X128478845Y-64399500D01*
X128478842Y-64399500D01*
X128321158Y-64399500D01*
X128321155Y-64399500D01*
X128166510Y-64430261D01*
X128166498Y-64430264D01*
X128020827Y-64490602D01*
X128020814Y-64490609D01*
X127889711Y-64578210D01*
X127889707Y-64578213D01*
X127778213Y-64689707D01*
X127778210Y-64689711D01*
X127690609Y-64820814D01*
X127690602Y-64820827D01*
X127630264Y-64966498D01*
X127630261Y-64966508D01*
X127598696Y-65125192D01*
X127566311Y-65187103D01*
X127505595Y-65221677D01*
X127477080Y-65225000D01*
X127351693Y-65225000D01*
X127351676Y-65225001D01*
X127252392Y-65235144D01*
X127091518Y-65288452D01*
X127091507Y-65288457D01*
X126947271Y-65377424D01*
X126947267Y-65377427D01*
X126827427Y-65497267D01*
X126827424Y-65497271D01*
X126738457Y-65641507D01*
X126738452Y-65641518D01*
X126685144Y-65802393D01*
X126675000Y-65901677D01*
X126675000Y-65950000D01*
X127501000Y-65950000D01*
X127568039Y-65969685D01*
X127613794Y-66022489D01*
X127625000Y-66074000D01*
X127625000Y-66200000D01*
X127751000Y-66200000D01*
X127818039Y-66219685D01*
X127863794Y-66272489D01*
X127875000Y-66324000D01*
X127875000Y-68841138D01*
X127862500Y-68883707D01*
X127862500Y-70541138D01*
X127850000Y-70583707D01*
X127850000Y-72174999D01*
X127866636Y-72174999D01*
X127866652Y-72174998D01*
X127965083Y-72164943D01*
X128124572Y-72112093D01*
X128124577Y-72112091D01*
X128267580Y-72023885D01*
X128299466Y-71992000D01*
X128360789Y-71958515D01*
X128430481Y-71963499D01*
X128474828Y-71992000D01*
X128507108Y-72024280D01*
X128507112Y-72024283D01*
X128650204Y-72112544D01*
X128650207Y-72112545D01*
X128650213Y-72112549D01*
X128809815Y-72165436D01*
X128908326Y-72175500D01*
X128908331Y-72175500D01*
X129441669Y-72175500D01*
X129441674Y-72175500D01*
X129540185Y-72165436D01*
X129699787Y-72112549D01*
X129842891Y-72024281D01*
X129961781Y-71905391D01*
X129983883Y-71869557D01*
X130035830Y-71822832D01*
X130104792Y-71811609D01*
X130168875Y-71839452D01*
X130195538Y-71870501D01*
X130219528Y-71910185D01*
X130339815Y-72030472D01*
X130339817Y-72030473D01*
X130345119Y-72035775D01*
X130343665Y-72037228D01*
X130378224Y-72085562D01*
X130381681Y-72155346D01*
X130348802Y-72214023D01*
X129305457Y-73257368D01*
X129244134Y-73290853D01*
X129174442Y-73285869D01*
X129118509Y-73243997D01*
X129107872Y-73227107D01*
X129039698Y-73096593D01*
X128994063Y-73040626D01*
X128911109Y-72938890D01*
X128753409Y-72810304D01*
X128753410Y-72810304D01*
X128753407Y-72810302D01*
X128573049Y-72716091D01*
X128573048Y-72716090D01*
X128573045Y-72716089D01*
X128455829Y-72682550D01*
X128377418Y-72660114D01*
X128377415Y-72660113D01*
X128377413Y-72660113D01*
X128304631Y-72653642D01*
X128258037Y-72649500D01*
X128258033Y-72649500D01*
X126341519Y-72649500D01*
X126274480Y-72629815D01*
X126253838Y-72613181D01*
X125412819Y-71772162D01*
X125379334Y-71710839D01*
X125376500Y-71684481D01*
X125376500Y-71504152D01*
X126662501Y-71504152D01*
X126672556Y-71602583D01*
X126725406Y-71762072D01*
X126725408Y-71762077D01*
X126813614Y-71905080D01*
X126932419Y-72023885D01*
X127075422Y-72112091D01*
X127075427Y-72112093D01*
X127234916Y-72164942D01*
X127333356Y-72174999D01*
X127350000Y-72174998D01*
X127350000Y-71450000D01*
X126662501Y-71450000D01*
X126662501Y-71504152D01*
X125376500Y-71504152D01*
X125376500Y-70895849D01*
X126662500Y-70895849D01*
X126662500Y-70950000D01*
X127350000Y-70950000D01*
X127350000Y-70158862D01*
X127362500Y-70116292D01*
X127362500Y-69750000D01*
X126675001Y-69750000D01*
X126675001Y-69804152D01*
X126685056Y-69902583D01*
X126737906Y-70062072D01*
X126737908Y-70062077D01*
X126826114Y-70205080D01*
X126877102Y-70256068D01*
X126910587Y-70317391D01*
X126905603Y-70387083D01*
X126877104Y-70431429D01*
X126813612Y-70494921D01*
X126725408Y-70637922D01*
X126725406Y-70637927D01*
X126672557Y-70797416D01*
X126662500Y-70895849D01*
X125376500Y-70895849D01*
X125376500Y-69195849D01*
X126675000Y-69195849D01*
X126675000Y-69250000D01*
X127362500Y-69250000D01*
X127362500Y-68458862D01*
X127375000Y-68416292D01*
X127375000Y-68050000D01*
X126687501Y-68050000D01*
X126687501Y-68104152D01*
X126697556Y-68202583D01*
X126750406Y-68362072D01*
X126750408Y-68362077D01*
X126838614Y-68505080D01*
X126889602Y-68556068D01*
X126923087Y-68617391D01*
X126918103Y-68687083D01*
X126889604Y-68731429D01*
X126826112Y-68794921D01*
X126737908Y-68937922D01*
X126737906Y-68937927D01*
X126685057Y-69097416D01*
X126675000Y-69195849D01*
X125376500Y-69195849D01*
X125376500Y-69194774D01*
X125376500Y-69140475D01*
X125376321Y-69139577D01*
X125349580Y-69005140D01*
X125321740Y-68937927D01*
X125296777Y-68877660D01*
X125220112Y-68762922D01*
X124811818Y-68354628D01*
X124797114Y-68327700D01*
X124780522Y-68301882D01*
X124779630Y-68295681D01*
X124778333Y-68293305D01*
X124775499Y-68266947D01*
X124775499Y-68216519D01*
X124795184Y-68149480D01*
X124811818Y-68128838D01*
X125061137Y-67879520D01*
X125344114Y-67596543D01*
X125420775Y-67481811D01*
X125473580Y-67354328D01*
X125474870Y-67347837D01*
X125493386Y-67303135D01*
X125509394Y-67279179D01*
X125569737Y-67133497D01*
X125600500Y-66978842D01*
X125600500Y-66821158D01*
X125600500Y-66821155D01*
X125600499Y-66821153D01*
X125596391Y-66800500D01*
X125569737Y-66666503D01*
X125569735Y-66666498D01*
X125509397Y-66520827D01*
X125509390Y-66520814D01*
X125494361Y-66498322D01*
X126675001Y-66498322D01*
X126685144Y-66597607D01*
X126738452Y-66758481D01*
X126738457Y-66758492D01*
X126827424Y-66902728D01*
X126827427Y-66902732D01*
X126841433Y-66916738D01*
X126874918Y-66978061D01*
X126869934Y-67047753D01*
X126841439Y-67092095D01*
X126838613Y-67094920D01*
X126750408Y-67237922D01*
X126750406Y-67237927D01*
X126697557Y-67397416D01*
X126687500Y-67495849D01*
X126687500Y-67550000D01*
X127375000Y-67550000D01*
X127375000Y-66450000D01*
X126675001Y-66450000D01*
X126675001Y-66498322D01*
X125494361Y-66498322D01*
X125473786Y-66467529D01*
X125421789Y-66389711D01*
X125421786Y-66389707D01*
X125310292Y-66278213D01*
X125310288Y-66278210D01*
X125179185Y-66190609D01*
X125179172Y-66190602D01*
X125033501Y-66130264D01*
X125033489Y-66130261D01*
X124878845Y-66099500D01*
X124878842Y-66099500D01*
X124721158Y-66099500D01*
X124721155Y-66099500D01*
X124566510Y-66130261D01*
X124566498Y-66130264D01*
X124420827Y-66190602D01*
X124420814Y-66190609D01*
X124289711Y-66278210D01*
X124289707Y-66278213D01*
X124178213Y-66389707D01*
X124178210Y-66389711D01*
X124090609Y-66520814D01*
X124090602Y-66520827D01*
X124030264Y-66666498D01*
X124030261Y-66666510D01*
X123999500Y-66821153D01*
X123999500Y-66908480D01*
X123990855Y-66937920D01*
X123984332Y-66967907D01*
X123980577Y-66972922D01*
X123979815Y-66975519D01*
X123963181Y-66996162D01*
X123796160Y-67163182D01*
X123734837Y-67196666D01*
X123708480Y-67199500D01*
X123501663Y-67199500D01*
X123501644Y-67199501D01*
X123402292Y-67209650D01*
X123402289Y-67209651D01*
X123241305Y-67262996D01*
X123241294Y-67263001D01*
X123096959Y-67352029D01*
X123096955Y-67352032D01*
X123037681Y-67411307D01*
X122976358Y-67444792D01*
X122906666Y-67439808D01*
X122862319Y-67411307D01*
X122803044Y-67352032D01*
X122803040Y-67352029D01*
X122658705Y-67263001D01*
X122658699Y-67262998D01*
X122658697Y-67262997D01*
X122658694Y-67262996D01*
X122497709Y-67209651D01*
X122398352Y-67199500D01*
X122014095Y-67199500D01*
X121947056Y-67179815D01*
X121901301Y-67127011D01*
X121891357Y-67057853D01*
X121920382Y-66994297D01*
X121926400Y-66987833D01*
X126733713Y-62180521D01*
X126733716Y-62180520D01*
X126845520Y-62068716D01*
X126863773Y-62037099D01*
X126872883Y-62027134D01*
X126891675Y-62015750D01*
X126907580Y-62000585D01*
X126921074Y-61994615D01*
X126922477Y-61994091D01*
X126922483Y-61994091D01*
X126956670Y-61981339D01*
X127026360Y-61976357D01*
X127043332Y-61981341D01*
G37*
%TD.AperFunction*%
%TA.AperFunction,Conductor*%
G36*
X120357685Y-46248662D02*
G01*
X120384045Y-46250548D01*
X120393098Y-46256366D01*
X120400138Y-46257898D01*
X120428392Y-46279049D01*
X120540433Y-46391090D01*
X120573918Y-46452413D01*
X120568934Y-46522105D01*
X120527062Y-46578038D01*
X120521645Y-46581871D01*
X120489716Y-46603206D01*
X120489707Y-46603213D01*
X120378213Y-46714707D01*
X120378210Y-46714711D01*
X120290609Y-46845814D01*
X120290602Y-46845827D01*
X120230264Y-46991498D01*
X120230261Y-46991510D01*
X120199500Y-47146153D01*
X120199500Y-47303846D01*
X120230261Y-47458489D01*
X120230264Y-47458501D01*
X120290602Y-47604172D01*
X120290609Y-47604185D01*
X120378210Y-47735288D01*
X120378213Y-47735292D01*
X120489707Y-47846786D01*
X120489711Y-47846789D01*
X120620814Y-47934390D01*
X120620827Y-47934397D01*
X120766498Y-47994735D01*
X120766503Y-47994737D01*
X120921153Y-48025499D01*
X120921156Y-48025500D01*
X120921158Y-48025500D01*
X121078844Y-48025500D01*
X121078845Y-48025499D01*
X121233497Y-47994737D01*
X121308963Y-47963478D01*
X121377864Y-47934939D01*
X121425316Y-47925500D01*
X121975500Y-47925500D01*
X122042539Y-47945185D01*
X122088294Y-47997989D01*
X122099500Y-48049500D01*
X122099500Y-58274684D01*
X122090061Y-58322137D01*
X122037678Y-58448601D01*
X121993837Y-58503004D01*
X121961919Y-58513627D01*
X121975309Y-58523277D01*
X121979846Y-58534801D01*
X121988286Y-58543866D01*
X121992405Y-58566698D01*
X122000907Y-58588289D01*
X121999855Y-58607985D01*
X122000693Y-58612626D01*
X121999700Y-58619120D01*
X121999500Y-58621155D01*
X121999500Y-58778846D01*
X122030261Y-58933489D01*
X122030264Y-58933501D01*
X122090602Y-59079172D01*
X122090609Y-59079185D01*
X122178210Y-59210288D01*
X122178213Y-59210292D01*
X122255740Y-59287819D01*
X122263206Y-59301492D01*
X122274623Y-59312096D01*
X122279608Y-59331531D01*
X122289225Y-59349142D01*
X122288113Y-59364683D01*
X122291985Y-59379774D01*
X122285672Y-59398818D01*
X122284241Y-59418834D01*
X122274903Y-59431306D01*
X122270002Y-59446095D01*
X122254393Y-59458704D01*
X122242369Y-59474767D01*
X122227025Y-59480814D01*
X122215652Y-59490003D01*
X122191474Y-59494827D01*
X122181465Y-59498773D01*
X122174772Y-59499500D01*
X122057128Y-59499501D01*
X121997517Y-59505909D01*
X121948814Y-59524073D01*
X121933406Y-59525749D01*
X121913655Y-59522210D01*
X121893639Y-59523642D01*
X121876669Y-59518659D01*
X121842480Y-59505908D01*
X121842482Y-59505908D01*
X121782883Y-59499501D01*
X121782881Y-59499500D01*
X121782873Y-59499500D01*
X121782864Y-59499500D01*
X120787129Y-59499500D01*
X120787123Y-59499501D01*
X120727518Y-59505908D01*
X120693331Y-59518659D01*
X120666971Y-59520543D01*
X120641158Y-59526160D01*
X120628110Y-59523322D01*
X120623639Y-59523642D01*
X120606670Y-59518659D01*
X120599618Y-59516029D01*
X120543683Y-59474160D01*
X120519264Y-59408696D01*
X120534114Y-59340423D01*
X120555264Y-59312168D01*
X120745307Y-59122125D01*
X120806628Y-59088642D01*
X120857178Y-59088191D01*
X120921676Y-59101021D01*
X120921679Y-59101021D01*
X121079365Y-59101021D01*
X121079366Y-59101020D01*
X121234018Y-59070258D01*
X121379700Y-59009915D01*
X121510810Y-58922310D01*
X121622310Y-58810810D01*
X121709915Y-58679700D01*
X121762843Y-58551917D01*
X121777399Y-58533854D01*
X121788149Y-58513292D01*
X121798911Y-58507160D01*
X121806682Y-58497517D01*
X121828697Y-58490189D01*
X121838341Y-58484694D01*
X121812233Y-58456653D01*
X121799827Y-58387893D01*
X121800821Y-58381389D01*
X121801021Y-58379365D01*
X121801021Y-58221676D01*
X121801020Y-58221674D01*
X121800849Y-58220816D01*
X121770258Y-58067024D01*
X121714950Y-57933497D01*
X121709918Y-57921348D01*
X121709911Y-57921335D01*
X121622310Y-57790232D01*
X121622307Y-57790228D01*
X121510813Y-57678734D01*
X121510809Y-57678731D01*
X121379706Y-57591130D01*
X121379693Y-57591123D01*
X121235649Y-57531459D01*
X121181245Y-57487618D01*
X121168540Y-57464350D01*
X121108876Y-57320306D01*
X121108869Y-57320293D01*
X121021268Y-57189190D01*
X121021265Y-57189186D01*
X120909771Y-57077692D01*
X120909767Y-57077689D01*
X120778664Y-56990088D01*
X120778651Y-56990081D01*
X120632980Y-56929743D01*
X120632970Y-56929740D01*
X120578081Y-56918822D01*
X120516170Y-56886437D01*
X120481596Y-56825721D01*
X120480663Y-56821434D01*
X120469737Y-56766503D01*
X120433427Y-56678842D01*
X120409397Y-56620827D01*
X120409389Y-56620813D01*
X120397819Y-56603497D01*
X120376940Y-56536820D01*
X120395424Y-56469440D01*
X120447402Y-56422749D01*
X120453458Y-56420047D01*
X120479179Y-56409394D01*
X120610289Y-56321789D01*
X120721789Y-56210289D01*
X120809394Y-56079179D01*
X120869737Y-55933497D01*
X120900500Y-55778842D01*
X120900500Y-55621158D01*
X120900500Y-55621155D01*
X120900499Y-55621153D01*
X120869738Y-55466510D01*
X120869737Y-55466503D01*
X120864644Y-55454208D01*
X120809397Y-55320827D01*
X120809390Y-55320814D01*
X120721789Y-55189711D01*
X120721786Y-55189707D01*
X120669760Y-55137681D01*
X120636275Y-55076358D01*
X120641259Y-55006666D01*
X120669760Y-54962319D01*
X120721786Y-54910292D01*
X120721789Y-54910289D01*
X120809394Y-54779179D01*
X120869737Y-54633497D01*
X120900500Y-54478842D01*
X120900500Y-54321158D01*
X120900500Y-54321155D01*
X120900499Y-54321153D01*
X120869738Y-54166510D01*
X120869737Y-54166503D01*
X120820576Y-54047816D01*
X120809397Y-54020827D01*
X120809390Y-54020814D01*
X120721789Y-53889711D01*
X120721786Y-53889707D01*
X120610292Y-53778213D01*
X120610288Y-53778210D01*
X120479185Y-53690609D01*
X120479172Y-53690602D01*
X120333501Y-53630264D01*
X120333489Y-53630261D01*
X120178845Y-53599500D01*
X120178842Y-53599500D01*
X120021158Y-53599500D01*
X120021155Y-53599500D01*
X119866510Y-53630261D01*
X119866498Y-53630264D01*
X119720827Y-53690602D01*
X119720813Y-53690610D01*
X119693387Y-53708935D01*
X119626709Y-53729811D01*
X119559330Y-53711325D01*
X119512641Y-53659345D01*
X119500499Y-53605835D01*
X119500499Y-52652128D01*
X119494091Y-52592517D01*
X119481340Y-52558332D01*
X119476357Y-52488642D01*
X119481340Y-52471669D01*
X119494091Y-52437483D01*
X119500500Y-52377873D01*
X119500499Y-51382128D01*
X119494091Y-51322517D01*
X119481340Y-51288332D01*
X119476357Y-51218642D01*
X119481340Y-51201669D01*
X119494091Y-51167483D01*
X119500500Y-51107873D01*
X119500499Y-50112128D01*
X119494091Y-50052517D01*
X119481340Y-50018332D01*
X119476357Y-49948642D01*
X119481340Y-49931669D01*
X119494091Y-49897483D01*
X119500500Y-49837873D01*
X119500499Y-48842128D01*
X119494091Y-48782517D01*
X119481340Y-48748332D01*
X119476357Y-48678642D01*
X119481340Y-48661669D01*
X119494091Y-48627483D01*
X119500500Y-48567873D01*
X119500499Y-47572128D01*
X119494091Y-47512517D01*
X119481340Y-47478332D01*
X119476357Y-47408642D01*
X119481340Y-47391669D01*
X119494091Y-47357483D01*
X119500500Y-47297873D01*
X119500499Y-46624499D01*
X119520183Y-46557461D01*
X119572987Y-46511706D01*
X119624499Y-46500500D01*
X119778844Y-46500500D01*
X119778845Y-46500499D01*
X119933497Y-46469737D01*
X120079179Y-46409394D01*
X120210289Y-46321789D01*
X120229962Y-46302116D01*
X120253030Y-46279049D01*
X120260975Y-46274710D01*
X120266401Y-46267463D01*
X120291160Y-46258228D01*
X120314353Y-46245564D01*
X120323382Y-46246209D01*
X120331865Y-46243046D01*
X120357685Y-46248662D01*
G37*
%TD.AperFunction*%
%TA.AperFunction,Conductor*%
G36*
X117214412Y-41920185D02*
G01*
X117260167Y-41972989D01*
X117270111Y-42042147D01*
X117241086Y-42105703D01*
X117221684Y-42123766D01*
X117142812Y-42182809D01*
X117142809Y-42182812D01*
X117056649Y-42297906D01*
X117056645Y-42297913D01*
X117006403Y-42432620D01*
X117006401Y-42432627D01*
X117000000Y-42492155D01*
X117000000Y-42740000D01*
X119500000Y-42740000D01*
X119500000Y-42492172D01*
X119499999Y-42492155D01*
X119493598Y-42432627D01*
X119493596Y-42432620D01*
X119443354Y-42297913D01*
X119443350Y-42297906D01*
X119357190Y-42182812D01*
X119357187Y-42182809D01*
X119278316Y-42123766D01*
X119236445Y-42067833D01*
X119231461Y-41998141D01*
X119264947Y-41936818D01*
X119326270Y-41903334D01*
X119352627Y-41900500D01*
X134647373Y-41900500D01*
X134714412Y-41920185D01*
X134760167Y-41972989D01*
X134770111Y-42042147D01*
X134741086Y-42105703D01*
X134721684Y-42123766D01*
X134642812Y-42182809D01*
X134642809Y-42182812D01*
X134556649Y-42297906D01*
X134556645Y-42297913D01*
X134506403Y-42432620D01*
X134506401Y-42432627D01*
X134500000Y-42492155D01*
X134500000Y-42740000D01*
X137000000Y-42740000D01*
X137000000Y-42492172D01*
X136999999Y-42492155D01*
X136993598Y-42432627D01*
X136993596Y-42432620D01*
X136943354Y-42297913D01*
X136943350Y-42297906D01*
X136857190Y-42182812D01*
X136857187Y-42182809D01*
X136778316Y-42123766D01*
X136736445Y-42067833D01*
X136731461Y-41998141D01*
X136764947Y-41936818D01*
X136826270Y-41903334D01*
X136852627Y-41900500D01*
X137776000Y-41900500D01*
X137843039Y-41920185D01*
X137888794Y-41972989D01*
X137900000Y-42024500D01*
X137900000Y-43535500D01*
X137880315Y-43602539D01*
X137827511Y-43648294D01*
X137776000Y-43659500D01*
X137119589Y-43659500D01*
X137052550Y-43639815D01*
X137006795Y-43587011D01*
X136996300Y-43522242D01*
X136999999Y-43487839D01*
X137000000Y-43487827D01*
X137000000Y-43240000D01*
X134500000Y-43240000D01*
X134500000Y-43487844D01*
X134506401Y-43547372D01*
X134506403Y-43547379D01*
X134518925Y-43580952D01*
X134523909Y-43650643D01*
X134518925Y-43667617D01*
X134505909Y-43702514D01*
X134505908Y-43702516D01*
X134499501Y-43762116D01*
X134499500Y-43762135D01*
X134499500Y-44757870D01*
X134499501Y-44757876D01*
X134505908Y-44817481D01*
X134518659Y-44851669D01*
X134523642Y-44921361D01*
X134518659Y-44938331D01*
X134505908Y-44972518D01*
X134499501Y-45032116D01*
X134499500Y-45032135D01*
X134499500Y-46027870D01*
X134499501Y-46027876D01*
X134505908Y-46087481D01*
X134518659Y-46121669D01*
X134523642Y-46191361D01*
X134518659Y-46208331D01*
X134505908Y-46242518D01*
X134499501Y-46302116D01*
X134499500Y-46302135D01*
X134499501Y-47297868D01*
X134499501Y-47297876D01*
X134505908Y-47357481D01*
X134518659Y-47391669D01*
X134523642Y-47461361D01*
X134518659Y-47478331D01*
X134505908Y-47512518D01*
X134499501Y-47572116D01*
X134499501Y-47572123D01*
X134499500Y-47572135D01*
X134499500Y-48567870D01*
X134499501Y-48567876D01*
X134505908Y-48627481D01*
X134518659Y-48661669D01*
X134523642Y-48731361D01*
X134518659Y-48748331D01*
X134505908Y-48782518D01*
X134499501Y-48842116D01*
X134499501Y-48842123D01*
X134499500Y-48842135D01*
X134499500Y-49837870D01*
X134499501Y-49837876D01*
X134505908Y-49897481D01*
X134518659Y-49931669D01*
X134523642Y-50001361D01*
X134518659Y-50018331D01*
X134505908Y-50052518D01*
X134499501Y-50112116D01*
X134499501Y-50112123D01*
X134499500Y-50112135D01*
X134499500Y-51107870D01*
X134499501Y-51107876D01*
X134505908Y-51167481D01*
X134518659Y-51201669D01*
X134523642Y-51271361D01*
X134518659Y-51288331D01*
X134505908Y-51322518D01*
X134501162Y-51366666D01*
X134499501Y-51382123D01*
X134499500Y-51382135D01*
X134499500Y-52377870D01*
X134499501Y-52377876D01*
X134505908Y-52437481D01*
X134518659Y-52471669D01*
X134523642Y-52541361D01*
X134518659Y-52558331D01*
X134505908Y-52592518D01*
X134499501Y-52652116D01*
X134499501Y-52652123D01*
X134499500Y-52652135D01*
X134499500Y-53647870D01*
X134499501Y-53647876D01*
X134505908Y-53707481D01*
X134518659Y-53741669D01*
X134523642Y-53811361D01*
X134518659Y-53828331D01*
X134505908Y-53862518D01*
X134499501Y-53922116D01*
X134499500Y-53922135D01*
X134499500Y-54917870D01*
X134499501Y-54917876D01*
X134505908Y-54977481D01*
X134518659Y-55011669D01*
X134523642Y-55081361D01*
X134518659Y-55098331D01*
X134505908Y-55132518D01*
X134499501Y-55192116D01*
X134499500Y-55192135D01*
X134499500Y-55675500D01*
X134479815Y-55742539D01*
X134427011Y-55788294D01*
X134375500Y-55799500D01*
X134321155Y-55799500D01*
X134166510Y-55830261D01*
X134166498Y-55830264D01*
X134020827Y-55890602D01*
X134020814Y-55890609D01*
X133889711Y-55978210D01*
X133889707Y-55978213D01*
X133778213Y-56089707D01*
X133778210Y-56089711D01*
X133690609Y-56220814D01*
X133690602Y-56220827D01*
X133630264Y-56366498D01*
X133630261Y-56366510D01*
X133599500Y-56521153D01*
X133599500Y-56678846D01*
X133630261Y-56833489D01*
X133630264Y-56833501D01*
X133690602Y-56979172D01*
X133690609Y-56979185D01*
X133778210Y-57110288D01*
X133778213Y-57110292D01*
X133798009Y-57130088D01*
X133831494Y-57191411D01*
X133826510Y-57261103D01*
X133813432Y-57286657D01*
X133790610Y-57320814D01*
X133790602Y-57320828D01*
X133730264Y-57466498D01*
X133730261Y-57466510D01*
X133699500Y-57621153D01*
X133699500Y-57778846D01*
X133730260Y-57933488D01*
X133730261Y-57933489D01*
X133730263Y-57933497D01*
X133763192Y-58012995D01*
X133770660Y-58082464D01*
X133751733Y-58129336D01*
X133690608Y-58220816D01*
X133690602Y-58220827D01*
X133630264Y-58366498D01*
X133630261Y-58366510D01*
X133599500Y-58521153D01*
X133599500Y-58678846D01*
X133630261Y-58833489D01*
X133630264Y-58833501D01*
X133690602Y-58979172D01*
X133690609Y-58979185D01*
X133778601Y-59110873D01*
X133795814Y-59149758D01*
X133799499Y-59164533D01*
X133799499Y-59179057D01*
X133840423Y-59331785D01*
X133841808Y-59334184D01*
X133844629Y-59345494D01*
X133843554Y-59371570D01*
X133846344Y-59397517D01*
X133842138Y-59405917D01*
X133841752Y-59415305D01*
X133826750Y-59436659D01*
X133815069Y-59459996D01*
X133806989Y-59464789D01*
X133801589Y-59472477D01*
X133777425Y-59482330D01*
X133754980Y-59495648D01*
X133740222Y-59497501D01*
X133736892Y-59498860D01*
X133733876Y-59498298D01*
X133724315Y-59499500D01*
X133487130Y-59499500D01*
X133487123Y-59499501D01*
X133427518Y-59505908D01*
X133393331Y-59518659D01*
X133323639Y-59523642D01*
X133306669Y-59518659D01*
X133272480Y-59505908D01*
X133272482Y-59505908D01*
X133212883Y-59499501D01*
X133212881Y-59499500D01*
X133212873Y-59499500D01*
X133212864Y-59499500D01*
X132217129Y-59499500D01*
X132217123Y-59499501D01*
X132157518Y-59505908D01*
X132123331Y-59518659D01*
X132053639Y-59523642D01*
X132036669Y-59518659D01*
X132002480Y-59505908D01*
X132002482Y-59505908D01*
X131942883Y-59499501D01*
X131942881Y-59499500D01*
X131942873Y-59499500D01*
X131942864Y-59499500D01*
X130947129Y-59499500D01*
X130947123Y-59499501D01*
X130887518Y-59505908D01*
X130853331Y-59518659D01*
X130783639Y-59523642D01*
X130766669Y-59518659D01*
X130732480Y-59505908D01*
X130732482Y-59505908D01*
X130672883Y-59499501D01*
X130672881Y-59499500D01*
X130672873Y-59499500D01*
X130672864Y-59499500D01*
X129677129Y-59499500D01*
X129677123Y-59499501D01*
X129617518Y-59505908D01*
X129583331Y-59518659D01*
X129513639Y-59523642D01*
X129496669Y-59518659D01*
X129462480Y-59505908D01*
X129462482Y-59505908D01*
X129402883Y-59499501D01*
X129402881Y-59499500D01*
X129402873Y-59499500D01*
X129402864Y-59499500D01*
X128407129Y-59499500D01*
X128407123Y-59499501D01*
X128347518Y-59505908D01*
X128313331Y-59518659D01*
X128243639Y-59523642D01*
X128226669Y-59518659D01*
X128192480Y-59505908D01*
X128192482Y-59505908D01*
X128132883Y-59499501D01*
X128132881Y-59499500D01*
X128132873Y-59499500D01*
X128132864Y-59499500D01*
X127137129Y-59499500D01*
X127137123Y-59499501D01*
X127077518Y-59505908D01*
X127043331Y-59518659D01*
X126973639Y-59523642D01*
X126956669Y-59518659D01*
X126922480Y-59505908D01*
X126922482Y-59505908D01*
X126862883Y-59499501D01*
X126862881Y-59499500D01*
X126862873Y-59499500D01*
X126862864Y-59499500D01*
X125867129Y-59499500D01*
X125867123Y-59499501D01*
X125807518Y-59505908D01*
X125773331Y-59518659D01*
X125703639Y-59523642D01*
X125686669Y-59518659D01*
X125652480Y-59505908D01*
X125652482Y-59505908D01*
X125592883Y-59499501D01*
X125592881Y-59499500D01*
X125592873Y-59499500D01*
X125592864Y-59499500D01*
X124597129Y-59499500D01*
X124597123Y-59499501D01*
X124537518Y-59505908D01*
X124503331Y-59518659D01*
X124433639Y-59523642D01*
X124416669Y-59518659D01*
X124382480Y-59505908D01*
X124382482Y-59505908D01*
X124322883Y-59499501D01*
X124322881Y-59499500D01*
X124322873Y-59499500D01*
X124322865Y-59499500D01*
X123431940Y-59499500D01*
X123364901Y-59479815D01*
X123319146Y-59427011D01*
X123309202Y-59357853D01*
X123338227Y-59294297D01*
X123344245Y-59287832D01*
X123421789Y-59210289D01*
X123509394Y-59079179D01*
X123569737Y-58933497D01*
X123600500Y-58778842D01*
X123600500Y-58621158D01*
X123600500Y-58621155D01*
X123600499Y-58621153D01*
X123586728Y-58551921D01*
X123569737Y-58466503D01*
X123509939Y-58322136D01*
X123500500Y-58274684D01*
X123500500Y-53184000D01*
X123520185Y-53116961D01*
X123572989Y-53071206D01*
X123624500Y-53060000D01*
X123850000Y-53060000D01*
X124350000Y-53060000D01*
X124597828Y-53060000D01*
X124597844Y-53059999D01*
X124657372Y-53053598D01*
X124657376Y-53053597D01*
X124756666Y-53016564D01*
X124826358Y-53011580D01*
X124843334Y-53016564D01*
X124942623Y-53053597D01*
X124942627Y-53053598D01*
X125002155Y-53059999D01*
X125002172Y-53060000D01*
X125250000Y-53060000D01*
X125750000Y-53060000D01*
X125997828Y-53060000D01*
X125997844Y-53059999D01*
X126057372Y-53053598D01*
X126057376Y-53053597D01*
X126156666Y-53016564D01*
X126226358Y-53011580D01*
X126243334Y-53016564D01*
X126342623Y-53053597D01*
X126342627Y-53053598D01*
X126402155Y-53059999D01*
X126402172Y-53060000D01*
X126650000Y-53060000D01*
X127150000Y-53060000D01*
X127397828Y-53060000D01*
X127397844Y-53059999D01*
X127457372Y-53053598D01*
X127457379Y-53053596D01*
X127592086Y-53003354D01*
X127592093Y-53003350D01*
X127707187Y-52917190D01*
X127707190Y-52917187D01*
X127793350Y-52802093D01*
X127793354Y-52802086D01*
X127843596Y-52667379D01*
X127843598Y-52667372D01*
X127849999Y-52607844D01*
X127850000Y-52607827D01*
X127850000Y-52360000D01*
X127150000Y-52360000D01*
X127150000Y-53060000D01*
X126650000Y-53060000D01*
X126650000Y-52360000D01*
X125750000Y-52360000D01*
X125750000Y-53060000D01*
X125250000Y-53060000D01*
X125250000Y-52360000D01*
X124350000Y-52360000D01*
X124350000Y-53060000D01*
X123850000Y-53060000D01*
X123850000Y-51860000D01*
X124350000Y-51860000D01*
X125250000Y-51860000D01*
X125750000Y-51860000D01*
X126650000Y-51860000D01*
X127150000Y-51860000D01*
X127850000Y-51860000D01*
X127850000Y-51612172D01*
X127849999Y-51612155D01*
X127843598Y-51552627D01*
X127843597Y-51552623D01*
X127806564Y-51453334D01*
X127801580Y-51383642D01*
X127806564Y-51366666D01*
X127843597Y-51267376D01*
X127843598Y-51267372D01*
X127849999Y-51207844D01*
X127850000Y-51207827D01*
X127850000Y-50960000D01*
X127150000Y-50960000D01*
X127150000Y-51860000D01*
X126650000Y-51860000D01*
X126650000Y-50960000D01*
X125750000Y-50960000D01*
X125750000Y-51860000D01*
X125250000Y-51860000D01*
X125250000Y-50960000D01*
X124350000Y-50960000D01*
X124350000Y-51860000D01*
X123850000Y-51860000D01*
X123850000Y-50460000D01*
X124350000Y-50460000D01*
X125250000Y-50460000D01*
X125750000Y-50460000D01*
X126650000Y-50460000D01*
X127150000Y-50460000D01*
X127850000Y-50460000D01*
X127850000Y-50212172D01*
X127849999Y-50212155D01*
X127843598Y-50152627D01*
X127843597Y-50152623D01*
X127806564Y-50053334D01*
X127801580Y-49983642D01*
X127806564Y-49966666D01*
X127843597Y-49867376D01*
X127843598Y-49867372D01*
X127849999Y-49807844D01*
X127850000Y-49807827D01*
X127850000Y-49560000D01*
X127150000Y-49560000D01*
X127150000Y-50460000D01*
X126650000Y-50460000D01*
X126650000Y-49560000D01*
X125750000Y-49560000D01*
X125750000Y-50460000D01*
X125250000Y-50460000D01*
X125250000Y-49560000D01*
X124350000Y-49560000D01*
X124350000Y-50460000D01*
X123850000Y-50460000D01*
X123850000Y-49060000D01*
X124350000Y-49060000D01*
X125250000Y-49060000D01*
X125750000Y-49060000D01*
X126650000Y-49060000D01*
X127150000Y-49060000D01*
X127850000Y-49060000D01*
X127850000Y-48812172D01*
X127849999Y-48812155D01*
X127843598Y-48752627D01*
X127843596Y-48752620D01*
X127793354Y-48617913D01*
X127793350Y-48617906D01*
X127707190Y-48502812D01*
X127707187Y-48502809D01*
X127592093Y-48416649D01*
X127592086Y-48416645D01*
X127457379Y-48366403D01*
X127457372Y-48366401D01*
X127397844Y-48360000D01*
X127150000Y-48360000D01*
X127150000Y-49060000D01*
X126650000Y-49060000D01*
X126650000Y-48360000D01*
X126402155Y-48360000D01*
X126342627Y-48366401D01*
X126342616Y-48366403D01*
X126243332Y-48403434D01*
X126173640Y-48408418D01*
X126156668Y-48403434D01*
X126057383Y-48366403D01*
X126057372Y-48366401D01*
X125997844Y-48360000D01*
X125750000Y-48360000D01*
X125750000Y-49060000D01*
X125250000Y-49060000D01*
X125250000Y-48360000D01*
X125002155Y-48360000D01*
X124942627Y-48366401D01*
X124942616Y-48366403D01*
X124843332Y-48403434D01*
X124773640Y-48408418D01*
X124756668Y-48403434D01*
X124657383Y-48366403D01*
X124657372Y-48366401D01*
X124597844Y-48360000D01*
X124350000Y-48360000D01*
X124350000Y-49060000D01*
X123850000Y-49060000D01*
X123850000Y-48360000D01*
X123624500Y-48360000D01*
X123557461Y-48340315D01*
X123511706Y-48287511D01*
X123500500Y-48236000D01*
X123500500Y-47591004D01*
X123473581Y-47455677D01*
X123473580Y-47455676D01*
X123473580Y-47455672D01*
X123473578Y-47455667D01*
X123420777Y-47328193D01*
X123420776Y-47328191D01*
X123400569Y-47297949D01*
X123400569Y-47297948D01*
X123344115Y-47213458D01*
X123344109Y-47213451D01*
X123016543Y-46885886D01*
X122811543Y-46680886D01*
X119846546Y-43715888D01*
X119846545Y-43715887D01*
X119731807Y-43639222D01*
X119604330Y-43586420D01*
X119604318Y-43586417D01*
X119599804Y-43585519D01*
X119537894Y-43553132D01*
X119503322Y-43492415D01*
X119500000Y-43463903D01*
X119500000Y-43240000D01*
X117000000Y-43240000D01*
X117000000Y-43435500D01*
X116980315Y-43502539D01*
X116927511Y-43548294D01*
X116876000Y-43559500D01*
X116224000Y-43559500D01*
X116156961Y-43539815D01*
X116111206Y-43487011D01*
X116100000Y-43435500D01*
X116100000Y-42024500D01*
X116119685Y-41957461D01*
X116172489Y-41911706D01*
X116224000Y-41900500D01*
X117147373Y-41900500D01*
X117214412Y-41920185D01*
G37*
%TD.AperFunction*%
%TD*%
M02*
