%TF.GenerationSoftware,KiCad,Pcbnew,10.0.2*%
%TF.CreationDate,2026-05-23T16:12:35-04:00*%
%TF.ProjectId,custom devboard,63757374-6f6d-4206-9465-76626f617264,rev?*%
%TF.SameCoordinates,Original*%
%TF.FileFunction,Soldermask,Bot*%
%TF.FilePolarity,Negative*%
%FSLAX46Y46*%
G04 Gerber Fmt 4.6, Leading zero omitted, Abs format (unit mm)*
G04 Created by KiCad (PCBNEW 10.0.2) date 2026-05-23 16:12:35*
%MOMM*%
%LPD*%
G01*
G04 APERTURE LIST*
G04 Aperture macros list*
%AMRoundRect*
0 Rectangle with rounded corners*
0 $1 Rounding radius*
0 $2 $3 $4 $5 $6 $7 $8 $9 X,Y pos of 4 corners*
0 Add a 4 corners polygon primitive as box body*
4,1,4,$2,$3,$4,$5,$6,$7,$8,$9,$2,$3,0*
0 Add four circle primitives for the rounded corners*
1,1,$1+$1,$2,$3*
1,1,$1+$1,$4,$5*
1,1,$1+$1,$6,$7*
1,1,$1+$1,$8,$9*
0 Add four rect primitives between the rounded corners*
20,1,$1+$1,$2,$3,$4,$5,0*
20,1,$1+$1,$4,$5,$6,$7,0*
20,1,$1+$1,$6,$7,$8,$9,0*
20,1,$1+$1,$8,$9,$2,$3,0*%
G04 Aperture macros list end*
%ADD10RoundRect,0.200000X0.200000X0.275000X-0.200000X0.275000X-0.200000X-0.275000X0.200000X-0.275000X0*%
%ADD11RoundRect,0.225000X-0.250000X0.225000X-0.250000X-0.225000X0.250000X-0.225000X0.250000X0.225000X0*%
%ADD12R,1.500000X1.000000*%
%ADD13RoundRect,0.218750X0.218750X0.256250X-0.218750X0.256250X-0.218750X-0.256250X0.218750X-0.256250X0*%
%ADD14C,0.600000*%
%ADD15O,1.100000X2.200000*%
%ADD16O,1.100000X1.900000*%
%ADD17R,1.700000X1.700000*%
%ADD18C,1.700000*%
G04 APERTURE END LIST*
D10*
%TO.C,R7*%
X134675000Y-79500000D03*
X136325000Y-79500000D03*
%TD*%
D11*
%TO.C,C6*%
X128500000Y-75775000D03*
X128500000Y-74225000D03*
%TD*%
D12*
%TO.C,D4*%
X135450000Y-73400000D03*
X135450000Y-76600000D03*
X130550000Y-76600000D03*
X130550000Y-73400000D03*
%TD*%
D13*
%TO.C,D5*%
X136075000Y-71500000D03*
X134500000Y-71500000D03*
%TD*%
D14*
%TO.C,J1*%
X124310000Y-88120000D03*
X130090000Y-88120000D03*
D15*
X122875000Y-87630000D03*
X131525000Y-87630000D03*
D16*
X122875000Y-91800000D03*
X131525000Y-91800000D03*
%TD*%
D11*
%TO.C,C3*%
X121000000Y-47225000D03*
X121000000Y-48775000D03*
%TD*%
D17*
%TO.C,J3*%
X139700000Y-43180000D03*
D18*
X139700000Y-45720000D03*
X139700000Y-48260000D03*
X139700000Y-50800000D03*
X139700000Y-53340000D03*
X139700000Y-55880000D03*
X139700000Y-58420000D03*
X139700000Y-60960000D03*
X139700000Y-63500000D03*
X139700000Y-66040000D03*
X139700000Y-68580000D03*
X139700000Y-71120000D03*
X139700000Y-73660000D03*
X139700000Y-76200000D03*
X139700000Y-78740000D03*
X139700000Y-81280000D03*
X139700000Y-83820000D03*
X139700000Y-86360000D03*
X139700000Y-88900000D03*
X139700000Y-91440000D03*
%TD*%
D17*
%TO.C,J2*%
X114300000Y-43185000D03*
D18*
X114300000Y-45725000D03*
X114300000Y-48265000D03*
X114300000Y-50805000D03*
X114300000Y-53345000D03*
X114300000Y-55885000D03*
X114300000Y-58425000D03*
X114300000Y-60965000D03*
X114300000Y-63505000D03*
X114300000Y-66045000D03*
X114300000Y-68585000D03*
X114300000Y-71125000D03*
X114300000Y-73665000D03*
X114300000Y-76205000D03*
X114300000Y-78745000D03*
X114300000Y-81285000D03*
X114300000Y-83825000D03*
X114300000Y-86365000D03*
X114300000Y-88905000D03*
X114300000Y-91445000D03*
%TD*%
M02*
