M48
; DRILL file KiCad 10.0.2 date 2026-05-23T16:12:35
; FORMAT={-:-/ absolute / inch / decimal}
; #@! TF.CreationDate,2026-05-23T16:12:35-04:00
; #@! TF.GenerationSoftware,Kicad,Pcbnew,10.0.2
; #@! TF.FileFunction,Plated,1,2,PTH
FMAT,2
INCH
; #@! TA.AperFunction,Plated,PTH,ViaDrill
T1C0.0118
; #@! TA.AperFunction,Plated,PTH,ComponentDrill
T2C0.0236
; #@! TA.AperFunction,Plated,PTH,ComponentDrill
T3C0.0394
%
G90
G05
T1
X4.6506Y-2.3986
X4.685Y-3.5394
X4.6929Y-2.8504
X4.705Y-1.6927
X4.7126Y-1.7992
X4.7126Y-2.2441
X4.7283Y-2.1417
X4.7283Y-2.1929
X4.7362Y-3.1969
X4.7401Y-2.2716
X4.7638Y-1.8593
X4.7638Y-1.9203
X4.7638Y-2.2953
X4.8071Y-2.8504
X4.811Y-3.2677
X4.815Y-3.0748
X4.8346Y-2.311
X4.8425Y-2.7953
X4.8425Y-3.2992
X4.8622Y-1.9685
X4.8622Y-2.0236
X4.8661Y-2.937
X4.8701Y-2.8386
X4.9132Y-1.9136
X4.9132Y-1.9687
X4.9134Y-2.0787
X4.9134Y-2.6339
X4.9136Y-2.0238
X4.9252Y-2.2835
X4.9291Y-3.0354
X4.9291Y-3.5394
X4.9331Y-3.378
X4.9409Y-3.1102
X4.9683Y-2.0238
X4.9685Y-1.7008
X4.9685Y-2.0787
X4.9687Y-1.9136
X4.9707Y-1.9667
X4.9803Y-3.3583
X4.9843Y-2.5157
X5.0Y-3.0315
X5.004Y-3.3346
X5.0236Y-1.9685
X5.0236Y-2.0236
X5.0315Y-3.2638
X5.0354Y-2.185
X5.0551Y-2.5669
X5.063Y-2.8504
X5.0748Y-3.3465
X5.0945Y-3.5433
X5.1024Y-3.378
X5.126Y-1.8465
X5.1339Y-3.3465
X5.1575Y-2.5433
X5.1772Y-3.063
X5.185Y-3.2559
X5.1969Y-2.5394
X5.2244Y-3.0433
X5.2913Y-2.2283
X5.2913Y-2.3071
X5.2953Y-1.6925
X5.2953Y-2.2717
X5.3189Y-3.5433
X5.3415Y-3.0929
X5.374Y-3.2992
X5.3937Y-3.0669
X5.4134Y-3.0197
T3
X4.5Y-1.7002
X4.5Y-1.8002
X4.5Y-1.9002
X4.5Y-2.0002
X4.5Y-2.1002
X4.5Y-2.2002
X4.5Y-2.3002
X4.5Y-2.4002
X4.5Y-2.5002
X4.5Y-2.6002
X4.5Y-2.7002
X4.5Y-2.8002
X4.5Y-2.9002
X4.5Y-3.0002
X4.5Y-3.1002
X4.5Y-3.2002
X4.5Y-3.3002
X4.5Y-3.4002
X4.5Y-3.5002
X4.5Y-3.6002
X5.5Y-1.7
X5.5Y-1.8
X5.5Y-1.9
X5.5Y-2.0
X5.5Y-2.1
X5.5Y-2.2
X5.5Y-2.3
X5.5Y-2.4
X5.5Y-2.5
X5.5Y-2.6
X5.5Y-2.7
X5.5Y-2.8
X5.5Y-2.9
X5.5Y-3.0
X5.5Y-3.1
X5.5Y-3.2
X5.5Y-3.3
X5.5Y-3.4
X5.5Y-3.5
X5.5Y-3.6
T2
G00X4.8376Y-3.4283
M15
G01X4.8376Y-3.4717
M16
G05
G00X4.8376Y-3.5984
M15
G01X4.8376Y-3.6299
M16
G05
G00X5.1781Y-3.4283
M15
G01X5.1781Y-3.4717
M16
G05
G00X5.1781Y-3.5984
M15
G01X5.1781Y-3.6299
M16
G05
M30
