%TF.GenerationSoftware,KiCad,Pcbnew,10.0.2*%
%TF.CreationDate,2026-05-23T16:12:35-04:00*%
%TF.ProjectId,custom devboard,63757374-6f6d-4206-9465-76626f617264,rev?*%
%TF.SameCoordinates,Original*%
%TF.FileFunction,Copper,L2,Bot*%
%TF.FilePolarity,Positive*%
%FSLAX46Y46*%
G04 Gerber Fmt 4.6, Leading zero omitted, Abs format (unit mm)*
G04 Created by KiCad (PCBNEW 10.0.2) date 2026-05-23 16:12:35*
%MOMM*%
%LPD*%
G01*
G04 APERTURE LIST*
G04 Aperture macros list*
%AMRoundRect*
0 Rectangle with rounded corners*
0 $1 Rounding radius*
0 $2 $3 $4 $5 $6 $7 $8 $9 X,Y pos of 4 corners*
0 Add a 4 corners polygon primitive as box body*
4,1,4,$2,$3,$4,$5,$6,$7,$8,$9,$2,$3,0*
0 Add four circle primitives for the rounded corners*
1,1,$1+$1,$2,$3*
1,1,$1+$1,$4,$5*
1,1,$1+$1,$6,$7*
1,1,$1+$1,$8,$9*
0 Add four rect primitives between the rounded corners*
20,1,$1+$1,$2,$3,$4,$5,0*
20,1,$1+$1,$4,$5,$6,$7,0*
20,1,$1+$1,$6,$7,$8,$9,0*
20,1,$1+$1,$8,$9,$2,$3,0*%
G04 Aperture macros list end*
%TA.AperFunction,SMDPad,CuDef*%
%ADD10RoundRect,0.200000X0.200000X0.275000X-0.200000X0.275000X-0.200000X-0.275000X0.200000X-0.275000X0*%
%TD*%
%TA.AperFunction,SMDPad,CuDef*%
%ADD11RoundRect,0.225000X-0.250000X0.225000X-0.250000X-0.225000X0.250000X-0.225000X0.250000X0.225000X0*%
%TD*%
%TA.AperFunction,SMDPad,CuDef*%
%ADD12R,1.500000X1.000000*%
%TD*%
%TA.AperFunction,SMDPad,CuDef*%
%ADD13RoundRect,0.218750X0.218750X0.256250X-0.218750X0.256250X-0.218750X-0.256250X0.218750X-0.256250X0*%
%TD*%
%TA.AperFunction,ComponentPad*%
%ADD14O,1.100000X2.200000*%
%TD*%
%TA.AperFunction,ComponentPad*%
%ADD15O,1.100000X1.900000*%
%TD*%
%TA.AperFunction,ComponentPad*%
%ADD16R,1.700000X1.700000*%
%TD*%
%TA.AperFunction,ComponentPad*%
%ADD17C,1.700000*%
%TD*%
%TA.AperFunction,ViaPad*%
%ADD18C,0.600000*%
%TD*%
%TA.AperFunction,Conductor*%
%ADD19C,0.400000*%
%TD*%
%TA.AperFunction,Conductor*%
%ADD20C,0.200000*%
%TD*%
G04 APERTURE END LIST*
D10*
%TO.P,R7,2*%
%TO.N,GPIO21*%
X134675000Y-79500000D03*
%TO.P,R7,1*%
%TO.N,Net-(D4-DIN)*%
X136325000Y-79500000D03*
%TD*%
D11*
%TO.P,C6,2*%
%TO.N,GND*%
X128500000Y-75775000D03*
%TO.P,C6,1*%
%TO.N,Net-(D4-VDD)*%
X128500000Y-74225000D03*
%TD*%
D12*
%TO.P,D4,1,VSS_1*%
%TO.N,GND*%
X135450000Y-73400000D03*
%TO.P,D4,2,DIN_2*%
%TO.N,Net-(D4-DIN)*%
X135450000Y-76600000D03*
%TO.P,D4,3,VDD_3*%
%TO.N,Net-(D4-VDD)*%
X130550000Y-76600000D03*
%TO.P,D4,4,DOUT_4*%
%TO.N,unconnected-(D4-DOUT-Pad4)*%
X130550000Y-73400000D03*
%TD*%
D13*
%TO.P,D5,1,K_1*%
%TO.N,Net-(D4-VDD)*%
X136075000Y-71500000D03*
%TO.P,D5,2,A_2*%
%TO.N,+5V*%
X134500000Y-71500000D03*
%TD*%
D14*
%TO.P,J1,S1,SHIELD_S1*%
%TO.N,GND*%
X122875000Y-87630000D03*
%TO.P,J1,S2,SHIELD_S2*%
X131525000Y-87630000D03*
D15*
%TO.P,J1,S3,SHIELD_S3*%
X122875000Y-91800000D03*
%TO.P,J1,S4,SHIELD_S4*%
X131525000Y-91800000D03*
%TD*%
D11*
%TO.P,C3,1*%
%TO.N,+3V3*%
X121000000Y-47225000D03*
%TO.P,C3,2*%
%TO.N,GND*%
X121000000Y-48775000D03*
%TD*%
D16*
%TO.P,J3,1,Pin_1_1*%
%TO.N,+5V*%
X139700000Y-43180000D03*
D17*
%TO.P,J3,2,Pin_2_2*%
%TO.N,GPIO1*%
X139700000Y-45720000D03*
%TO.P,J3,3,Pin_3_3*%
%TO.N,GPIO2*%
X139700000Y-48260000D03*
%TO.P,J3,4,Pin_4_4*%
%TO.N,GPIO43*%
X139700000Y-50800000D03*
%TO.P,J3,5,Pin_5_5*%
%TO.N,GPIO44*%
X139700000Y-53340000D03*
%TO.P,J3,6,Pin_6_6*%
%TO.N,GPIO42*%
X139700000Y-55880000D03*
%TO.P,J3,7,Pin_7_7*%
%TO.N,GPIO41*%
X139700000Y-58420000D03*
%TO.P,J3,8,Pin_8_8*%
%TO.N,GPIO40*%
X139700000Y-60960000D03*
%TO.P,J3,9,Pin_9_9*%
%TO.N,GPIO39*%
X139700000Y-63500000D03*
%TO.P,J3,10,Pin_10_10*%
%TO.N,GPIO38*%
X139700000Y-66040000D03*
%TO.P,J3,11,Pin_11_11*%
%TO.N,GPIO37*%
X139700000Y-68580000D03*
%TO.P,J3,12,Pin_12_12*%
%TO.N,GPIO36*%
X139700000Y-71120000D03*
%TO.P,J3,13,Pin_13_13*%
%TO.N,GPIO35*%
X139700000Y-73660000D03*
%TO.P,J3,14,Pin_14_14*%
%TO.N,GPIO0*%
X139700000Y-76200000D03*
%TO.P,J3,15,Pin_15_15*%
%TO.N,GPIO45*%
X139700000Y-78740000D03*
%TO.P,J3,16,Pin_16_16*%
%TO.N,GPIO48*%
X139700000Y-81280000D03*
%TO.P,J3,17,Pin_17_17*%
%TO.N,GPIO47*%
X139700000Y-83820000D03*
%TO.P,J3,18,Pin_18_18*%
%TO.N,GPIO21*%
X139700000Y-86360000D03*
%TO.P,J3,19,Pin_19_19*%
%TO.N,GPIO14*%
X139700000Y-88900000D03*
%TO.P,J3,20,Pin_20_20*%
%TO.N,GPIO13*%
X139700000Y-91440000D03*
%TD*%
D16*
%TO.P,J2,1,Pin_1_1*%
%TO.N,GND*%
X114300000Y-43185000D03*
D17*
%TO.P,J2,2,Pin_2_2*%
%TO.N,+3V3*%
X114300000Y-45725000D03*
%TO.P,J2,3,Pin_3_3*%
%TO.N,EN*%
X114300000Y-48265000D03*
%TO.P,J2,4,Pin_4_4*%
%TO.N,GPIO4*%
X114300000Y-50805000D03*
%TO.P,J2,5,Pin_5_5*%
%TO.N,GPIO5*%
X114300000Y-53345000D03*
%TO.P,J2,6,Pin_6_6*%
%TO.N,GPIO6*%
X114300000Y-55885000D03*
%TO.P,J2,7,Pin_7_7*%
%TO.N,GPIO7*%
X114300000Y-58425000D03*
%TO.P,J2,8,Pin_8_8*%
%TO.N,GPIO15*%
X114300000Y-60965000D03*
%TO.P,J2,9,Pin_9_9*%
%TO.N,GPIO16*%
X114300000Y-63505000D03*
%TO.P,J2,10,Pin_10_10*%
%TO.N,GPIO17*%
X114300000Y-66045000D03*
%TO.P,J2,11,Pin_11_11*%
%TO.N,GPIO18*%
X114300000Y-68585000D03*
%TO.P,J2,12,Pin_12_12*%
%TO.N,GPIO8*%
X114300000Y-71125000D03*
%TO.P,J2,13,Pin_13_13*%
%TO.N,D-*%
X114300000Y-73665000D03*
%TO.P,J2,14,Pin_14_14*%
%TO.N,D+*%
X114300000Y-76205000D03*
%TO.P,J2,15,Pin_15_15*%
%TO.N,GPIO3*%
X114300000Y-78745000D03*
%TO.P,J2,16,Pin_16_16*%
%TO.N,GPIO46*%
X114300000Y-81285000D03*
%TO.P,J2,17,Pin_17_17*%
%TO.N,GPIO9*%
X114300000Y-83825000D03*
%TO.P,J2,18,Pin_18_18*%
%TO.N,GPIO10*%
X114300000Y-86365000D03*
%TO.P,J2,19,Pin_19_19*%
%TO.N,GPIO11*%
X114300000Y-88905000D03*
%TO.P,J2,20,Pin_20_20*%
%TO.N,GPIO12*%
X114300000Y-91445000D03*
%TD*%
D18*
%TO.N,+3V3*%
X121000000Y-47225000D03*
%TO.N,Net-(J1-CC2)*%
X128900000Y-85000000D03*
X130400000Y-85000000D03*
%TO.N,GND*%
X127900000Y-55500000D03*
X127600000Y-51400000D03*
X125500000Y-79000000D03*
X131500000Y-77800000D03*
X120300000Y-81200000D03*
X135100000Y-90000000D03*
X124795000Y-50005000D03*
X131700000Y-82700000D03*
X126600000Y-63900000D03*
X123600000Y-74600000D03*
X126200000Y-52800000D03*
X124805000Y-51405000D03*
X126200000Y-43200000D03*
X127800000Y-82900000D03*
X126205000Y-48605000D03*
X126195000Y-51405000D03*
X123500000Y-51400000D03*
X125200000Y-89900000D03*
X119200000Y-72400000D03*
X130200000Y-46900000D03*
X121000000Y-48775000D03*
X123000000Y-83800000D03*
X125100000Y-58000000D03*
X123500000Y-50000000D03*
X124795000Y-48605000D03*
X122300000Y-78100000D03*
X126255000Y-49955000D03*
X119506393Y-42995577D03*
X125200000Y-77100000D03*
X127600000Y-50000000D03*
X122200000Y-83000000D03*
X132700000Y-77300000D03*
X134500000Y-42990000D03*
X124800000Y-52800000D03*
X122100000Y-72400000D03*
X129400000Y-90000000D03*
X128600000Y-72400000D03*
X119000000Y-89900000D03*
X123000000Y-71000000D03*
%TO.N,GPIO0*%
X134400000Y-58600000D03*
%TO.N,+5V*%
X127000000Y-77000000D03*
X129600000Y-85800000D03*
X125300000Y-85800000D03*
%TO.N,D+*%
X127100521Y-84699479D03*
X118124265Y-60924265D03*
X121000521Y-58300521D03*
%TO.N,D-*%
X126499479Y-85300521D03*
X120399479Y-57699479D03*
%TO.N,+3V3*%
X122800000Y-58700000D03*
X124800000Y-66900000D03*
%TO.N,EN*%
X123700000Y-72100000D03*
X128400000Y-65200000D03*
X119700000Y-45700000D03*
%TO.N,GPIO21*%
X136500000Y-83800000D03*
%TO.N,GPIO17*%
X120100000Y-54400000D03*
%TO.N,GPIO18*%
X120100000Y-55700000D03*
%TO.N,GPIO8*%
X119700000Y-57000000D03*
%TO.N,GPIO13*%
X131000000Y-64600000D03*
%TO.N,GPIO14*%
X132000000Y-64500000D03*
%TO.N,GPIO47*%
X135675000Y-78559901D03*
%TO.N,GPIO48*%
X137000000Y-77900000D03*
%TO.N,GPIO45*%
X137500000Y-76700000D03*
%TO.N,GPIO35*%
X134500000Y-57700000D03*
%TO.N,GPIO36*%
X134400000Y-56600000D03*
%TD*%
%TO.N,+5V*%
D19*
X127225000Y-76775000D02*
X127000000Y-77000000D01*
X127900000Y-72392894D02*
X127225000Y-73067894D01*
X127225000Y-73067894D02*
X127225000Y-76775000D01*
X127900000Y-68608520D02*
X127900000Y-72392894D01*
X129300000Y-67208520D02*
X127900000Y-68608520D01*
X129300000Y-66500000D02*
X129300000Y-67208520D01*
%TO.N,Net-(D4-VDD)*%
D20*
X134525000Y-72600000D02*
X132900000Y-74225000D01*
X134975000Y-72600000D02*
X134525000Y-72600000D01*
X136075000Y-71500000D02*
X134975000Y-72600000D01*
%TO.N,GND*%
X128000000Y-73000000D02*
X129500000Y-73000000D01*
X127725000Y-73275000D02*
X128000000Y-73000000D01*
X127725000Y-75000000D02*
X127725000Y-73275000D01*
X128500000Y-75775000D02*
X127725000Y-75000000D01*
X135231372Y-73400000D02*
X135450000Y-73400000D01*
X131600000Y-77031372D02*
X135231372Y-73400000D01*
X131600000Y-77400000D02*
X131600000Y-77031372D01*
X129500000Y-77400000D02*
X131600000Y-77400000D01*
X128500000Y-76400000D02*
X129500000Y-77400000D01*
X128500000Y-75775000D02*
X128500000Y-76400000D01*
%TO.N,Net-(D4-VDD)*%
X131465686Y-76600000D02*
X130550000Y-76600000D01*
X132900000Y-75165686D02*
X131465686Y-76600000D01*
X132900000Y-74225000D02*
X132900000Y-75165686D01*
X128500000Y-74225000D02*
X132900000Y-74225000D01*
%TO.N,GND*%
X132800000Y-76500000D02*
X131500000Y-77800000D01*
X132800000Y-75831372D02*
X132800000Y-76500000D01*
X133300000Y-75331372D02*
X132800000Y-75831372D01*
X128600000Y-72400000D02*
X129200000Y-73000000D01*
%TO.N,GPIO13*%
X133500000Y-85240000D02*
X139700000Y-91440000D01*
X134997058Y-74200000D02*
X133500002Y-75697055D01*
X137000000Y-72275000D02*
X137000000Y-74200000D01*
X133500002Y-75697055D02*
X133500000Y-85240000D01*
X136514686Y-72275000D02*
X137000000Y-72275000D01*
X137000000Y-74200000D02*
X134997058Y-74200000D01*
X136812500Y-71977186D02*
X136514686Y-72275000D01*
X136514686Y-70725000D02*
X136812500Y-71022814D01*
X136812500Y-71022814D02*
X136812500Y-71977186D01*
X133500000Y-68500000D02*
X135725000Y-70725000D01*
X133500000Y-67100000D02*
X133500000Y-68500000D01*
X135725000Y-70725000D02*
X136514686Y-70725000D01*
X131000000Y-64600000D02*
X133500000Y-67100000D01*
%TO.N,GPIO14*%
X133900000Y-83100000D02*
X139700000Y-88900000D01*
X133900002Y-75862741D02*
X133900000Y-83100000D01*
X133962743Y-75800000D02*
X133900002Y-75862741D01*
X137331370Y-74434315D02*
X137331370Y-75799999D01*
X137400000Y-72109315D02*
X137400000Y-74365685D01*
X137331370Y-70831370D02*
X137331370Y-72040685D01*
X132000000Y-64500000D02*
X135199000Y-67699000D01*
X137331370Y-72040685D02*
X137400000Y-72109315D01*
X137331370Y-75799999D02*
X133962743Y-75800000D01*
X137400000Y-74365685D02*
X137331370Y-74434315D01*
X135199000Y-68699000D02*
X137331370Y-70831370D01*
X135199000Y-67699000D02*
X135199000Y-68699000D01*
%TO.N,GPIO35*%
X138231371Y-72191371D02*
X139700000Y-73660000D01*
X138231371Y-70599999D02*
X138231371Y-72191371D01*
X134500000Y-57700000D02*
X136100000Y-59300000D01*
X136100000Y-59300000D02*
X136100000Y-68468628D01*
X136100000Y-68468628D02*
X138231371Y-70599999D01*
%TO.N,GPIO0*%
X135600000Y-59800000D02*
X135600000Y-68534314D01*
X135600000Y-68534314D02*
X137831371Y-70765685D01*
X134400000Y-58600000D02*
X135600000Y-59800000D01*
X137831371Y-70765685D02*
X137831371Y-74331371D01*
X137831371Y-74331371D02*
X139700000Y-76200000D01*
%TO.N,+5V*%
D19*
X134300000Y-71500000D02*
X129300000Y-66500000D01*
X134500000Y-71500000D02*
X134300000Y-71500000D01*
X129300000Y-66500000D02*
X129300000Y-51000000D01*
%TO.N,Net-(D4-DIN)*%
D20*
X136325000Y-77475000D02*
X135450000Y-76600000D01*
X136325000Y-79500000D02*
X136325000Y-77475000D01*
%TO.N,GPIO47*%
X135625000Y-80947081D02*
X135625000Y-78609901D01*
X138497919Y-83820000D02*
X135625000Y-80947081D01*
X135625000Y-78609901D02*
X135675000Y-78559901D01*
X139700000Y-83820000D02*
X138497919Y-83820000D01*
%TO.N,Net-(J1-CC2)*%
X130400000Y-85000000D02*
X128900000Y-85000000D01*
%TO.N,GND*%
X122100000Y-72400000D02*
X122100000Y-75600000D01*
X122875000Y-83925000D02*
X122875000Y-87630000D01*
X130300000Y-79000000D02*
X131500000Y-77800000D01*
X123000000Y-83800000D02*
X122875000Y-83925000D01*
X125500000Y-79000000D02*
X130300000Y-79000000D01*
X122100000Y-75600000D02*
X125500000Y-79000000D01*
%TO.N,+5V*%
D19*
X129300000Y-51000000D02*
X137120000Y-43180000D01*
X125300000Y-85800000D02*
X125501521Y-86001521D01*
X137120000Y-43180000D02*
X139700000Y-43180000D01*
X129398479Y-86001521D02*
X129600000Y-85800000D01*
X125501521Y-86001521D02*
X129398479Y-86001521D01*
%TO.N,D+*%
D20*
X118124265Y-72380735D02*
X118124265Y-60924265D01*
X114300000Y-76205000D02*
X118124265Y-72380735D01*
%TO.N,D-*%
X120399479Y-57800521D02*
X117300000Y-60900000D01*
X117300000Y-60900000D02*
X117300000Y-70665000D01*
X120399479Y-57699479D02*
X120399479Y-57800521D01*
X117300000Y-70665000D02*
X114300000Y-73665000D01*
X114300000Y-73100000D02*
X114300000Y-73665000D01*
%TO.N,+3V3*%
D19*
X122800000Y-58700000D02*
X122800000Y-64900000D01*
X122800000Y-64900000D02*
X124800000Y-66900000D01*
%TO.N,EN*%
D20*
X128400000Y-67400000D02*
X128400000Y-65200000D01*
X119700000Y-49300000D02*
X119700000Y-45700000D01*
X128400000Y-65200000D02*
X128400000Y-58000000D01*
X128400000Y-58000000D02*
X119700000Y-49300000D01*
X123700000Y-72100000D02*
X128400000Y-67400000D01*
%TO.N,GPIO21*%
X136500000Y-83800000D02*
X137140000Y-83800000D01*
X137140000Y-83800000D02*
X139700000Y-86360000D01*
%TO.N,GPIO17*%
X115451000Y-59049000D02*
X115451000Y-64894000D01*
X120100000Y-54400000D02*
X115451000Y-59049000D01*
X115451000Y-64894000D02*
X114300000Y-66045000D01*
%TO.N,GPIO18*%
X116300000Y-59500000D02*
X116300000Y-66585000D01*
X116300000Y-66585000D02*
X114300000Y-68585000D01*
X120100000Y-55700000D02*
X116300000Y-59500000D01*
%TO.N,GPIO8*%
X116900000Y-68525000D02*
X116900000Y-59800000D01*
X116900000Y-59800000D02*
X119700000Y-57000000D01*
X114300000Y-71125000D02*
X116900000Y-68525000D01*
%TO.N,GPIO48*%
X137100000Y-78000000D02*
X137100000Y-78680000D01*
X137100000Y-78680000D02*
X139700000Y-81280000D01*
X137000000Y-77900000D02*
X137100000Y-78000000D01*
%TO.N,GPIO45*%
X137500000Y-76700000D02*
X137660000Y-76700000D01*
X137660000Y-76700000D02*
X139700000Y-78740000D01*
%TO.N,GPIO36*%
X136600000Y-68020000D02*
X139700000Y-71120000D01*
X136600000Y-58800000D02*
X136600000Y-68020000D01*
X134400000Y-56600000D02*
X136600000Y-58800000D01*
%TO.N,D-*%
X120399479Y-78917678D02*
X126499479Y-85017678D01*
X126499479Y-85017678D02*
X126499479Y-85300521D01*
X120399479Y-57699479D02*
X120399479Y-78917678D01*
%TO.N,D+*%
X126817678Y-84699479D02*
X127100521Y-84699479D01*
X120849480Y-78731281D02*
X126817678Y-84699479D01*
X120849480Y-58451562D02*
X120849480Y-78731281D01*
X121000521Y-58300521D02*
X120849480Y-58451562D01*
%TO.N,GPIO21*%
X134675000Y-81335000D02*
X134675000Y-79500000D01*
X139700000Y-86360000D02*
X134675000Y-81335000D01*
%TD*%
%TA.AperFunction,Conductor*%
%TO.N,GND*%
G36*
X137843039Y-41920185D02*
G01*
X137888794Y-41972989D01*
X137900000Y-42024500D01*
X137900000Y-42355500D01*
X137880315Y-42422539D01*
X137827511Y-42468294D01*
X137776000Y-42479500D01*
X137051004Y-42479500D01*
X136915677Y-42506418D01*
X136915667Y-42506421D01*
X136788192Y-42559222D01*
X136673454Y-42635887D01*
X128755887Y-50553454D01*
X128679222Y-50668192D01*
X128626421Y-50795667D01*
X128626418Y-50795679D01*
X128603423Y-50911284D01*
X128603423Y-50911289D01*
X128599500Y-50931007D01*
X128599500Y-57050903D01*
X128579815Y-57117942D01*
X128527011Y-57163697D01*
X128457853Y-57173641D01*
X128394297Y-57144616D01*
X128387819Y-57138584D01*
X121185915Y-49936680D01*
X121152430Y-49875357D01*
X121157414Y-49805665D01*
X121199286Y-49749732D01*
X121264750Y-49725315D01*
X121273596Y-49724999D01*
X121298308Y-49724999D01*
X121298322Y-49724998D01*
X121397607Y-49714855D01*
X121558481Y-49661547D01*
X121558492Y-49661542D01*
X121702728Y-49572575D01*
X121702732Y-49572572D01*
X121822572Y-49452732D01*
X121822575Y-49452728D01*
X121911542Y-49308492D01*
X121911547Y-49308481D01*
X121964855Y-49147606D01*
X121974999Y-49048322D01*
X121975000Y-49048309D01*
X121975000Y-49025000D01*
X121124000Y-49025000D01*
X121056961Y-49005315D01*
X121011206Y-48952511D01*
X121000000Y-48901000D01*
X121000000Y-48649000D01*
X121019685Y-48581961D01*
X121072489Y-48536206D01*
X121124000Y-48525000D01*
X121974999Y-48525000D01*
X121974999Y-48501692D01*
X121974998Y-48501677D01*
X121964855Y-48402392D01*
X121911547Y-48241518D01*
X121911542Y-48241507D01*
X121822575Y-48097271D01*
X121822572Y-48097267D01*
X121813339Y-48088034D01*
X121779854Y-48026711D01*
X121784838Y-47957019D01*
X121813343Y-47912668D01*
X121822968Y-47903044D01*
X121912003Y-47758697D01*
X121965349Y-47597708D01*
X121975500Y-47498345D01*
X121975499Y-46951656D01*
X121965349Y-46852292D01*
X121912003Y-46691303D01*
X121911999Y-46691297D01*
X121911998Y-46691294D01*
X121822970Y-46546959D01*
X121822967Y-46546955D01*
X121703044Y-46427032D01*
X121703040Y-46427029D01*
X121558705Y-46338001D01*
X121558699Y-46337998D01*
X121558697Y-46337997D01*
X121486390Y-46314037D01*
X121397709Y-46284651D01*
X121298346Y-46274500D01*
X120701662Y-46274500D01*
X120701644Y-46274501D01*
X120602292Y-46284650D01*
X120602288Y-46284651D01*
X120520858Y-46311635D01*
X120451029Y-46314037D01*
X120390987Y-46278305D01*
X120359795Y-46215784D01*
X120367356Y-46146325D01*
X120378749Y-46125041D01*
X120409394Y-46079179D01*
X120469737Y-45933497D01*
X120500500Y-45778842D01*
X120500500Y-45621158D01*
X120500500Y-45621155D01*
X120500499Y-45621153D01*
X120469738Y-45466510D01*
X120469737Y-45466503D01*
X120443747Y-45403757D01*
X120409397Y-45320827D01*
X120409390Y-45320814D01*
X120321789Y-45189711D01*
X120321786Y-45189707D01*
X120210292Y-45078213D01*
X120210288Y-45078210D01*
X120079185Y-44990609D01*
X120079172Y-44990602D01*
X119933501Y-44930264D01*
X119933489Y-44930261D01*
X119778845Y-44899500D01*
X119778842Y-44899500D01*
X119621158Y-44899500D01*
X119621155Y-44899500D01*
X119466510Y-44930261D01*
X119466498Y-44930264D01*
X119320827Y-44990602D01*
X119320814Y-44990609D01*
X119189711Y-45078210D01*
X119189707Y-45078213D01*
X119078213Y-45189707D01*
X119078210Y-45189711D01*
X118990609Y-45320814D01*
X118990602Y-45320827D01*
X118930264Y-45466498D01*
X118930261Y-45466510D01*
X118899500Y-45621153D01*
X118899500Y-45778846D01*
X118930261Y-45933489D01*
X118930264Y-45933501D01*
X118990602Y-46079172D01*
X118990609Y-46079185D01*
X119078602Y-46210874D01*
X119099480Y-46277551D01*
X119099500Y-46279765D01*
X119099500Y-49213330D01*
X119099499Y-49213348D01*
X119099499Y-49379054D01*
X119099498Y-49379054D01*
X119099499Y-49379057D01*
X119140423Y-49531785D01*
X119166670Y-49577246D01*
X119166670Y-49577247D01*
X119219475Y-49668709D01*
X119219481Y-49668717D01*
X119338349Y-49787585D01*
X119338355Y-49787590D01*
X127763181Y-58212416D01*
X127796666Y-58273739D01*
X127799500Y-58300097D01*
X127799500Y-64620234D01*
X127779815Y-64687273D01*
X127778602Y-64689125D01*
X127690609Y-64820814D01*
X127690602Y-64820827D01*
X127630264Y-64966498D01*
X127630261Y-64966510D01*
X127599500Y-65121153D01*
X127599500Y-65278846D01*
X127630261Y-65433489D01*
X127630264Y-65433501D01*
X127690602Y-65579172D01*
X127690609Y-65579185D01*
X127778602Y-65710874D01*
X127799480Y-65777551D01*
X127799500Y-65779765D01*
X127799500Y-67099902D01*
X127779815Y-67166941D01*
X127763181Y-67187583D01*
X123685339Y-71265425D01*
X123624016Y-71298910D01*
X123621850Y-71299361D01*
X123466508Y-71330261D01*
X123466498Y-71330264D01*
X123320827Y-71390602D01*
X123320814Y-71390609D01*
X123189711Y-71478210D01*
X123189707Y-71478213D01*
X123078213Y-71589707D01*
X123078210Y-71589711D01*
X122990609Y-71720814D01*
X122990602Y-71720827D01*
X122930264Y-71866498D01*
X122930261Y-71866510D01*
X122899500Y-72021153D01*
X122899500Y-72178846D01*
X122930261Y-72333489D01*
X122930264Y-72333501D01*
X122990602Y-72479172D01*
X122990609Y-72479185D01*
X123078210Y-72610288D01*
X123078213Y-72610292D01*
X123189707Y-72721786D01*
X123189711Y-72721789D01*
X123320814Y-72809390D01*
X123320827Y-72809397D01*
X123457046Y-72865820D01*
X123466503Y-72869737D01*
X123621153Y-72900499D01*
X123621156Y-72900500D01*
X123621158Y-72900500D01*
X123778844Y-72900500D01*
X123778845Y-72900499D01*
X123933497Y-72869737D01*
X124079179Y-72809394D01*
X124210289Y-72721789D01*
X124321789Y-72610289D01*
X124409394Y-72479179D01*
X124415087Y-72465436D01*
X124430882Y-72427302D01*
X124469737Y-72333497D01*
X124495220Y-72205387D01*
X124500638Y-72178150D01*
X124533023Y-72116239D01*
X124534518Y-72114716D01*
X126987819Y-69661416D01*
X127049142Y-69627931D01*
X127118834Y-69632915D01*
X127174767Y-69674787D01*
X127199184Y-69740251D01*
X127199500Y-69749097D01*
X127199500Y-72051374D01*
X127179815Y-72118413D01*
X127163181Y-72139055D01*
X126680888Y-72621347D01*
X126680887Y-72621348D01*
X126604223Y-72736086D01*
X126551419Y-72863565D01*
X126550196Y-72869723D01*
X126550193Y-72869737D01*
X126524500Y-72998898D01*
X126524500Y-76292059D01*
X126504815Y-76359098D01*
X126488181Y-76379740D01*
X126378213Y-76489707D01*
X126378210Y-76489711D01*
X126290609Y-76620814D01*
X126290602Y-76620827D01*
X126230264Y-76766498D01*
X126230261Y-76766510D01*
X126199500Y-76921153D01*
X126199500Y-77078846D01*
X126230261Y-77233489D01*
X126230264Y-77233501D01*
X126290602Y-77379172D01*
X126290609Y-77379185D01*
X126378210Y-77510288D01*
X126378213Y-77510292D01*
X126489707Y-77621786D01*
X126489711Y-77621789D01*
X126620814Y-77709390D01*
X126620827Y-77709397D01*
X126741549Y-77759401D01*
X126766503Y-77769737D01*
X126869196Y-77790164D01*
X126921153Y-77800499D01*
X126921156Y-77800500D01*
X126921158Y-77800500D01*
X127078844Y-77800500D01*
X127078845Y-77800499D01*
X127233497Y-77769737D01*
X127379179Y-77709394D01*
X127510289Y-77621789D01*
X127621789Y-77510289D01*
X127709394Y-77379179D01*
X127769737Y-77233497D01*
X127769739Y-77233485D01*
X127771505Y-77227667D01*
X127773203Y-77228182D01*
X127787091Y-77194637D01*
X127845775Y-77106811D01*
X127898580Y-76979328D01*
X127925500Y-76843994D01*
X127925500Y-76827959D01*
X127945185Y-76760920D01*
X127997989Y-76715165D01*
X128067147Y-76705221D01*
X128088507Y-76710254D01*
X128102393Y-76714856D01*
X128201683Y-76724999D01*
X128249999Y-76724998D01*
X128250000Y-76724998D01*
X128250000Y-75899000D01*
X128269685Y-75831961D01*
X128322489Y-75786206D01*
X128374000Y-75775000D01*
X128626000Y-75775000D01*
X128693039Y-75794685D01*
X128738794Y-75847489D01*
X128750000Y-75899000D01*
X128750000Y-76724999D01*
X128798308Y-76724999D01*
X128798322Y-76724998D01*
X128897607Y-76714855D01*
X129058481Y-76661547D01*
X129058490Y-76661543D01*
X129110401Y-76629523D01*
X129177793Y-76611081D01*
X129244457Y-76632002D01*
X129289228Y-76685643D01*
X129299500Y-76735060D01*
X129299500Y-77147870D01*
X129299501Y-77147876D01*
X129305908Y-77207483D01*
X129356202Y-77342328D01*
X129356206Y-77342335D01*
X129442452Y-77457544D01*
X129442455Y-77457547D01*
X129557664Y-77543793D01*
X129557671Y-77543797D01*
X129692517Y-77594091D01*
X129692516Y-77594091D01*
X129699444Y-77594835D01*
X129752127Y-77600500D01*
X131347872Y-77600499D01*
X131407483Y-77594091D01*
X131542331Y-77543796D01*
X131657546Y-77457546D01*
X131743796Y-77342331D01*
X131794091Y-77207483D01*
X131799854Y-77153885D01*
X131809147Y-77131448D01*
X131814310Y-77107715D01*
X131824760Y-77093754D01*
X131826592Y-77089334D01*
X131835461Y-77079461D01*
X131836080Y-77078842D01*
X131946206Y-76968716D01*
X131946207Y-76968713D01*
X132687821Y-76227098D01*
X132749142Y-76193615D01*
X132818834Y-76198599D01*
X132874767Y-76240471D01*
X132899184Y-76305935D01*
X132899500Y-76314781D01*
X132899500Y-85153330D01*
X132899499Y-85153348D01*
X132899499Y-85319054D01*
X132899498Y-85319054D01*
X132916794Y-85383602D01*
X132940423Y-85471785D01*
X132948171Y-85485205D01*
X132948172Y-85485208D01*
X132948173Y-85485208D01*
X133019477Y-85608712D01*
X133019481Y-85608717D01*
X133138349Y-85727585D01*
X133138355Y-85727590D01*
X137863681Y-90452916D01*
X137897166Y-90514239D01*
X137900000Y-90540597D01*
X137900000Y-92675500D01*
X137880315Y-92742539D01*
X137827511Y-92788294D01*
X137776000Y-92799500D01*
X132598771Y-92799500D01*
X132531732Y-92779815D01*
X132485977Y-92727011D01*
X132476033Y-92657853D01*
X132484210Y-92628047D01*
X132534649Y-92506274D01*
X132534651Y-92506266D01*
X132574999Y-92303420D01*
X132575000Y-92303417D01*
X132575000Y-92050000D01*
X131825000Y-92050000D01*
X131825000Y-91550000D01*
X132575000Y-91550000D01*
X132575000Y-91296583D01*
X132574999Y-91296579D01*
X132534651Y-91093733D01*
X132534649Y-91093725D01*
X132455499Y-90902641D01*
X132455494Y-90902631D01*
X132340589Y-90730664D01*
X132340586Y-90730660D01*
X132194339Y-90584413D01*
X132194335Y-90584410D01*
X132022368Y-90469505D01*
X132022358Y-90469500D01*
X131831272Y-90390349D01*
X131831267Y-90390347D01*
X131775000Y-90379155D01*
X131775000Y-91233011D01*
X131765060Y-91215795D01*
X131709205Y-91159940D01*
X131640796Y-91120444D01*
X131564496Y-91100000D01*
X131485504Y-91100000D01*
X131409204Y-91120444D01*
X131340795Y-91159940D01*
X131284940Y-91215795D01*
X131275000Y-91233011D01*
X131275000Y-90379156D01*
X131274999Y-90379155D01*
X131218732Y-90390347D01*
X131218727Y-90390349D01*
X131027641Y-90469500D01*
X131027631Y-90469505D01*
X130855664Y-90584410D01*
X130855660Y-90584413D01*
X130709413Y-90730660D01*
X130709410Y-90730664D01*
X130594505Y-90902631D01*
X130594500Y-90902641D01*
X130515350Y-91093725D01*
X130515348Y-91093733D01*
X130475000Y-91296579D01*
X130475000Y-91550000D01*
X131225000Y-91550000D01*
X131225000Y-92050000D01*
X130475000Y-92050000D01*
X130475000Y-92303420D01*
X130515348Y-92506266D01*
X130515350Y-92506274D01*
X130565790Y-92628047D01*
X130573259Y-92697517D01*
X130541984Y-92759996D01*
X130481895Y-92795648D01*
X130451229Y-92799500D01*
X123948771Y-92799500D01*
X123881732Y-92779815D01*
X123835977Y-92727011D01*
X123826033Y-92657853D01*
X123834210Y-92628047D01*
X123884649Y-92506274D01*
X123884651Y-92506266D01*
X123924999Y-92303420D01*
X123925000Y-92303417D01*
X123925000Y-92050000D01*
X123175000Y-92050000D01*
X123175000Y-91550000D01*
X123925000Y-91550000D01*
X123925000Y-91296583D01*
X123924999Y-91296579D01*
X123884651Y-91093733D01*
X123884649Y-91093725D01*
X123805499Y-90902641D01*
X123805494Y-90902631D01*
X123690589Y-90730664D01*
X123690586Y-90730660D01*
X123544339Y-90584413D01*
X123544335Y-90584410D01*
X123372368Y-90469505D01*
X123372358Y-90469500D01*
X123181272Y-90390349D01*
X123181267Y-90390347D01*
X123125000Y-90379155D01*
X123125000Y-91233011D01*
X123115060Y-91215795D01*
X123059205Y-91159940D01*
X122990796Y-91120444D01*
X122914496Y-91100000D01*
X122835504Y-91100000D01*
X122759204Y-91120444D01*
X122690795Y-91159940D01*
X122634940Y-91215795D01*
X122625000Y-91233011D01*
X122625000Y-90379156D01*
X122624999Y-90379155D01*
X122568732Y-90390347D01*
X122568727Y-90390349D01*
X122377641Y-90469500D01*
X122377631Y-90469505D01*
X122205664Y-90584410D01*
X122205660Y-90584413D01*
X122059413Y-90730660D01*
X122059410Y-90730664D01*
X121944505Y-90902631D01*
X121944500Y-90902641D01*
X121865350Y-91093725D01*
X121865348Y-91093733D01*
X121825000Y-91296579D01*
X121825000Y-91550000D01*
X122575000Y-91550000D01*
X122575000Y-92050000D01*
X121825000Y-92050000D01*
X121825000Y-92303420D01*
X121865348Y-92506266D01*
X121865350Y-92506274D01*
X121915790Y-92628047D01*
X121923259Y-92697517D01*
X121891984Y-92759996D01*
X121831895Y-92795648D01*
X121801229Y-92799500D01*
X116224000Y-92799500D01*
X116156961Y-92779815D01*
X116111206Y-92727011D01*
X116100000Y-92675500D01*
X116100000Y-86976579D01*
X121825000Y-86976579D01*
X121825000Y-87380000D01*
X122575000Y-87380000D01*
X122575000Y-87880000D01*
X121825000Y-87880000D01*
X121825000Y-88283420D01*
X121865348Y-88486266D01*
X121865350Y-88486274D01*
X121944500Y-88677358D01*
X121944505Y-88677368D01*
X122059410Y-88849335D01*
X122059413Y-88849339D01*
X122205660Y-88995586D01*
X122205664Y-88995589D01*
X122377631Y-89110494D01*
X122377641Y-89110499D01*
X122568723Y-89189648D01*
X122568725Y-89189649D01*
X122625000Y-89200842D01*
X122625000Y-88346988D01*
X122634940Y-88364205D01*
X122690795Y-88420060D01*
X122759204Y-88459556D01*
X122835504Y-88480000D01*
X122914496Y-88480000D01*
X122990796Y-88459556D01*
X123059205Y-88420060D01*
X123115060Y-88364205D01*
X123125000Y-88346988D01*
X123125000Y-89200842D01*
X123181274Y-89189649D01*
X123181276Y-89189648D01*
X123372358Y-89110499D01*
X123372368Y-89110494D01*
X123544335Y-88995589D01*
X123544339Y-88995586D01*
X123690586Y-88849339D01*
X123690589Y-88849335D01*
X123805494Y-88677368D01*
X123805501Y-88677355D01*
X123822580Y-88636123D01*
X123866420Y-88581719D01*
X123932714Y-88559654D01*
X123999141Y-88576188D01*
X124097511Y-88632982D01*
X124097512Y-88632982D01*
X124097515Y-88632984D01*
X124237525Y-88670500D01*
X124237528Y-88670500D01*
X124382472Y-88670500D01*
X124382475Y-88670500D01*
X124522485Y-88632984D01*
X124648015Y-88560509D01*
X124750509Y-88458015D01*
X124822984Y-88332485D01*
X124860500Y-88192475D01*
X124860500Y-88047525D01*
X129539500Y-88047525D01*
X129539500Y-88192475D01*
X129563869Y-88283420D01*
X129577017Y-88332488D01*
X129649488Y-88458011D01*
X129649490Y-88458013D01*
X129649491Y-88458015D01*
X129751985Y-88560509D01*
X129751986Y-88560510D01*
X129751988Y-88560511D01*
X129877511Y-88632982D01*
X129877512Y-88632982D01*
X129877515Y-88632984D01*
X130017525Y-88670500D01*
X130017528Y-88670500D01*
X130162472Y-88670500D01*
X130162475Y-88670500D01*
X130302485Y-88632984D01*
X130400859Y-88576187D01*
X130468757Y-88559715D01*
X130534784Y-88582567D01*
X130577419Y-88636121D01*
X130594502Y-88677361D01*
X130594505Y-88677368D01*
X130709410Y-88849335D01*
X130709413Y-88849339D01*
X130855660Y-88995586D01*
X130855664Y-88995589D01*
X131027631Y-89110494D01*
X131027641Y-89110499D01*
X131218723Y-89189648D01*
X131218725Y-89189649D01*
X131275000Y-89200842D01*
X131275000Y-88346988D01*
X131284940Y-88364205D01*
X131340795Y-88420060D01*
X131409204Y-88459556D01*
X131485504Y-88480000D01*
X131564496Y-88480000D01*
X131640796Y-88459556D01*
X131709205Y-88420060D01*
X131765060Y-88364205D01*
X131775000Y-88346988D01*
X131775000Y-89200842D01*
X131831274Y-89189649D01*
X131831276Y-89189648D01*
X132022358Y-89110499D01*
X132022368Y-89110494D01*
X132194335Y-88995589D01*
X132194339Y-88995586D01*
X132340586Y-88849339D01*
X132340589Y-88849335D01*
X132455494Y-88677368D01*
X132455499Y-88677358D01*
X132534649Y-88486274D01*
X132534651Y-88486266D01*
X132574999Y-88283420D01*
X132575000Y-88283417D01*
X132575000Y-87880000D01*
X131825000Y-87880000D01*
X131825000Y-87380000D01*
X132575000Y-87380000D01*
X132575000Y-86976583D01*
X132574999Y-86976579D01*
X132534651Y-86773733D01*
X132534649Y-86773725D01*
X132455499Y-86582641D01*
X132455494Y-86582631D01*
X132340589Y-86410664D01*
X132340586Y-86410660D01*
X132194339Y-86264413D01*
X132194335Y-86264410D01*
X132022368Y-86149505D01*
X132022358Y-86149500D01*
X131831272Y-86070349D01*
X131831267Y-86070347D01*
X131775000Y-86059155D01*
X131775000Y-86913011D01*
X131765060Y-86895795D01*
X131709205Y-86839940D01*
X131640796Y-86800444D01*
X131564496Y-86780000D01*
X131485504Y-86780000D01*
X131409204Y-86800444D01*
X131340795Y-86839940D01*
X131284940Y-86895795D01*
X131275000Y-86913011D01*
X131275000Y-86059156D01*
X131274999Y-86059155D01*
X131218732Y-86070347D01*
X131218727Y-86070349D01*
X131027641Y-86149500D01*
X131027631Y-86149505D01*
X130855664Y-86264410D01*
X130855660Y-86264413D01*
X130709413Y-86410660D01*
X130709410Y-86410664D01*
X130594505Y-86582631D01*
X130594500Y-86582641D01*
X130515350Y-86773725D01*
X130515348Y-86773733D01*
X130475000Y-86976579D01*
X130475000Y-87492894D01*
X130455315Y-87559933D01*
X130402511Y-87605688D01*
X130333353Y-87615632D01*
X130303561Y-87607461D01*
X130302492Y-87607018D01*
X130302485Y-87607016D01*
X130162475Y-87569500D01*
X130017525Y-87569500D01*
X129888993Y-87603940D01*
X129877511Y-87607017D01*
X129751988Y-87679488D01*
X129751982Y-87679493D01*
X129649493Y-87781982D01*
X129649488Y-87781988D01*
X129577017Y-87907511D01*
X129577016Y-87907515D01*
X129539500Y-88047525D01*
X124860500Y-88047525D01*
X124822984Y-87907515D01*
X124804151Y-87874896D01*
X124750511Y-87781988D01*
X124750506Y-87781982D01*
X124648017Y-87679493D01*
X124648011Y-87679488D01*
X124522488Y-87607017D01*
X124522489Y-87607017D01*
X124511006Y-87603940D01*
X124382475Y-87569500D01*
X124237525Y-87569500D01*
X124118731Y-87601331D01*
X124097507Y-87607018D01*
X124096439Y-87607461D01*
X124095466Y-87607565D01*
X124089665Y-87609120D01*
X124089422Y-87608214D01*
X124026969Y-87614921D01*
X123964493Y-87583639D01*
X123928848Y-87523545D01*
X123925000Y-87492894D01*
X123925000Y-86976583D01*
X123924999Y-86976579D01*
X123884651Y-86773733D01*
X123884649Y-86773725D01*
X123805499Y-86582641D01*
X123805494Y-86582631D01*
X123690589Y-86410664D01*
X123690586Y-86410660D01*
X123544339Y-86264413D01*
X123544335Y-86264410D01*
X123372368Y-86149505D01*
X123372358Y-86149500D01*
X123181272Y-86070349D01*
X123181267Y-86070347D01*
X123125000Y-86059155D01*
X123125000Y-86913011D01*
X123115060Y-86895795D01*
X123059205Y-86839940D01*
X122990796Y-86800444D01*
X122914496Y-86780000D01*
X122835504Y-86780000D01*
X122759204Y-86800444D01*
X122690795Y-86839940D01*
X122634940Y-86895795D01*
X122625000Y-86913011D01*
X122625000Y-86059156D01*
X122624999Y-86059155D01*
X122568732Y-86070347D01*
X122568727Y-86070349D01*
X122377641Y-86149500D01*
X122377631Y-86149505D01*
X122205664Y-86264410D01*
X122205660Y-86264413D01*
X122059413Y-86410660D01*
X122059410Y-86410664D01*
X121944505Y-86582631D01*
X121944500Y-86582641D01*
X121865350Y-86773725D01*
X121865348Y-86773733D01*
X121825000Y-86976579D01*
X116100000Y-86976579D01*
X116100000Y-75305596D01*
X116119685Y-75238557D01*
X116136319Y-75217915D01*
X117288148Y-74066086D01*
X118482771Y-72871463D01*
X118482776Y-72871459D01*
X118492979Y-72861255D01*
X118492981Y-72861255D01*
X118604785Y-72749451D01*
X118683842Y-72612519D01*
X118723253Y-72465436D01*
X118724765Y-72459793D01*
X118724765Y-72301678D01*
X118724765Y-61504030D01*
X118744450Y-61436991D01*
X118745663Y-61435139D01*
X118833655Y-61303450D01*
X118833655Y-61303449D01*
X118833659Y-61303444D01*
X118894002Y-61157762D01*
X118924765Y-61003107D01*
X118924765Y-60845423D01*
X118924765Y-60845420D01*
X118924764Y-60845418D01*
X118894003Y-60690775D01*
X118894002Y-60690768D01*
X118874530Y-60643757D01*
X118833662Y-60545092D01*
X118833660Y-60545088D01*
X118833659Y-60545086D01*
X118758211Y-60432171D01*
X118737334Y-60365495D01*
X118755818Y-60298115D01*
X118773628Y-60275605D01*
X119587299Y-59461935D01*
X119648621Y-59428451D01*
X119718313Y-59433435D01*
X119774246Y-59475307D01*
X119798663Y-59540771D01*
X119798979Y-59549617D01*
X119798979Y-78831008D01*
X119798978Y-78831026D01*
X119798978Y-78996732D01*
X119798977Y-78996732D01*
X119798978Y-78996735D01*
X119839902Y-79149463D01*
X119860652Y-79185402D01*
X119899523Y-79252730D01*
X119918958Y-79286393D01*
X120037828Y-79405263D01*
X120037834Y-79405268D01*
X125420384Y-84787819D01*
X125453869Y-84849142D01*
X125448885Y-84918834D01*
X125407013Y-84974767D01*
X125341549Y-84999184D01*
X125332703Y-84999500D01*
X125221155Y-84999500D01*
X125066510Y-85030261D01*
X125066498Y-85030264D01*
X124920827Y-85090602D01*
X124920814Y-85090609D01*
X124789711Y-85178210D01*
X124789707Y-85178213D01*
X124678213Y-85289707D01*
X124678210Y-85289711D01*
X124590609Y-85420814D01*
X124590602Y-85420827D01*
X124530264Y-85566498D01*
X124530261Y-85566510D01*
X124499500Y-85721153D01*
X124499500Y-85878846D01*
X124530261Y-86033489D01*
X124530264Y-86033501D01*
X124590602Y-86179172D01*
X124590609Y-86179185D01*
X124678210Y-86310288D01*
X124678213Y-86310292D01*
X124789707Y-86421786D01*
X124789711Y-86421789D01*
X124920814Y-86509390D01*
X124920827Y-86509397D01*
X125008230Y-86545599D01*
X125066503Y-86569737D01*
X125077261Y-86571876D01*
X125121960Y-86590390D01*
X125169710Y-86622296D01*
X125169711Y-86622296D01*
X125169712Y-86622297D01*
X125297188Y-86675099D01*
X125297193Y-86675101D01*
X125297197Y-86675101D01*
X125297198Y-86675102D01*
X125432524Y-86702021D01*
X125432527Y-86702021D01*
X129467475Y-86702021D01*
X129558519Y-86683910D01*
X129602807Y-86675101D01*
X129730290Y-86622296D01*
X129778040Y-86590390D01*
X129822736Y-86571877D01*
X129833497Y-86569737D01*
X129979179Y-86509394D01*
X130110289Y-86421789D01*
X130221789Y-86310289D01*
X130309394Y-86179179D01*
X130369737Y-86033497D01*
X130397334Y-85894760D01*
X130429719Y-85832849D01*
X130490434Y-85798275D01*
X130494760Y-85797334D01*
X130542318Y-85787873D01*
X130633497Y-85769737D01*
X130779179Y-85709394D01*
X130910289Y-85621789D01*
X131021789Y-85510289D01*
X131109394Y-85379179D01*
X131169737Y-85233497D01*
X131200500Y-85078842D01*
X131200500Y-84921158D01*
X131200500Y-84921155D01*
X131200499Y-84921153D01*
X131173977Y-84787819D01*
X131169737Y-84766503D01*
X131134390Y-84681166D01*
X131109397Y-84620827D01*
X131109390Y-84620814D01*
X131021789Y-84489711D01*
X131021786Y-84489707D01*
X130910292Y-84378213D01*
X130910288Y-84378210D01*
X130779185Y-84290609D01*
X130779172Y-84290602D01*
X130633501Y-84230264D01*
X130633489Y-84230261D01*
X130478845Y-84199500D01*
X130478842Y-84199500D01*
X130321158Y-84199500D01*
X130321155Y-84199500D01*
X130166510Y-84230261D01*
X130166498Y-84230264D01*
X130020827Y-84290602D01*
X130020814Y-84290609D01*
X129889125Y-84378602D01*
X129822447Y-84399480D01*
X129820234Y-84399500D01*
X129479766Y-84399500D01*
X129412727Y-84379815D01*
X129410875Y-84378602D01*
X129279185Y-84290609D01*
X129279172Y-84290602D01*
X129133501Y-84230264D01*
X129133489Y-84230261D01*
X128978845Y-84199500D01*
X128978842Y-84199500D01*
X128821158Y-84199500D01*
X128821155Y-84199500D01*
X128666510Y-84230261D01*
X128666498Y-84230264D01*
X128520827Y-84290602D01*
X128520814Y-84290609D01*
X128389711Y-84378210D01*
X128389707Y-84378213D01*
X128278213Y-84489707D01*
X128278210Y-84489711D01*
X128190609Y-84620814D01*
X128190602Y-84620827D01*
X128139582Y-84744004D01*
X128095741Y-84798408D01*
X128029447Y-84820473D01*
X127961748Y-84803194D01*
X127914137Y-84752057D01*
X127901021Y-84696552D01*
X127901021Y-84620634D01*
X127901020Y-84620632D01*
X127883446Y-84532282D01*
X127870258Y-84465982D01*
X127863264Y-84449097D01*
X127809918Y-84320306D01*
X127809911Y-84320293D01*
X127722310Y-84189190D01*
X127722307Y-84189186D01*
X127610813Y-84077692D01*
X127610809Y-84077689D01*
X127479706Y-83990088D01*
X127479693Y-83990081D01*
X127334022Y-83929743D01*
X127334010Y-83929740D01*
X127179366Y-83898979D01*
X127179363Y-83898979D01*
X127021679Y-83898979D01*
X127021674Y-83898979D01*
X126957179Y-83911808D01*
X126887587Y-83905581D01*
X126845307Y-83877872D01*
X121486299Y-78518864D01*
X121452814Y-78457541D01*
X121449980Y-78431183D01*
X121449980Y-59029234D01*
X121469665Y-58962195D01*
X121505093Y-58926129D01*
X121510810Y-58922310D01*
X121622310Y-58810810D01*
X121709915Y-58679700D01*
X121734164Y-58621158D01*
X121999500Y-58621158D01*
X121999500Y-58621738D01*
X121999500Y-58778846D01*
X122030261Y-58933489D01*
X122030264Y-58933501D01*
X122090061Y-59077864D01*
X122099500Y-59125316D01*
X122099500Y-64831006D01*
X122099500Y-64968994D01*
X122099500Y-64968996D01*
X122099499Y-64968996D01*
X122126418Y-65104322D01*
X122126421Y-65104332D01*
X122179222Y-65231807D01*
X122255887Y-65346545D01*
X122255888Y-65346546D01*
X124003928Y-67094585D01*
X124030808Y-67134814D01*
X124090602Y-67279172D01*
X124090609Y-67279185D01*
X124178210Y-67410288D01*
X124178213Y-67410292D01*
X124289707Y-67521786D01*
X124289711Y-67521789D01*
X124420814Y-67609390D01*
X124420827Y-67609397D01*
X124546414Y-67661416D01*
X124566503Y-67669737D01*
X124719690Y-67700208D01*
X124721153Y-67700499D01*
X124721156Y-67700500D01*
X124721158Y-67700500D01*
X124878844Y-67700500D01*
X124878845Y-67700499D01*
X125033497Y-67669737D01*
X125179179Y-67609394D01*
X125310289Y-67521789D01*
X125421789Y-67410289D01*
X125509394Y-67279179D01*
X125569737Y-67133497D01*
X125600500Y-66978842D01*
X125600500Y-66821158D01*
X125600500Y-66821155D01*
X125600499Y-66821153D01*
X125569738Y-66666510D01*
X125569737Y-66666503D01*
X125524965Y-66558412D01*
X125509397Y-66520827D01*
X125509390Y-66520814D01*
X125421789Y-66389711D01*
X125421786Y-66389707D01*
X125310292Y-66278213D01*
X125310288Y-66278210D01*
X125179185Y-66190609D01*
X125179172Y-66190602D01*
X125034814Y-66130808D01*
X124994585Y-66103928D01*
X123536819Y-64646162D01*
X123503334Y-64584839D01*
X123500500Y-64558481D01*
X123500500Y-59125316D01*
X123509939Y-59077864D01*
X123538478Y-59008963D01*
X123569737Y-58933497D01*
X123600500Y-58778842D01*
X123600500Y-58621158D01*
X123600500Y-58621155D01*
X123600499Y-58621153D01*
X123588624Y-58561454D01*
X123569737Y-58466503D01*
X123528314Y-58366498D01*
X123509397Y-58320827D01*
X123509390Y-58320814D01*
X123421789Y-58189711D01*
X123421786Y-58189707D01*
X123310292Y-58078213D01*
X123310288Y-58078210D01*
X123179185Y-57990609D01*
X123179172Y-57990602D01*
X123033501Y-57930264D01*
X123033489Y-57930261D01*
X122878845Y-57899500D01*
X122878842Y-57899500D01*
X122721158Y-57899500D01*
X122721155Y-57899500D01*
X122566510Y-57930261D01*
X122566498Y-57930264D01*
X122420827Y-57990602D01*
X122420814Y-57990609D01*
X122289711Y-58078210D01*
X122289707Y-58078213D01*
X122178213Y-58189707D01*
X122178210Y-58189711D01*
X122090609Y-58320814D01*
X122090602Y-58320827D01*
X122041628Y-58439063D01*
X122041626Y-58439068D01*
X122030263Y-58466503D01*
X121999500Y-58621158D01*
X121734164Y-58621158D01*
X121770258Y-58534018D01*
X121801021Y-58379363D01*
X121801021Y-58221679D01*
X121801021Y-58221676D01*
X121801020Y-58221674D01*
X121794661Y-58189707D01*
X121770258Y-58067024D01*
X121770256Y-58067019D01*
X121709918Y-57921348D01*
X121709911Y-57921335D01*
X121622310Y-57790232D01*
X121622307Y-57790228D01*
X121510813Y-57678734D01*
X121510809Y-57678731D01*
X121379706Y-57591130D01*
X121379693Y-57591123D01*
X121235649Y-57531459D01*
X121181245Y-57487618D01*
X121168540Y-57464350D01*
X121108876Y-57320306D01*
X121108869Y-57320293D01*
X121021268Y-57189190D01*
X121021265Y-57189186D01*
X120909771Y-57077692D01*
X120909767Y-57077689D01*
X120778664Y-56990088D01*
X120778651Y-56990081D01*
X120632980Y-56929743D01*
X120632970Y-56929740D01*
X120578081Y-56918822D01*
X120516170Y-56886437D01*
X120481596Y-56825721D01*
X120480663Y-56821434D01*
X120469737Y-56766503D01*
X120433427Y-56678842D01*
X120409397Y-56620827D01*
X120409389Y-56620813D01*
X120397819Y-56603497D01*
X120376940Y-56536820D01*
X120395424Y-56469440D01*
X120447402Y-56422749D01*
X120453458Y-56420047D01*
X120479179Y-56409394D01*
X120610289Y-56321789D01*
X120721789Y-56210289D01*
X120809394Y-56079179D01*
X120869737Y-55933497D01*
X120900500Y-55778842D01*
X120900500Y-55621158D01*
X120900500Y-55621155D01*
X120900499Y-55621153D01*
X120869738Y-55466510D01*
X120869737Y-55466503D01*
X120869735Y-55466498D01*
X120809397Y-55320827D01*
X120809390Y-55320814D01*
X120721789Y-55189711D01*
X120721786Y-55189707D01*
X120669760Y-55137681D01*
X120636275Y-55076358D01*
X120641259Y-55006666D01*
X120669760Y-54962319D01*
X120721786Y-54910292D01*
X120721789Y-54910289D01*
X120809394Y-54779179D01*
X120869737Y-54633497D01*
X120900500Y-54478842D01*
X120900500Y-54321158D01*
X120900500Y-54321155D01*
X120900499Y-54321153D01*
X120869738Y-54166510D01*
X120869738Y-54166508D01*
X120869737Y-54166503D01*
X120820576Y-54047816D01*
X120809397Y-54020827D01*
X120809390Y-54020814D01*
X120721789Y-53889711D01*
X120721786Y-53889707D01*
X120610292Y-53778213D01*
X120610288Y-53778210D01*
X120479185Y-53690609D01*
X120479172Y-53690602D01*
X120333501Y-53630264D01*
X120333489Y-53630261D01*
X120178845Y-53599500D01*
X120178842Y-53599500D01*
X120021158Y-53599500D01*
X120021155Y-53599500D01*
X119866510Y-53630261D01*
X119866498Y-53630264D01*
X119720827Y-53690602D01*
X119720814Y-53690609D01*
X119589711Y-53778210D01*
X119589707Y-53778213D01*
X119478213Y-53889707D01*
X119478210Y-53889711D01*
X119390609Y-54020814D01*
X119390602Y-54020827D01*
X119330264Y-54166498D01*
X119330261Y-54166508D01*
X119299361Y-54321850D01*
X119266976Y-54383761D01*
X119265425Y-54385339D01*
X116311681Y-57339083D01*
X116250358Y-57372568D01*
X116180666Y-57367584D01*
X116124733Y-57325712D01*
X116100316Y-57260248D01*
X116100000Y-57251402D01*
X116100000Y-42024500D01*
X116119685Y-41957461D01*
X116172489Y-41911706D01*
X116224000Y-41900500D01*
X137776000Y-41900500D01*
X137843039Y-41920185D01*
G37*
%TD.AperFunction*%
%TA.AperFunction,Conductor*%
G36*
X129697594Y-67904097D02*
G01*
X129741941Y-67932598D01*
X133525681Y-71716338D01*
X133559166Y-71777661D01*
X133561679Y-71801034D01*
X133561840Y-71801026D01*
X133561985Y-71803884D01*
X133562000Y-71804019D01*
X133562000Y-71804181D01*
X133572063Y-71902683D01*
X133624950Y-72062284D01*
X133624955Y-72062295D01*
X133713216Y-72205387D01*
X133713219Y-72205391D01*
X133804115Y-72296287D01*
X133837600Y-72357610D01*
X133832616Y-72427302D01*
X133804115Y-72471649D01*
X132687584Y-73588181D01*
X132626261Y-73621666D01*
X132599903Y-73624500D01*
X131924500Y-73624500D01*
X131857461Y-73604815D01*
X131811706Y-73552011D01*
X131800500Y-73500500D01*
X131800499Y-72852129D01*
X131800498Y-72852123D01*
X131800497Y-72852116D01*
X131794091Y-72792517D01*
X131778028Y-72749451D01*
X131743797Y-72657671D01*
X131743793Y-72657664D01*
X131657547Y-72542455D01*
X131657544Y-72542452D01*
X131542335Y-72456206D01*
X131542328Y-72456202D01*
X131407482Y-72405908D01*
X131407483Y-72405908D01*
X131347883Y-72399501D01*
X131347881Y-72399500D01*
X131347873Y-72399500D01*
X131347864Y-72399500D01*
X129752129Y-72399500D01*
X129752123Y-72399501D01*
X129692516Y-72405908D01*
X129557671Y-72456202D01*
X129557664Y-72456206D01*
X129442455Y-72542452D01*
X129442452Y-72542455D01*
X129356206Y-72657664D01*
X129356202Y-72657671D01*
X129305908Y-72792517D01*
X129300864Y-72839437D01*
X129299501Y-72852123D01*
X129299500Y-72852135D01*
X129299500Y-73264351D01*
X129279815Y-73331390D01*
X129227011Y-73377145D01*
X129157853Y-73387089D01*
X129110403Y-73369890D01*
X129058699Y-73337998D01*
X129058694Y-73337996D01*
X128897709Y-73284651D01*
X128798352Y-73274500D01*
X128308412Y-73274500D01*
X128241373Y-73254815D01*
X128195618Y-73202011D01*
X128185674Y-73132853D01*
X128214699Y-73069297D01*
X128220710Y-73062840D01*
X128444114Y-72839437D01*
X128520775Y-72724705D01*
X128573580Y-72597223D01*
X128585606Y-72536763D01*
X128597059Y-72479185D01*
X128600500Y-72461889D01*
X128600500Y-68950039D01*
X128620185Y-68883000D01*
X128636819Y-68862358D01*
X129566579Y-67932598D01*
X129627902Y-67899113D01*
X129697594Y-67904097D01*
G37*
%TD.AperFunction*%
%TD*%
M02*
