%TF.GenerationSoftware,KiCad,Pcbnew,10.0.2*%
%TF.CreationDate,2026-05-23T16:12:35-04:00*%
%TF.ProjectId,custom devboard,63757374-6f6d-4206-9465-76626f617264,rev?*%
%TF.SameCoordinates,Original*%
%TF.FileFunction,Paste,Top*%
%TF.FilePolarity,Positive*%
%FSLAX46Y46*%
G04 Gerber Fmt 4.6, Leading zero omitted, Abs format (unit mm)*
G04 Created by KiCad (PCBNEW 10.0.2) date 2026-05-23 16:12:35*
%MOMM*%
%LPD*%
G01*
G04 APERTURE LIST*
G04 Aperture macros list*
%AMRoundRect*
0 Rectangle with rounded corners*
0 $1 Rounding radius*
0 $2 $3 $4 $5 $6 $7 $8 $9 X,Y pos of 4 corners*
0 Add a 4 corners polygon primitive as box body*
4,1,4,$2,$3,$4,$5,$6,$7,$8,$9,$2,$3,0*
0 Add four circle primitives for the rounded corners*
1,1,$1+$1,$2,$3*
1,1,$1+$1,$4,$5*
1,1,$1+$1,$6,$7*
1,1,$1+$1,$8,$9*
0 Add four rect primitives between the rounded corners*
20,1,$1+$1,$2,$3,$4,$5,0*
20,1,$1+$1,$4,$5,$6,$7,0*
20,1,$1+$1,$6,$7,$8,$9,0*
20,1,$1+$1,$8,$9,$2,$3,0*%
G04 Aperture macros list end*
%ADD10RoundRect,0.375000X0.375000X-0.625000X0.375000X0.625000X-0.375000X0.625000X-0.375000X-0.625000X0*%
%ADD11RoundRect,0.500000X1.400000X-0.500000X1.400000X0.500000X-1.400000X0.500000X-1.400000X-0.500000X0*%
%ADD12RoundRect,0.225000X0.250000X-0.225000X0.250000X0.225000X-0.250000X0.225000X-0.250000X-0.225000X0*%
%ADD13RoundRect,0.200000X-0.275000X0.200000X-0.275000X-0.200000X0.275000X-0.200000X0.275000X0.200000X0*%
%ADD14R,1.360000X1.230000*%
%ADD15RoundRect,0.218750X-0.218750X-0.256250X0.218750X-0.256250X0.218750X0.256250X-0.218750X0.256250X0*%
%ADD16R,0.600000X1.140000*%
%ADD17R,0.300000X1.140000*%
%ADD18RoundRect,0.225000X0.225000X0.250000X-0.225000X0.250000X-0.225000X-0.250000X0.225000X-0.250000X0*%
%ADD19RoundRect,0.225000X-0.250000X0.225000X-0.250000X-0.225000X0.250000X-0.225000X0.250000X0.225000X0*%
%ADD20RoundRect,0.200000X0.200000X0.275000X-0.200000X0.275000X-0.200000X-0.275000X0.200000X-0.275000X0*%
%ADD21R,1.500000X0.900000*%
%ADD22R,0.900000X1.500000*%
%ADD23R,0.900000X0.900000*%
G04 APERTURE END LIST*
D10*
%TO.C,U3*%
X124500000Y-80450000D03*
X126800000Y-80450000D03*
D11*
X126800000Y-74150000D03*
D10*
X129100000Y-80450000D03*
%TD*%
D12*
%TO.C,C4*%
X131600000Y-80375000D03*
X131600000Y-78825000D03*
%TD*%
D13*
%TO.C,R1*%
X133400000Y-84675000D03*
X133400000Y-86325000D03*
%TD*%
D14*
%TO.C,SW2*%
X135200000Y-92180000D03*
X135200000Y-87820000D03*
%TD*%
D15*
%TO.C,D3*%
X127625000Y-67800000D03*
X129200000Y-67800000D03*
%TD*%
D16*
%TO.C,J1*%
X124000000Y-87050000D03*
X124800000Y-87050000D03*
D17*
X125950000Y-87050000D03*
X126950000Y-87050000D03*
X127450000Y-87050000D03*
X128450000Y-87050000D03*
D16*
X130400000Y-87050000D03*
X129600000Y-87050000D03*
D17*
X128950000Y-87050000D03*
X127950000Y-87050000D03*
X126450000Y-87050000D03*
X125450000Y-87050000D03*
%TD*%
D15*
%TO.C,D2*%
X127612500Y-69500000D03*
X129187500Y-69500000D03*
%TD*%
D18*
%TO.C,C5*%
X129175000Y-66200000D03*
X127625000Y-66200000D03*
%TD*%
D19*
%TO.C,C2*%
X122100000Y-68150000D03*
X122100000Y-69700000D03*
%TD*%
D20*
%TO.C,R5*%
X132625000Y-69500000D03*
X130975000Y-69500000D03*
%TD*%
%TO.C,R6*%
X132637500Y-67800000D03*
X130987500Y-67800000D03*
%TD*%
D14*
%TO.C,SW1*%
X118900000Y-92180000D03*
X118900000Y-87820000D03*
%TD*%
D21*
%TO.C,U2*%
X118250000Y-42990000D03*
X118250000Y-44260000D03*
X118250000Y-45530000D03*
X118250000Y-46800000D03*
X118250000Y-48070000D03*
X118250000Y-49340000D03*
X118250000Y-50610000D03*
X118250000Y-51880000D03*
X118250000Y-53150000D03*
X118250000Y-54420000D03*
X118250000Y-55690000D03*
X118250000Y-56960000D03*
X118250000Y-58230000D03*
X118250000Y-59500000D03*
D22*
X120015000Y-60750000D03*
X121285000Y-60750000D03*
X122555000Y-60750000D03*
X123825000Y-60750000D03*
X125095000Y-60750000D03*
X126365000Y-60750000D03*
X127635000Y-60750000D03*
X128905000Y-60750000D03*
X130175000Y-60750000D03*
X131445000Y-60750000D03*
X132715000Y-60750000D03*
X133985000Y-60750000D03*
D21*
X135750000Y-59500000D03*
X135750000Y-58230000D03*
X135750000Y-56960000D03*
X135750000Y-55690000D03*
X135750000Y-54420000D03*
X135750000Y-53150000D03*
X135750000Y-51880000D03*
X135750000Y-50610000D03*
X135750000Y-49340000D03*
X135750000Y-48070000D03*
X135750000Y-46800000D03*
X135750000Y-45530000D03*
X135750000Y-44260000D03*
X135750000Y-42990000D03*
D23*
X124100000Y-49310000D03*
X124100000Y-50710000D03*
X124100000Y-52110000D03*
X124100000Y-52110000D03*
X125500000Y-49310000D03*
X125500000Y-49310000D03*
X125500000Y-50710000D03*
X125500000Y-52110000D03*
X126900000Y-49310000D03*
X126900000Y-50710000D03*
X126900000Y-52110000D03*
%TD*%
D20*
%TO.C,R4*%
X132625000Y-71200000D03*
X130975000Y-71200000D03*
%TD*%
D19*
%TO.C,C1*%
X123800000Y-68150000D03*
X123800000Y-69700000D03*
%TD*%
D20*
%TO.C,R3*%
X132625000Y-66200000D03*
X130975000Y-66200000D03*
%TD*%
D15*
%TO.C,D1*%
X127600000Y-71200000D03*
X129175000Y-71200000D03*
%TD*%
D13*
%TO.C,R2*%
X120700000Y-84575000D03*
X120700000Y-86225000D03*
%TD*%
M02*
