%TF.GenerationSoftware,KiCad,Pcbnew,10.0.2*%
%TF.CreationDate,2026-05-23T16:12:35-04:00*%
%TF.ProjectId,custom devboard,63757374-6f6d-4206-9465-76626f617264,rev?*%
%TF.SameCoordinates,Original*%
%TF.FileFunction,Legend,Top*%
%TF.FilePolarity,Positive*%
%FSLAX46Y46*%
G04 Gerber Fmt 4.6, Leading zero omitted, Abs format (unit mm)*
G04 Created by KiCad (PCBNEW 10.0.2) date 2026-05-23 16:12:35*
%MOMM*%
%LPD*%
G01*
G04 APERTURE LIST*
G04 Aperture macros list*
%AMRoundRect*
0 Rectangle with rounded corners*
0 $1 Rounding radius*
0 $2 $3 $4 $5 $6 $7 $8 $9 X,Y pos of 4 corners*
0 Add a 4 corners polygon primitive as box body*
4,1,4,$2,$3,$4,$5,$6,$7,$8,$9,$2,$3,0*
0 Add four circle primitives for the rounded corners*
1,1,$1+$1,$2,$3*
1,1,$1+$1,$4,$5*
1,1,$1+$1,$6,$7*
1,1,$1+$1,$8,$9*
0 Add four rect primitives between the rounded corners*
20,1,$1+$1,$2,$3,$4,$5,0*
20,1,$1+$1,$4,$5,$6,$7,0*
20,1,$1+$1,$6,$7,$8,$9,0*
20,1,$1+$1,$8,$9,$2,$3,0*%
G04 Aperture macros list end*
%ADD10C,0.100000*%
%ADD11C,0.150000*%
%ADD12C,0.120000*%
%ADD13C,0.250000*%
%ADD14C,0.127000*%
%ADD15C,0.200000*%
%ADD16C,0.010000*%
%ADD17RoundRect,0.375000X0.375000X-0.625000X0.375000X0.625000X-0.375000X0.625000X-0.375000X-0.625000X0*%
%ADD18RoundRect,0.500000X1.400000X-0.500000X1.400000X0.500000X-1.400000X0.500000X-1.400000X-0.500000X0*%
%ADD19RoundRect,0.225000X0.250000X-0.225000X0.250000X0.225000X-0.250000X0.225000X-0.250000X-0.225000X0*%
%ADD20RoundRect,0.200000X-0.275000X0.200000X-0.275000X-0.200000X0.275000X-0.200000X0.275000X0.200000X0*%
%ADD21R,1.360000X1.230000*%
%ADD22RoundRect,0.218750X-0.218750X-0.256250X0.218750X-0.256250X0.218750X0.256250X-0.218750X0.256250X0*%
%ADD23C,0.600000*%
%ADD24O,1.100000X2.200000*%
%ADD25O,1.100000X1.900000*%
%ADD26RoundRect,0.225000X0.225000X0.250000X-0.225000X0.250000X-0.225000X-0.250000X0.225000X-0.250000X0*%
%ADD27RoundRect,0.225000X-0.250000X0.225000X-0.250000X-0.225000X0.250000X-0.225000X0.250000X0.225000X0*%
%ADD28RoundRect,0.200000X0.200000X0.275000X-0.200000X0.275000X-0.200000X-0.275000X0.200000X-0.275000X0*%
%ADD29R,1.500000X0.900000*%
%ADD30R,0.900000X1.500000*%
%ADD31R,0.900000X0.900000*%
%ADD32R,1.700000X1.700000*%
%ADD33C,1.700000*%
G04 APERTURE END LIST*
D10*
X116034990Y-43624687D02*
X115996895Y-43700877D01*
X115996895Y-43700877D02*
X115996895Y-43815163D01*
X115996895Y-43815163D02*
X116034990Y-43929449D01*
X116034990Y-43929449D02*
X116111180Y-44005639D01*
X116111180Y-44005639D02*
X116187371Y-44043734D01*
X116187371Y-44043734D02*
X116339752Y-44081830D01*
X116339752Y-44081830D02*
X116454038Y-44081830D01*
X116454038Y-44081830D02*
X116606419Y-44043734D01*
X116606419Y-44043734D02*
X116682609Y-44005639D01*
X116682609Y-44005639D02*
X116758800Y-43929449D01*
X116758800Y-43929449D02*
X116796895Y-43815163D01*
X116796895Y-43815163D02*
X116796895Y-43738972D01*
X116796895Y-43738972D02*
X116758800Y-43624687D01*
X116758800Y-43624687D02*
X116720704Y-43586591D01*
X116720704Y-43586591D02*
X116454038Y-43586591D01*
X116454038Y-43586591D02*
X116454038Y-43738972D01*
X116796895Y-43243734D02*
X115996895Y-43243734D01*
X115996895Y-43243734D02*
X116796895Y-42786591D01*
X116796895Y-42786591D02*
X115996895Y-42786591D01*
X116796895Y-42405639D02*
X115996895Y-42405639D01*
X115996895Y-42405639D02*
X115996895Y-42215163D01*
X115996895Y-42215163D02*
X116034990Y-42100877D01*
X116034990Y-42100877D02*
X116111180Y-42024687D01*
X116111180Y-42024687D02*
X116187371Y-41986592D01*
X116187371Y-41986592D02*
X116339752Y-41948496D01*
X116339752Y-41948496D02*
X116454038Y-41948496D01*
X116454038Y-41948496D02*
X116606419Y-41986592D01*
X116606419Y-41986592D02*
X116682609Y-42024687D01*
X116682609Y-42024687D02*
X116758800Y-42100877D01*
X116758800Y-42100877D02*
X116796895Y-42215163D01*
X116796895Y-42215163D02*
X116796895Y-42405639D01*
X115996895Y-46619925D02*
X115996895Y-46124687D01*
X115996895Y-46124687D02*
X116301657Y-46391353D01*
X116301657Y-46391353D02*
X116301657Y-46277068D01*
X116301657Y-46277068D02*
X116339752Y-46200877D01*
X116339752Y-46200877D02*
X116377847Y-46162782D01*
X116377847Y-46162782D02*
X116454038Y-46124687D01*
X116454038Y-46124687D02*
X116644514Y-46124687D01*
X116644514Y-46124687D02*
X116720704Y-46162782D01*
X116720704Y-46162782D02*
X116758800Y-46200877D01*
X116758800Y-46200877D02*
X116796895Y-46277068D01*
X116796895Y-46277068D02*
X116796895Y-46505639D01*
X116796895Y-46505639D02*
X116758800Y-46581830D01*
X116758800Y-46581830D02*
X116720704Y-46619925D01*
X115996895Y-45896115D02*
X116796895Y-45629448D01*
X116796895Y-45629448D02*
X115996895Y-45362782D01*
X115996895Y-45172306D02*
X115996895Y-44677068D01*
X115996895Y-44677068D02*
X116301657Y-44943734D01*
X116301657Y-44943734D02*
X116301657Y-44829449D01*
X116301657Y-44829449D02*
X116339752Y-44753258D01*
X116339752Y-44753258D02*
X116377847Y-44715163D01*
X116377847Y-44715163D02*
X116454038Y-44677068D01*
X116454038Y-44677068D02*
X116644514Y-44677068D01*
X116644514Y-44677068D02*
X116720704Y-44715163D01*
X116720704Y-44715163D02*
X116758800Y-44753258D01*
X116758800Y-44753258D02*
X116796895Y-44829449D01*
X116796895Y-44829449D02*
X116796895Y-45058020D01*
X116796895Y-45058020D02*
X116758800Y-45134211D01*
X116758800Y-45134211D02*
X116720704Y-45172306D01*
X116477847Y-48843734D02*
X116477847Y-48577068D01*
X116896895Y-48462782D02*
X116896895Y-48843734D01*
X116896895Y-48843734D02*
X116096895Y-48843734D01*
X116096895Y-48843734D02*
X116096895Y-48462782D01*
X116896895Y-48119924D02*
X116096895Y-48119924D01*
X116096895Y-48119924D02*
X116896895Y-47662781D01*
X116896895Y-47662781D02*
X116096895Y-47662781D01*
X116096895Y-53062782D02*
X116096895Y-53443734D01*
X116096895Y-53443734D02*
X116477847Y-53481830D01*
X116477847Y-53481830D02*
X116439752Y-53443734D01*
X116439752Y-53443734D02*
X116401657Y-53367544D01*
X116401657Y-53367544D02*
X116401657Y-53177068D01*
X116401657Y-53177068D02*
X116439752Y-53100877D01*
X116439752Y-53100877D02*
X116477847Y-53062782D01*
X116477847Y-53062782D02*
X116554038Y-53024687D01*
X116554038Y-53024687D02*
X116744514Y-53024687D01*
X116744514Y-53024687D02*
X116820704Y-53062782D01*
X116820704Y-53062782D02*
X116858800Y-53100877D01*
X116858800Y-53100877D02*
X116896895Y-53177068D01*
X116896895Y-53177068D02*
X116896895Y-53367544D01*
X116896895Y-53367544D02*
X116858800Y-53443734D01*
X116858800Y-53443734D02*
X116820704Y-53481830D01*
X116096895Y-55800877D02*
X116096895Y-55953258D01*
X116096895Y-55953258D02*
X116134990Y-56029449D01*
X116134990Y-56029449D02*
X116173085Y-56067544D01*
X116173085Y-56067544D02*
X116287371Y-56143734D01*
X116287371Y-56143734D02*
X116439752Y-56181830D01*
X116439752Y-56181830D02*
X116744514Y-56181830D01*
X116744514Y-56181830D02*
X116820704Y-56143734D01*
X116820704Y-56143734D02*
X116858800Y-56105639D01*
X116858800Y-56105639D02*
X116896895Y-56029449D01*
X116896895Y-56029449D02*
X116896895Y-55877068D01*
X116896895Y-55877068D02*
X116858800Y-55800877D01*
X116858800Y-55800877D02*
X116820704Y-55762782D01*
X116820704Y-55762782D02*
X116744514Y-55724687D01*
X116744514Y-55724687D02*
X116554038Y-55724687D01*
X116554038Y-55724687D02*
X116477847Y-55762782D01*
X116477847Y-55762782D02*
X116439752Y-55800877D01*
X116439752Y-55800877D02*
X116401657Y-55877068D01*
X116401657Y-55877068D02*
X116401657Y-56029449D01*
X116401657Y-56029449D02*
X116439752Y-56105639D01*
X116439752Y-56105639D02*
X116477847Y-56143734D01*
X116477847Y-56143734D02*
X116554038Y-56181830D01*
X116096895Y-58519925D02*
X116096895Y-57986591D01*
X116096895Y-57986591D02*
X116896895Y-58329449D01*
X116896895Y-60924687D02*
X116896895Y-61381830D01*
X116896895Y-61153258D02*
X116096895Y-61153258D01*
X116096895Y-61153258D02*
X116211180Y-61229449D01*
X116211180Y-61229449D02*
X116287371Y-61305639D01*
X116287371Y-61305639D02*
X116325466Y-61381830D01*
X116096895Y-60200877D02*
X116096895Y-60581829D01*
X116096895Y-60581829D02*
X116477847Y-60619925D01*
X116477847Y-60619925D02*
X116439752Y-60581829D01*
X116439752Y-60581829D02*
X116401657Y-60505639D01*
X116401657Y-60505639D02*
X116401657Y-60315163D01*
X116401657Y-60315163D02*
X116439752Y-60238972D01*
X116439752Y-60238972D02*
X116477847Y-60200877D01*
X116477847Y-60200877D02*
X116554038Y-60162782D01*
X116554038Y-60162782D02*
X116744514Y-60162782D01*
X116744514Y-60162782D02*
X116820704Y-60200877D01*
X116820704Y-60200877D02*
X116858800Y-60238972D01*
X116858800Y-60238972D02*
X116896895Y-60315163D01*
X116896895Y-60315163D02*
X116896895Y-60505639D01*
X116896895Y-60505639D02*
X116858800Y-60581829D01*
X116858800Y-60581829D02*
X116820704Y-60619925D01*
X116896895Y-63624687D02*
X116896895Y-64081830D01*
X116896895Y-63853258D02*
X116096895Y-63853258D01*
X116096895Y-63853258D02*
X116211180Y-63929449D01*
X116211180Y-63929449D02*
X116287371Y-64005639D01*
X116287371Y-64005639D02*
X116325466Y-64081830D01*
X116096895Y-62938972D02*
X116096895Y-63091353D01*
X116096895Y-63091353D02*
X116134990Y-63167544D01*
X116134990Y-63167544D02*
X116173085Y-63205639D01*
X116173085Y-63205639D02*
X116287371Y-63281829D01*
X116287371Y-63281829D02*
X116439752Y-63319925D01*
X116439752Y-63319925D02*
X116744514Y-63319925D01*
X116744514Y-63319925D02*
X116820704Y-63281829D01*
X116820704Y-63281829D02*
X116858800Y-63243734D01*
X116858800Y-63243734D02*
X116896895Y-63167544D01*
X116896895Y-63167544D02*
X116896895Y-63015163D01*
X116896895Y-63015163D02*
X116858800Y-62938972D01*
X116858800Y-62938972D02*
X116820704Y-62900877D01*
X116820704Y-62900877D02*
X116744514Y-62862782D01*
X116744514Y-62862782D02*
X116554038Y-62862782D01*
X116554038Y-62862782D02*
X116477847Y-62900877D01*
X116477847Y-62900877D02*
X116439752Y-62938972D01*
X116439752Y-62938972D02*
X116401657Y-63015163D01*
X116401657Y-63015163D02*
X116401657Y-63167544D01*
X116401657Y-63167544D02*
X116439752Y-63243734D01*
X116439752Y-63243734D02*
X116477847Y-63281829D01*
X116477847Y-63281829D02*
X116554038Y-63319925D01*
X116896895Y-66124687D02*
X116896895Y-66581830D01*
X116896895Y-66353258D02*
X116096895Y-66353258D01*
X116096895Y-66353258D02*
X116211180Y-66429449D01*
X116211180Y-66429449D02*
X116287371Y-66505639D01*
X116287371Y-66505639D02*
X116325466Y-66581830D01*
X116096895Y-65858020D02*
X116096895Y-65324686D01*
X116096895Y-65324686D02*
X116896895Y-65667544D01*
X116896895Y-68824687D02*
X116896895Y-69281830D01*
X116896895Y-69053258D02*
X116096895Y-69053258D01*
X116096895Y-69053258D02*
X116211180Y-69129449D01*
X116211180Y-69129449D02*
X116287371Y-69205639D01*
X116287371Y-69205639D02*
X116325466Y-69281830D01*
X116439752Y-68367544D02*
X116401657Y-68443734D01*
X116401657Y-68443734D02*
X116363561Y-68481829D01*
X116363561Y-68481829D02*
X116287371Y-68519925D01*
X116287371Y-68519925D02*
X116249276Y-68519925D01*
X116249276Y-68519925D02*
X116173085Y-68481829D01*
X116173085Y-68481829D02*
X116134990Y-68443734D01*
X116134990Y-68443734D02*
X116096895Y-68367544D01*
X116096895Y-68367544D02*
X116096895Y-68215163D01*
X116096895Y-68215163D02*
X116134990Y-68138972D01*
X116134990Y-68138972D02*
X116173085Y-68100877D01*
X116173085Y-68100877D02*
X116249276Y-68062782D01*
X116249276Y-68062782D02*
X116287371Y-68062782D01*
X116287371Y-68062782D02*
X116363561Y-68100877D01*
X116363561Y-68100877D02*
X116401657Y-68138972D01*
X116401657Y-68138972D02*
X116439752Y-68215163D01*
X116439752Y-68215163D02*
X116439752Y-68367544D01*
X116439752Y-68367544D02*
X116477847Y-68443734D01*
X116477847Y-68443734D02*
X116515942Y-68481829D01*
X116515942Y-68481829D02*
X116592133Y-68519925D01*
X116592133Y-68519925D02*
X116744514Y-68519925D01*
X116744514Y-68519925D02*
X116820704Y-68481829D01*
X116820704Y-68481829D02*
X116858800Y-68443734D01*
X116858800Y-68443734D02*
X116896895Y-68367544D01*
X116896895Y-68367544D02*
X116896895Y-68215163D01*
X116896895Y-68215163D02*
X116858800Y-68138972D01*
X116858800Y-68138972D02*
X116820704Y-68100877D01*
X116820704Y-68100877D02*
X116744514Y-68062782D01*
X116744514Y-68062782D02*
X116592133Y-68062782D01*
X116592133Y-68062782D02*
X116515942Y-68100877D01*
X116515942Y-68100877D02*
X116477847Y-68138972D01*
X116477847Y-68138972D02*
X116439752Y-68215163D01*
X116439752Y-71329449D02*
X116401657Y-71405639D01*
X116401657Y-71405639D02*
X116363561Y-71443734D01*
X116363561Y-71443734D02*
X116287371Y-71481830D01*
X116287371Y-71481830D02*
X116249276Y-71481830D01*
X116249276Y-71481830D02*
X116173085Y-71443734D01*
X116173085Y-71443734D02*
X116134990Y-71405639D01*
X116134990Y-71405639D02*
X116096895Y-71329449D01*
X116096895Y-71329449D02*
X116096895Y-71177068D01*
X116096895Y-71177068D02*
X116134990Y-71100877D01*
X116134990Y-71100877D02*
X116173085Y-71062782D01*
X116173085Y-71062782D02*
X116249276Y-71024687D01*
X116249276Y-71024687D02*
X116287371Y-71024687D01*
X116287371Y-71024687D02*
X116363561Y-71062782D01*
X116363561Y-71062782D02*
X116401657Y-71100877D01*
X116401657Y-71100877D02*
X116439752Y-71177068D01*
X116439752Y-71177068D02*
X116439752Y-71329449D01*
X116439752Y-71329449D02*
X116477847Y-71405639D01*
X116477847Y-71405639D02*
X116515942Y-71443734D01*
X116515942Y-71443734D02*
X116592133Y-71481830D01*
X116592133Y-71481830D02*
X116744514Y-71481830D01*
X116744514Y-71481830D02*
X116820704Y-71443734D01*
X116820704Y-71443734D02*
X116858800Y-71405639D01*
X116858800Y-71405639D02*
X116896895Y-71329449D01*
X116896895Y-71329449D02*
X116896895Y-71177068D01*
X116896895Y-71177068D02*
X116858800Y-71100877D01*
X116858800Y-71100877D02*
X116820704Y-71062782D01*
X116820704Y-71062782D02*
X116744514Y-71024687D01*
X116744514Y-71024687D02*
X116592133Y-71024687D01*
X116592133Y-71024687D02*
X116515942Y-71062782D01*
X116515942Y-71062782D02*
X116477847Y-71100877D01*
X116477847Y-71100877D02*
X116439752Y-71177068D01*
X116896895Y-84005639D02*
X116896895Y-83853258D01*
X116896895Y-83853258D02*
X116858800Y-83777068D01*
X116858800Y-83777068D02*
X116820704Y-83738972D01*
X116820704Y-83738972D02*
X116706419Y-83662782D01*
X116706419Y-83662782D02*
X116554038Y-83624687D01*
X116554038Y-83624687D02*
X116249276Y-83624687D01*
X116249276Y-83624687D02*
X116173085Y-83662782D01*
X116173085Y-83662782D02*
X116134990Y-83700877D01*
X116134990Y-83700877D02*
X116096895Y-83777068D01*
X116096895Y-83777068D02*
X116096895Y-83929449D01*
X116096895Y-83929449D02*
X116134990Y-84005639D01*
X116134990Y-84005639D02*
X116173085Y-84043734D01*
X116173085Y-84043734D02*
X116249276Y-84081830D01*
X116249276Y-84081830D02*
X116439752Y-84081830D01*
X116439752Y-84081830D02*
X116515942Y-84043734D01*
X116515942Y-84043734D02*
X116554038Y-84005639D01*
X116554038Y-84005639D02*
X116592133Y-83929449D01*
X116592133Y-83929449D02*
X116592133Y-83777068D01*
X116592133Y-83777068D02*
X116554038Y-83700877D01*
X116554038Y-83700877D02*
X116515942Y-83662782D01*
X116515942Y-83662782D02*
X116439752Y-83624687D01*
X116463561Y-50700877D02*
X116996895Y-50700877D01*
X116158800Y-50891353D02*
X116730228Y-51081830D01*
X116730228Y-51081830D02*
X116730228Y-50586591D01*
X116996895Y-73924687D02*
X116996895Y-74381830D01*
X116996895Y-74153258D02*
X116196895Y-74153258D01*
X116196895Y-74153258D02*
X116311180Y-74229449D01*
X116311180Y-74229449D02*
X116387371Y-74305639D01*
X116387371Y-74305639D02*
X116425466Y-74381830D01*
X116996895Y-73543734D02*
X116996895Y-73391353D01*
X116996895Y-73391353D02*
X116958800Y-73315163D01*
X116958800Y-73315163D02*
X116920704Y-73277067D01*
X116920704Y-73277067D02*
X116806419Y-73200877D01*
X116806419Y-73200877D02*
X116654038Y-73162782D01*
X116654038Y-73162782D02*
X116349276Y-73162782D01*
X116349276Y-73162782D02*
X116273085Y-73200877D01*
X116273085Y-73200877D02*
X116234990Y-73238972D01*
X116234990Y-73238972D02*
X116196895Y-73315163D01*
X116196895Y-73315163D02*
X116196895Y-73467544D01*
X116196895Y-73467544D02*
X116234990Y-73543734D01*
X116234990Y-73543734D02*
X116273085Y-73581829D01*
X116273085Y-73581829D02*
X116349276Y-73619925D01*
X116349276Y-73619925D02*
X116539752Y-73619925D01*
X116539752Y-73619925D02*
X116615942Y-73581829D01*
X116615942Y-73581829D02*
X116654038Y-73543734D01*
X116654038Y-73543734D02*
X116692133Y-73467544D01*
X116692133Y-73467544D02*
X116692133Y-73315163D01*
X116692133Y-73315163D02*
X116654038Y-73238972D01*
X116654038Y-73238972D02*
X116615942Y-73200877D01*
X116615942Y-73200877D02*
X116539752Y-73162782D01*
X116273085Y-76881830D02*
X116234990Y-76843734D01*
X116234990Y-76843734D02*
X116196895Y-76767544D01*
X116196895Y-76767544D02*
X116196895Y-76577068D01*
X116196895Y-76577068D02*
X116234990Y-76500877D01*
X116234990Y-76500877D02*
X116273085Y-76462782D01*
X116273085Y-76462782D02*
X116349276Y-76424687D01*
X116349276Y-76424687D02*
X116425466Y-76424687D01*
X116425466Y-76424687D02*
X116539752Y-76462782D01*
X116539752Y-76462782D02*
X116996895Y-76919925D01*
X116996895Y-76919925D02*
X116996895Y-76424687D01*
X116196895Y-75929448D02*
X116196895Y-75853258D01*
X116196895Y-75853258D02*
X116234990Y-75777067D01*
X116234990Y-75777067D02*
X116273085Y-75738972D01*
X116273085Y-75738972D02*
X116349276Y-75700877D01*
X116349276Y-75700877D02*
X116501657Y-75662782D01*
X116501657Y-75662782D02*
X116692133Y-75662782D01*
X116692133Y-75662782D02*
X116844514Y-75700877D01*
X116844514Y-75700877D02*
X116920704Y-75738972D01*
X116920704Y-75738972D02*
X116958800Y-75777067D01*
X116958800Y-75777067D02*
X116996895Y-75853258D01*
X116996895Y-75853258D02*
X116996895Y-75929448D01*
X116996895Y-75929448D02*
X116958800Y-76005639D01*
X116958800Y-76005639D02*
X116920704Y-76043734D01*
X116920704Y-76043734D02*
X116844514Y-76081829D01*
X116844514Y-76081829D02*
X116692133Y-76119925D01*
X116692133Y-76119925D02*
X116501657Y-76119925D01*
X116501657Y-76119925D02*
X116349276Y-76081829D01*
X116349276Y-76081829D02*
X116273085Y-76043734D01*
X116273085Y-76043734D02*
X116234990Y-76005639D01*
X116234990Y-76005639D02*
X116196895Y-75929448D01*
X116196895Y-79019925D02*
X116196895Y-78524687D01*
X116196895Y-78524687D02*
X116501657Y-78791353D01*
X116501657Y-78791353D02*
X116501657Y-78677068D01*
X116501657Y-78677068D02*
X116539752Y-78600877D01*
X116539752Y-78600877D02*
X116577847Y-78562782D01*
X116577847Y-78562782D02*
X116654038Y-78524687D01*
X116654038Y-78524687D02*
X116844514Y-78524687D01*
X116844514Y-78524687D02*
X116920704Y-78562782D01*
X116920704Y-78562782D02*
X116958800Y-78600877D01*
X116958800Y-78600877D02*
X116996895Y-78677068D01*
X116996895Y-78677068D02*
X116996895Y-78905639D01*
X116996895Y-78905639D02*
X116958800Y-78981830D01*
X116958800Y-78981830D02*
X116920704Y-79019925D01*
X116463561Y-81300877D02*
X116996895Y-81300877D01*
X116158800Y-81491353D02*
X116730228Y-81681830D01*
X116730228Y-81681830D02*
X116730228Y-81186591D01*
X116196895Y-80538972D02*
X116196895Y-80691353D01*
X116196895Y-80691353D02*
X116234990Y-80767544D01*
X116234990Y-80767544D02*
X116273085Y-80805639D01*
X116273085Y-80805639D02*
X116387371Y-80881829D01*
X116387371Y-80881829D02*
X116539752Y-80919925D01*
X116539752Y-80919925D02*
X116844514Y-80919925D01*
X116844514Y-80919925D02*
X116920704Y-80881829D01*
X116920704Y-80881829D02*
X116958800Y-80843734D01*
X116958800Y-80843734D02*
X116996895Y-80767544D01*
X116996895Y-80767544D02*
X116996895Y-80615163D01*
X116996895Y-80615163D02*
X116958800Y-80538972D01*
X116958800Y-80538972D02*
X116920704Y-80500877D01*
X116920704Y-80500877D02*
X116844514Y-80462782D01*
X116844514Y-80462782D02*
X116654038Y-80462782D01*
X116654038Y-80462782D02*
X116577847Y-80500877D01*
X116577847Y-80500877D02*
X116539752Y-80538972D01*
X116539752Y-80538972D02*
X116501657Y-80615163D01*
X116501657Y-80615163D02*
X116501657Y-80767544D01*
X116501657Y-80767544D02*
X116539752Y-80843734D01*
X116539752Y-80843734D02*
X116577847Y-80881829D01*
X116577847Y-80881829D02*
X116654038Y-80919925D01*
X117002814Y-88852300D02*
X117002814Y-89309443D01*
X117002814Y-89080871D02*
X116202814Y-89080871D01*
X116202814Y-89080871D02*
X116317099Y-89157062D01*
X116317099Y-89157062D02*
X116393290Y-89233252D01*
X116393290Y-89233252D02*
X116431385Y-89309443D01*
X117002814Y-88090395D02*
X117002814Y-88547538D01*
X117002814Y-88318966D02*
X116202814Y-88318966D01*
X116202814Y-88318966D02*
X116317099Y-88395157D01*
X116317099Y-88395157D02*
X116393290Y-88471347D01*
X116393290Y-88471347D02*
X116431385Y-88547538D01*
X117039612Y-86424687D02*
X117039612Y-86881830D01*
X117039612Y-86653258D02*
X116239612Y-86653258D01*
X116239612Y-86653258D02*
X116353897Y-86729449D01*
X116353897Y-86729449D02*
X116430088Y-86805639D01*
X116430088Y-86805639D02*
X116468183Y-86881830D01*
X116239612Y-85929448D02*
X116239612Y-85853258D01*
X116239612Y-85853258D02*
X116277707Y-85777067D01*
X116277707Y-85777067D02*
X116315802Y-85738972D01*
X116315802Y-85738972D02*
X116391993Y-85700877D01*
X116391993Y-85700877D02*
X116544374Y-85662782D01*
X116544374Y-85662782D02*
X116734850Y-85662782D01*
X116734850Y-85662782D02*
X116887231Y-85700877D01*
X116887231Y-85700877D02*
X116963421Y-85738972D01*
X116963421Y-85738972D02*
X117001517Y-85777067D01*
X117001517Y-85777067D02*
X117039612Y-85853258D01*
X117039612Y-85853258D02*
X117039612Y-85929448D01*
X117039612Y-85929448D02*
X117001517Y-86005639D01*
X117001517Y-86005639D02*
X116963421Y-86043734D01*
X116963421Y-86043734D02*
X116887231Y-86081829D01*
X116887231Y-86081829D02*
X116734850Y-86119925D01*
X116734850Y-86119925D02*
X116544374Y-86119925D01*
X116544374Y-86119925D02*
X116391993Y-86081829D01*
X116391993Y-86081829D02*
X116315802Y-86043734D01*
X116315802Y-86043734D02*
X116277707Y-86005639D01*
X116277707Y-86005639D02*
X116239612Y-85929448D01*
X117045525Y-91481568D02*
X117045525Y-91938711D01*
X117045525Y-91710139D02*
X116245525Y-91710139D01*
X116245525Y-91710139D02*
X116359810Y-91786330D01*
X116359810Y-91786330D02*
X116436001Y-91862520D01*
X116436001Y-91862520D02*
X116474096Y-91938711D01*
X116321715Y-91176806D02*
X116283620Y-91138710D01*
X116283620Y-91138710D02*
X116245525Y-91062520D01*
X116245525Y-91062520D02*
X116245525Y-90872044D01*
X116245525Y-90872044D02*
X116283620Y-90795853D01*
X116283620Y-90795853D02*
X116321715Y-90757758D01*
X116321715Y-90757758D02*
X116397906Y-90719663D01*
X116397906Y-90719663D02*
X116474096Y-90719663D01*
X116474096Y-90719663D02*
X116588382Y-90757758D01*
X116588382Y-90757758D02*
X117045525Y-91214901D01*
X117045525Y-91214901D02*
X117045525Y-90719663D01*
X137196895Y-43262782D02*
X137196895Y-43643734D01*
X137196895Y-43643734D02*
X137577847Y-43681830D01*
X137577847Y-43681830D02*
X137539752Y-43643734D01*
X137539752Y-43643734D02*
X137501657Y-43567544D01*
X137501657Y-43567544D02*
X137501657Y-43377068D01*
X137501657Y-43377068D02*
X137539752Y-43300877D01*
X137539752Y-43300877D02*
X137577847Y-43262782D01*
X137577847Y-43262782D02*
X137654038Y-43224687D01*
X137654038Y-43224687D02*
X137844514Y-43224687D01*
X137844514Y-43224687D02*
X137920704Y-43262782D01*
X137920704Y-43262782D02*
X137958800Y-43300877D01*
X137958800Y-43300877D02*
X137996895Y-43377068D01*
X137996895Y-43377068D02*
X137996895Y-43567544D01*
X137996895Y-43567544D02*
X137958800Y-43643734D01*
X137958800Y-43643734D02*
X137920704Y-43681830D01*
X137196895Y-42996115D02*
X137996895Y-42729448D01*
X137996895Y-42729448D02*
X137196895Y-42462782D01*
X137996895Y-45624687D02*
X137996895Y-46081830D01*
X137996895Y-45853258D02*
X137196895Y-45853258D01*
X137196895Y-45853258D02*
X137311180Y-45929449D01*
X137311180Y-45929449D02*
X137387371Y-46005639D01*
X137387371Y-46005639D02*
X137425466Y-46081830D01*
X137273085Y-48581830D02*
X137234990Y-48543734D01*
X137234990Y-48543734D02*
X137196895Y-48467544D01*
X137196895Y-48467544D02*
X137196895Y-48277068D01*
X137196895Y-48277068D02*
X137234990Y-48200877D01*
X137234990Y-48200877D02*
X137273085Y-48162782D01*
X137273085Y-48162782D02*
X137349276Y-48124687D01*
X137349276Y-48124687D02*
X137425466Y-48124687D01*
X137425466Y-48124687D02*
X137539752Y-48162782D01*
X137539752Y-48162782D02*
X137996895Y-48619925D01*
X137996895Y-48619925D02*
X137996895Y-48124687D01*
X137463561Y-51100877D02*
X137996895Y-51100877D01*
X137158800Y-51291353D02*
X137730228Y-51481830D01*
X137730228Y-51481830D02*
X137730228Y-50986591D01*
X137196895Y-50758020D02*
X137196895Y-50262782D01*
X137196895Y-50262782D02*
X137501657Y-50529448D01*
X137501657Y-50529448D02*
X137501657Y-50415163D01*
X137501657Y-50415163D02*
X137539752Y-50338972D01*
X137539752Y-50338972D02*
X137577847Y-50300877D01*
X137577847Y-50300877D02*
X137654038Y-50262782D01*
X137654038Y-50262782D02*
X137844514Y-50262782D01*
X137844514Y-50262782D02*
X137920704Y-50300877D01*
X137920704Y-50300877D02*
X137958800Y-50338972D01*
X137958800Y-50338972D02*
X137996895Y-50415163D01*
X137996895Y-50415163D02*
X137996895Y-50643734D01*
X137996895Y-50643734D02*
X137958800Y-50719925D01*
X137958800Y-50719925D02*
X137920704Y-50758020D01*
X137463561Y-53500877D02*
X137996895Y-53500877D01*
X137158800Y-53691353D02*
X137730228Y-53881830D01*
X137730228Y-53881830D02*
X137730228Y-53386591D01*
X137463561Y-52738972D02*
X137996895Y-52738972D01*
X137158800Y-52929448D02*
X137730228Y-53119925D01*
X137730228Y-53119925D02*
X137730228Y-52624686D01*
X137463561Y-56200877D02*
X137996895Y-56200877D01*
X137158800Y-56391353D02*
X137730228Y-56581830D01*
X137730228Y-56581830D02*
X137730228Y-56086591D01*
X137273085Y-55819925D02*
X137234990Y-55781829D01*
X137234990Y-55781829D02*
X137196895Y-55705639D01*
X137196895Y-55705639D02*
X137196895Y-55515163D01*
X137196895Y-55515163D02*
X137234990Y-55438972D01*
X137234990Y-55438972D02*
X137273085Y-55400877D01*
X137273085Y-55400877D02*
X137349276Y-55362782D01*
X137349276Y-55362782D02*
X137425466Y-55362782D01*
X137425466Y-55362782D02*
X137539752Y-55400877D01*
X137539752Y-55400877D02*
X137996895Y-55858020D01*
X137996895Y-55858020D02*
X137996895Y-55362782D01*
X137463561Y-58500877D02*
X137996895Y-58500877D01*
X137158800Y-58691353D02*
X137730228Y-58881830D01*
X137730228Y-58881830D02*
X137730228Y-58386591D01*
X137996895Y-57662782D02*
X137996895Y-58119925D01*
X137996895Y-57891353D02*
X137196895Y-57891353D01*
X137196895Y-57891353D02*
X137311180Y-57967544D01*
X137311180Y-57967544D02*
X137387371Y-58043734D01*
X137387371Y-58043734D02*
X137425466Y-58119925D01*
X137463561Y-61400877D02*
X137996895Y-61400877D01*
X137158800Y-61591353D02*
X137730228Y-61781830D01*
X137730228Y-61781830D02*
X137730228Y-61286591D01*
X137196895Y-60829448D02*
X137196895Y-60753258D01*
X137196895Y-60753258D02*
X137234990Y-60677067D01*
X137234990Y-60677067D02*
X137273085Y-60638972D01*
X137273085Y-60638972D02*
X137349276Y-60600877D01*
X137349276Y-60600877D02*
X137501657Y-60562782D01*
X137501657Y-60562782D02*
X137692133Y-60562782D01*
X137692133Y-60562782D02*
X137844514Y-60600877D01*
X137844514Y-60600877D02*
X137920704Y-60638972D01*
X137920704Y-60638972D02*
X137958800Y-60677067D01*
X137958800Y-60677067D02*
X137996895Y-60753258D01*
X137996895Y-60753258D02*
X137996895Y-60829448D01*
X137996895Y-60829448D02*
X137958800Y-60905639D01*
X137958800Y-60905639D02*
X137920704Y-60943734D01*
X137920704Y-60943734D02*
X137844514Y-60981829D01*
X137844514Y-60981829D02*
X137692133Y-61019925D01*
X137692133Y-61019925D02*
X137501657Y-61019925D01*
X137501657Y-61019925D02*
X137349276Y-60981829D01*
X137349276Y-60981829D02*
X137273085Y-60943734D01*
X137273085Y-60943734D02*
X137234990Y-60905639D01*
X137234990Y-60905639D02*
X137196895Y-60829448D01*
X137196895Y-64219925D02*
X137196895Y-63724687D01*
X137196895Y-63724687D02*
X137501657Y-63991353D01*
X137501657Y-63991353D02*
X137501657Y-63877068D01*
X137501657Y-63877068D02*
X137539752Y-63800877D01*
X137539752Y-63800877D02*
X137577847Y-63762782D01*
X137577847Y-63762782D02*
X137654038Y-63724687D01*
X137654038Y-63724687D02*
X137844514Y-63724687D01*
X137844514Y-63724687D02*
X137920704Y-63762782D01*
X137920704Y-63762782D02*
X137958800Y-63800877D01*
X137958800Y-63800877D02*
X137996895Y-63877068D01*
X137996895Y-63877068D02*
X137996895Y-64105639D01*
X137996895Y-64105639D02*
X137958800Y-64181830D01*
X137958800Y-64181830D02*
X137920704Y-64219925D01*
X137996895Y-63343734D02*
X137996895Y-63191353D01*
X137996895Y-63191353D02*
X137958800Y-63115163D01*
X137958800Y-63115163D02*
X137920704Y-63077067D01*
X137920704Y-63077067D02*
X137806419Y-63000877D01*
X137806419Y-63000877D02*
X137654038Y-62962782D01*
X137654038Y-62962782D02*
X137349276Y-62962782D01*
X137349276Y-62962782D02*
X137273085Y-63000877D01*
X137273085Y-63000877D02*
X137234990Y-63038972D01*
X137234990Y-63038972D02*
X137196895Y-63115163D01*
X137196895Y-63115163D02*
X137196895Y-63267544D01*
X137196895Y-63267544D02*
X137234990Y-63343734D01*
X137234990Y-63343734D02*
X137273085Y-63381829D01*
X137273085Y-63381829D02*
X137349276Y-63419925D01*
X137349276Y-63419925D02*
X137539752Y-63419925D01*
X137539752Y-63419925D02*
X137615942Y-63381829D01*
X137615942Y-63381829D02*
X137654038Y-63343734D01*
X137654038Y-63343734D02*
X137692133Y-63267544D01*
X137692133Y-63267544D02*
X137692133Y-63115163D01*
X137692133Y-63115163D02*
X137654038Y-63038972D01*
X137654038Y-63038972D02*
X137615942Y-63000877D01*
X137615942Y-63000877D02*
X137539752Y-62962782D01*
X137196895Y-66719925D02*
X137196895Y-66224687D01*
X137196895Y-66224687D02*
X137501657Y-66491353D01*
X137501657Y-66491353D02*
X137501657Y-66377068D01*
X137501657Y-66377068D02*
X137539752Y-66300877D01*
X137539752Y-66300877D02*
X137577847Y-66262782D01*
X137577847Y-66262782D02*
X137654038Y-66224687D01*
X137654038Y-66224687D02*
X137844514Y-66224687D01*
X137844514Y-66224687D02*
X137920704Y-66262782D01*
X137920704Y-66262782D02*
X137958800Y-66300877D01*
X137958800Y-66300877D02*
X137996895Y-66377068D01*
X137996895Y-66377068D02*
X137996895Y-66605639D01*
X137996895Y-66605639D02*
X137958800Y-66681830D01*
X137958800Y-66681830D02*
X137920704Y-66719925D01*
X137539752Y-65767544D02*
X137501657Y-65843734D01*
X137501657Y-65843734D02*
X137463561Y-65881829D01*
X137463561Y-65881829D02*
X137387371Y-65919925D01*
X137387371Y-65919925D02*
X137349276Y-65919925D01*
X137349276Y-65919925D02*
X137273085Y-65881829D01*
X137273085Y-65881829D02*
X137234990Y-65843734D01*
X137234990Y-65843734D02*
X137196895Y-65767544D01*
X137196895Y-65767544D02*
X137196895Y-65615163D01*
X137196895Y-65615163D02*
X137234990Y-65538972D01*
X137234990Y-65538972D02*
X137273085Y-65500877D01*
X137273085Y-65500877D02*
X137349276Y-65462782D01*
X137349276Y-65462782D02*
X137387371Y-65462782D01*
X137387371Y-65462782D02*
X137463561Y-65500877D01*
X137463561Y-65500877D02*
X137501657Y-65538972D01*
X137501657Y-65538972D02*
X137539752Y-65615163D01*
X137539752Y-65615163D02*
X137539752Y-65767544D01*
X137539752Y-65767544D02*
X137577847Y-65843734D01*
X137577847Y-65843734D02*
X137615942Y-65881829D01*
X137615942Y-65881829D02*
X137692133Y-65919925D01*
X137692133Y-65919925D02*
X137844514Y-65919925D01*
X137844514Y-65919925D02*
X137920704Y-65881829D01*
X137920704Y-65881829D02*
X137958800Y-65843734D01*
X137958800Y-65843734D02*
X137996895Y-65767544D01*
X137996895Y-65767544D02*
X137996895Y-65615163D01*
X137996895Y-65615163D02*
X137958800Y-65538972D01*
X137958800Y-65538972D02*
X137920704Y-65500877D01*
X137920704Y-65500877D02*
X137844514Y-65462782D01*
X137844514Y-65462782D02*
X137692133Y-65462782D01*
X137692133Y-65462782D02*
X137615942Y-65500877D01*
X137615942Y-65500877D02*
X137577847Y-65538972D01*
X137577847Y-65538972D02*
X137539752Y-65615163D01*
X137196895Y-69119925D02*
X137196895Y-68624687D01*
X137196895Y-68624687D02*
X137501657Y-68891353D01*
X137501657Y-68891353D02*
X137501657Y-68777068D01*
X137501657Y-68777068D02*
X137539752Y-68700877D01*
X137539752Y-68700877D02*
X137577847Y-68662782D01*
X137577847Y-68662782D02*
X137654038Y-68624687D01*
X137654038Y-68624687D02*
X137844514Y-68624687D01*
X137844514Y-68624687D02*
X137920704Y-68662782D01*
X137920704Y-68662782D02*
X137958800Y-68700877D01*
X137958800Y-68700877D02*
X137996895Y-68777068D01*
X137996895Y-68777068D02*
X137996895Y-69005639D01*
X137996895Y-69005639D02*
X137958800Y-69081830D01*
X137958800Y-69081830D02*
X137920704Y-69119925D01*
X137196895Y-68358020D02*
X137196895Y-67824686D01*
X137196895Y-67824686D02*
X137996895Y-68167544D01*
X137196895Y-71619925D02*
X137196895Y-71124687D01*
X137196895Y-71124687D02*
X137501657Y-71391353D01*
X137501657Y-71391353D02*
X137501657Y-71277068D01*
X137501657Y-71277068D02*
X137539752Y-71200877D01*
X137539752Y-71200877D02*
X137577847Y-71162782D01*
X137577847Y-71162782D02*
X137654038Y-71124687D01*
X137654038Y-71124687D02*
X137844514Y-71124687D01*
X137844514Y-71124687D02*
X137920704Y-71162782D01*
X137920704Y-71162782D02*
X137958800Y-71200877D01*
X137958800Y-71200877D02*
X137996895Y-71277068D01*
X137996895Y-71277068D02*
X137996895Y-71505639D01*
X137996895Y-71505639D02*
X137958800Y-71581830D01*
X137958800Y-71581830D02*
X137920704Y-71619925D01*
X137196895Y-70438972D02*
X137196895Y-70591353D01*
X137196895Y-70591353D02*
X137234990Y-70667544D01*
X137234990Y-70667544D02*
X137273085Y-70705639D01*
X137273085Y-70705639D02*
X137387371Y-70781829D01*
X137387371Y-70781829D02*
X137539752Y-70819925D01*
X137539752Y-70819925D02*
X137844514Y-70819925D01*
X137844514Y-70819925D02*
X137920704Y-70781829D01*
X137920704Y-70781829D02*
X137958800Y-70743734D01*
X137958800Y-70743734D02*
X137996895Y-70667544D01*
X137996895Y-70667544D02*
X137996895Y-70515163D01*
X137996895Y-70515163D02*
X137958800Y-70438972D01*
X137958800Y-70438972D02*
X137920704Y-70400877D01*
X137920704Y-70400877D02*
X137844514Y-70362782D01*
X137844514Y-70362782D02*
X137654038Y-70362782D01*
X137654038Y-70362782D02*
X137577847Y-70400877D01*
X137577847Y-70400877D02*
X137539752Y-70438972D01*
X137539752Y-70438972D02*
X137501657Y-70515163D01*
X137501657Y-70515163D02*
X137501657Y-70667544D01*
X137501657Y-70667544D02*
X137539752Y-70743734D01*
X137539752Y-70743734D02*
X137577847Y-70781829D01*
X137577847Y-70781829D02*
X137654038Y-70819925D01*
X137196895Y-74419925D02*
X137196895Y-73924687D01*
X137196895Y-73924687D02*
X137501657Y-74191353D01*
X137501657Y-74191353D02*
X137501657Y-74077068D01*
X137501657Y-74077068D02*
X137539752Y-74000877D01*
X137539752Y-74000877D02*
X137577847Y-73962782D01*
X137577847Y-73962782D02*
X137654038Y-73924687D01*
X137654038Y-73924687D02*
X137844514Y-73924687D01*
X137844514Y-73924687D02*
X137920704Y-73962782D01*
X137920704Y-73962782D02*
X137958800Y-74000877D01*
X137958800Y-74000877D02*
X137996895Y-74077068D01*
X137996895Y-74077068D02*
X137996895Y-74305639D01*
X137996895Y-74305639D02*
X137958800Y-74381830D01*
X137958800Y-74381830D02*
X137920704Y-74419925D01*
X137196895Y-73200877D02*
X137196895Y-73581829D01*
X137196895Y-73581829D02*
X137577847Y-73619925D01*
X137577847Y-73619925D02*
X137539752Y-73581829D01*
X137539752Y-73581829D02*
X137501657Y-73505639D01*
X137501657Y-73505639D02*
X137501657Y-73315163D01*
X137501657Y-73315163D02*
X137539752Y-73238972D01*
X137539752Y-73238972D02*
X137577847Y-73200877D01*
X137577847Y-73200877D02*
X137654038Y-73162782D01*
X137654038Y-73162782D02*
X137844514Y-73162782D01*
X137844514Y-73162782D02*
X137920704Y-73200877D01*
X137920704Y-73200877D02*
X137958800Y-73238972D01*
X137958800Y-73238972D02*
X137996895Y-73315163D01*
X137996895Y-73315163D02*
X137996895Y-73505639D01*
X137996895Y-73505639D02*
X137958800Y-73581829D01*
X137958800Y-73581829D02*
X137920704Y-73619925D01*
X137196895Y-76191353D02*
X137196895Y-76115163D01*
X137196895Y-76115163D02*
X137234990Y-76038972D01*
X137234990Y-76038972D02*
X137273085Y-76000877D01*
X137273085Y-76000877D02*
X137349276Y-75962782D01*
X137349276Y-75962782D02*
X137501657Y-75924687D01*
X137501657Y-75924687D02*
X137692133Y-75924687D01*
X137692133Y-75924687D02*
X137844514Y-75962782D01*
X137844514Y-75962782D02*
X137920704Y-76000877D01*
X137920704Y-76000877D02*
X137958800Y-76038972D01*
X137958800Y-76038972D02*
X137996895Y-76115163D01*
X137996895Y-76115163D02*
X137996895Y-76191353D01*
X137996895Y-76191353D02*
X137958800Y-76267544D01*
X137958800Y-76267544D02*
X137920704Y-76305639D01*
X137920704Y-76305639D02*
X137844514Y-76343734D01*
X137844514Y-76343734D02*
X137692133Y-76381830D01*
X137692133Y-76381830D02*
X137501657Y-76381830D01*
X137501657Y-76381830D02*
X137349276Y-76343734D01*
X137349276Y-76343734D02*
X137273085Y-76305639D01*
X137273085Y-76305639D02*
X137234990Y-76267544D01*
X137234990Y-76267544D02*
X137196895Y-76191353D01*
X137463561Y-79000877D02*
X137996895Y-79000877D01*
X137158800Y-79191353D02*
X137730228Y-79381830D01*
X137730228Y-79381830D02*
X137730228Y-78886591D01*
X137196895Y-78200877D02*
X137196895Y-78581829D01*
X137196895Y-78581829D02*
X137577847Y-78619925D01*
X137577847Y-78619925D02*
X137539752Y-78581829D01*
X137539752Y-78581829D02*
X137501657Y-78505639D01*
X137501657Y-78505639D02*
X137501657Y-78315163D01*
X137501657Y-78315163D02*
X137539752Y-78238972D01*
X137539752Y-78238972D02*
X137577847Y-78200877D01*
X137577847Y-78200877D02*
X137654038Y-78162782D01*
X137654038Y-78162782D02*
X137844514Y-78162782D01*
X137844514Y-78162782D02*
X137920704Y-78200877D01*
X137920704Y-78200877D02*
X137958800Y-78238972D01*
X137958800Y-78238972D02*
X137996895Y-78315163D01*
X137996895Y-78315163D02*
X137996895Y-78505639D01*
X137996895Y-78505639D02*
X137958800Y-78581829D01*
X137958800Y-78581829D02*
X137920704Y-78619925D01*
X137463561Y-81500877D02*
X137996895Y-81500877D01*
X137158800Y-81691353D02*
X137730228Y-81881830D01*
X137730228Y-81881830D02*
X137730228Y-81386591D01*
X137539752Y-80967544D02*
X137501657Y-81043734D01*
X137501657Y-81043734D02*
X137463561Y-81081829D01*
X137463561Y-81081829D02*
X137387371Y-81119925D01*
X137387371Y-81119925D02*
X137349276Y-81119925D01*
X137349276Y-81119925D02*
X137273085Y-81081829D01*
X137273085Y-81081829D02*
X137234990Y-81043734D01*
X137234990Y-81043734D02*
X137196895Y-80967544D01*
X137196895Y-80967544D02*
X137196895Y-80815163D01*
X137196895Y-80815163D02*
X137234990Y-80738972D01*
X137234990Y-80738972D02*
X137273085Y-80700877D01*
X137273085Y-80700877D02*
X137349276Y-80662782D01*
X137349276Y-80662782D02*
X137387371Y-80662782D01*
X137387371Y-80662782D02*
X137463561Y-80700877D01*
X137463561Y-80700877D02*
X137501657Y-80738972D01*
X137501657Y-80738972D02*
X137539752Y-80815163D01*
X137539752Y-80815163D02*
X137539752Y-80967544D01*
X137539752Y-80967544D02*
X137577847Y-81043734D01*
X137577847Y-81043734D02*
X137615942Y-81081829D01*
X137615942Y-81081829D02*
X137692133Y-81119925D01*
X137692133Y-81119925D02*
X137844514Y-81119925D01*
X137844514Y-81119925D02*
X137920704Y-81081829D01*
X137920704Y-81081829D02*
X137958800Y-81043734D01*
X137958800Y-81043734D02*
X137996895Y-80967544D01*
X137996895Y-80967544D02*
X137996895Y-80815163D01*
X137996895Y-80815163D02*
X137958800Y-80738972D01*
X137958800Y-80738972D02*
X137920704Y-80700877D01*
X137920704Y-80700877D02*
X137844514Y-80662782D01*
X137844514Y-80662782D02*
X137692133Y-80662782D01*
X137692133Y-80662782D02*
X137615942Y-80700877D01*
X137615942Y-80700877D02*
X137577847Y-80738972D01*
X137577847Y-80738972D02*
X137539752Y-80815163D01*
X137463561Y-84000877D02*
X137996895Y-84000877D01*
X137158800Y-84191353D02*
X137730228Y-84381830D01*
X137730228Y-84381830D02*
X137730228Y-83886591D01*
X137196895Y-83658020D02*
X137196895Y-83124686D01*
X137196895Y-83124686D02*
X137996895Y-83467544D01*
X137273085Y-86881830D02*
X137234990Y-86843734D01*
X137234990Y-86843734D02*
X137196895Y-86767544D01*
X137196895Y-86767544D02*
X137196895Y-86577068D01*
X137196895Y-86577068D02*
X137234990Y-86500877D01*
X137234990Y-86500877D02*
X137273085Y-86462782D01*
X137273085Y-86462782D02*
X137349276Y-86424687D01*
X137349276Y-86424687D02*
X137425466Y-86424687D01*
X137425466Y-86424687D02*
X137539752Y-86462782D01*
X137539752Y-86462782D02*
X137996895Y-86919925D01*
X137996895Y-86919925D02*
X137996895Y-86424687D01*
X137996895Y-85662782D02*
X137996895Y-86119925D01*
X137996895Y-85891353D02*
X137196895Y-85891353D01*
X137196895Y-85891353D02*
X137311180Y-85967544D01*
X137311180Y-85967544D02*
X137387371Y-86043734D01*
X137387371Y-86043734D02*
X137425466Y-86119925D01*
X137996895Y-89024687D02*
X137996895Y-89481830D01*
X137996895Y-89253258D02*
X137196895Y-89253258D01*
X137196895Y-89253258D02*
X137311180Y-89329449D01*
X137311180Y-89329449D02*
X137387371Y-89405639D01*
X137387371Y-89405639D02*
X137425466Y-89481830D01*
X137463561Y-88338972D02*
X137996895Y-88338972D01*
X137158800Y-88529448D02*
X137730228Y-88719925D01*
X137730228Y-88719925D02*
X137730228Y-88224686D01*
X137996895Y-91624687D02*
X137996895Y-92081830D01*
X137996895Y-91853258D02*
X137196895Y-91853258D01*
X137196895Y-91853258D02*
X137311180Y-91929449D01*
X137311180Y-91929449D02*
X137387371Y-92005639D01*
X137387371Y-92005639D02*
X137425466Y-92081830D01*
X137196895Y-91358020D02*
X137196895Y-90862782D01*
X137196895Y-90862782D02*
X137501657Y-91129448D01*
X137501657Y-91129448D02*
X137501657Y-91015163D01*
X137501657Y-91015163D02*
X137539752Y-90938972D01*
X137539752Y-90938972D02*
X137577847Y-90900877D01*
X137577847Y-90900877D02*
X137654038Y-90862782D01*
X137654038Y-90862782D02*
X137844514Y-90862782D01*
X137844514Y-90862782D02*
X137920704Y-90900877D01*
X137920704Y-90900877D02*
X137958800Y-90938972D01*
X137958800Y-90938972D02*
X137996895Y-91015163D01*
X137996895Y-91015163D02*
X137996895Y-91243734D01*
X137996895Y-91243734D02*
X137958800Y-91319925D01*
X137958800Y-91319925D02*
X137920704Y-91358020D01*
X125708646Y-53672419D02*
X125946741Y-54672419D01*
X125946741Y-54672419D02*
X126137217Y-53958133D01*
X126137217Y-53958133D02*
X126327693Y-54672419D01*
X126327693Y-54672419D02*
X126565789Y-53672419D01*
X127375312Y-54672419D02*
X127375312Y-54148609D01*
X127375312Y-54148609D02*
X127327693Y-54053371D01*
X127327693Y-54053371D02*
X127232455Y-54005752D01*
X127232455Y-54005752D02*
X127041979Y-54005752D01*
X127041979Y-54005752D02*
X126946741Y-54053371D01*
X127375312Y-54624800D02*
X127280074Y-54672419D01*
X127280074Y-54672419D02*
X127041979Y-54672419D01*
X127041979Y-54672419D02*
X126946741Y-54624800D01*
X126946741Y-54624800D02*
X126899122Y-54529561D01*
X126899122Y-54529561D02*
X126899122Y-54434323D01*
X126899122Y-54434323D02*
X126946741Y-54339085D01*
X126946741Y-54339085D02*
X127041979Y-54291466D01*
X127041979Y-54291466D02*
X127280074Y-54291466D01*
X127280074Y-54291466D02*
X127375312Y-54243847D01*
X127756265Y-54005752D02*
X127994360Y-54672419D01*
X128232455Y-54005752D02*
X127994360Y-54672419D01*
X127994360Y-54672419D02*
X127899122Y-54910514D01*
X127899122Y-54910514D02*
X127851503Y-54958133D01*
X127851503Y-54958133D02*
X127756265Y-55005752D01*
X128518170Y-53672419D02*
X128756265Y-54672419D01*
X128756265Y-54672419D02*
X128946741Y-53958133D01*
X128946741Y-53958133D02*
X129137217Y-54672419D01*
X129137217Y-54672419D02*
X129375313Y-53672419D01*
X130184836Y-54672419D02*
X130184836Y-54148609D01*
X130184836Y-54148609D02*
X130137217Y-54053371D01*
X130137217Y-54053371D02*
X130041979Y-54005752D01*
X130041979Y-54005752D02*
X129851503Y-54005752D01*
X129851503Y-54005752D02*
X129756265Y-54053371D01*
X130184836Y-54624800D02*
X130089598Y-54672419D01*
X130089598Y-54672419D02*
X129851503Y-54672419D01*
X129851503Y-54672419D02*
X129756265Y-54624800D01*
X129756265Y-54624800D02*
X129708646Y-54529561D01*
X129708646Y-54529561D02*
X129708646Y-54434323D01*
X129708646Y-54434323D02*
X129756265Y-54339085D01*
X129756265Y-54339085D02*
X129851503Y-54291466D01*
X129851503Y-54291466D02*
X130089598Y-54291466D01*
X130089598Y-54291466D02*
X130184836Y-54243847D01*
X130565789Y-54005752D02*
X130803884Y-54672419D01*
X131041979Y-54005752D02*
X130803884Y-54672419D01*
X130803884Y-54672419D02*
X130708646Y-54910514D01*
X130708646Y-54910514D02*
X130661027Y-54958133D01*
X130661027Y-54958133D02*
X130565789Y-55005752D01*
X131327694Y-53672419D02*
X131565789Y-54672419D01*
X131565789Y-54672419D02*
X131756265Y-53958133D01*
X131756265Y-53958133D02*
X131946741Y-54672419D01*
X131946741Y-54672419D02*
X132184837Y-53672419D01*
X132994360Y-54672419D02*
X132994360Y-54148609D01*
X132994360Y-54148609D02*
X132946741Y-54053371D01*
X132946741Y-54053371D02*
X132851503Y-54005752D01*
X132851503Y-54005752D02*
X132661027Y-54005752D01*
X132661027Y-54005752D02*
X132565789Y-54053371D01*
X132994360Y-54624800D02*
X132899122Y-54672419D01*
X132899122Y-54672419D02*
X132661027Y-54672419D01*
X132661027Y-54672419D02*
X132565789Y-54624800D01*
X132565789Y-54624800D02*
X132518170Y-54529561D01*
X132518170Y-54529561D02*
X132518170Y-54434323D01*
X132518170Y-54434323D02*
X132565789Y-54339085D01*
X132565789Y-54339085D02*
X132661027Y-54291466D01*
X132661027Y-54291466D02*
X132899122Y-54291466D01*
X132899122Y-54291466D02*
X132994360Y-54243847D01*
X133375313Y-54005752D02*
X133613408Y-54672419D01*
X133851503Y-54005752D02*
X133613408Y-54672419D01*
X133613408Y-54672419D02*
X133518170Y-54910514D01*
X133518170Y-54910514D02*
X133470551Y-54958133D01*
X133470551Y-54958133D02*
X133375313Y-55005752D01*
X119272419Y-86024687D02*
X118796228Y-86358020D01*
X119272419Y-86596115D02*
X118272419Y-86596115D01*
X118272419Y-86596115D02*
X118272419Y-86215163D01*
X118272419Y-86215163D02*
X118320038Y-86119925D01*
X118320038Y-86119925D02*
X118367657Y-86072306D01*
X118367657Y-86072306D02*
X118462895Y-86024687D01*
X118462895Y-86024687D02*
X118605752Y-86024687D01*
X118605752Y-86024687D02*
X118700990Y-86072306D01*
X118700990Y-86072306D02*
X118748609Y-86119925D01*
X118748609Y-86119925D02*
X118796228Y-86215163D01*
X118796228Y-86215163D02*
X118796228Y-86596115D01*
X118748609Y-85596115D02*
X118748609Y-85262782D01*
X119272419Y-85119925D02*
X119272419Y-85596115D01*
X119272419Y-85596115D02*
X118272419Y-85596115D01*
X118272419Y-85596115D02*
X118272419Y-85119925D01*
X119224800Y-84738972D02*
X119272419Y-84596115D01*
X119272419Y-84596115D02*
X119272419Y-84358020D01*
X119272419Y-84358020D02*
X119224800Y-84262782D01*
X119224800Y-84262782D02*
X119177180Y-84215163D01*
X119177180Y-84215163D02*
X119081942Y-84167544D01*
X119081942Y-84167544D02*
X118986704Y-84167544D01*
X118986704Y-84167544D02*
X118891466Y-84215163D01*
X118891466Y-84215163D02*
X118843847Y-84262782D01*
X118843847Y-84262782D02*
X118796228Y-84358020D01*
X118796228Y-84358020D02*
X118748609Y-84548496D01*
X118748609Y-84548496D02*
X118700990Y-84643734D01*
X118700990Y-84643734D02*
X118653371Y-84691353D01*
X118653371Y-84691353D02*
X118558133Y-84738972D01*
X118558133Y-84738972D02*
X118462895Y-84738972D01*
X118462895Y-84738972D02*
X118367657Y-84691353D01*
X118367657Y-84691353D02*
X118320038Y-84643734D01*
X118320038Y-84643734D02*
X118272419Y-84548496D01*
X118272419Y-84548496D02*
X118272419Y-84310401D01*
X118272419Y-84310401D02*
X118320038Y-84167544D01*
X118748609Y-83738972D02*
X118748609Y-83405639D01*
X119272419Y-83262782D02*
X119272419Y-83738972D01*
X119272419Y-83738972D02*
X118272419Y-83738972D01*
X118272419Y-83738972D02*
X118272419Y-83262782D01*
X118272419Y-82977067D02*
X118272419Y-82405639D01*
X119272419Y-82691353D02*
X118272419Y-82691353D01*
X135100576Y-86268961D02*
X135148195Y-86126104D01*
X135148195Y-86126104D02*
X135195814Y-86078485D01*
X135195814Y-86078485D02*
X135291052Y-86030866D01*
X135291052Y-86030866D02*
X135433909Y-86030866D01*
X135433909Y-86030866D02*
X135529147Y-86078485D01*
X135529147Y-86078485D02*
X135576767Y-86126104D01*
X135576767Y-86126104D02*
X135624386Y-86221342D01*
X135624386Y-86221342D02*
X135624386Y-86602294D01*
X135624386Y-86602294D02*
X134624386Y-86602294D01*
X134624386Y-86602294D02*
X134624386Y-86268961D01*
X134624386Y-86268961D02*
X134672005Y-86173723D01*
X134672005Y-86173723D02*
X134719624Y-86126104D01*
X134719624Y-86126104D02*
X134814862Y-86078485D01*
X134814862Y-86078485D02*
X134910100Y-86078485D01*
X134910100Y-86078485D02*
X135005338Y-86126104D01*
X135005338Y-86126104D02*
X135052957Y-86173723D01*
X135052957Y-86173723D02*
X135100576Y-86268961D01*
X135100576Y-86268961D02*
X135100576Y-86602294D01*
X134624386Y-85411818D02*
X134624386Y-85221342D01*
X134624386Y-85221342D02*
X134672005Y-85126104D01*
X134672005Y-85126104D02*
X134767243Y-85030866D01*
X134767243Y-85030866D02*
X134957719Y-84983247D01*
X134957719Y-84983247D02*
X135291052Y-84983247D01*
X135291052Y-84983247D02*
X135481528Y-85030866D01*
X135481528Y-85030866D02*
X135576767Y-85126104D01*
X135576767Y-85126104D02*
X135624386Y-85221342D01*
X135624386Y-85221342D02*
X135624386Y-85411818D01*
X135624386Y-85411818D02*
X135576767Y-85507056D01*
X135576767Y-85507056D02*
X135481528Y-85602294D01*
X135481528Y-85602294D02*
X135291052Y-85649913D01*
X135291052Y-85649913D02*
X134957719Y-85649913D01*
X134957719Y-85649913D02*
X134767243Y-85602294D01*
X134767243Y-85602294D02*
X134672005Y-85507056D01*
X134672005Y-85507056D02*
X134624386Y-85411818D01*
X134624386Y-84364199D02*
X134624386Y-84173723D01*
X134624386Y-84173723D02*
X134672005Y-84078485D01*
X134672005Y-84078485D02*
X134767243Y-83983247D01*
X134767243Y-83983247D02*
X134957719Y-83935628D01*
X134957719Y-83935628D02*
X135291052Y-83935628D01*
X135291052Y-83935628D02*
X135481528Y-83983247D01*
X135481528Y-83983247D02*
X135576767Y-84078485D01*
X135576767Y-84078485D02*
X135624386Y-84173723D01*
X135624386Y-84173723D02*
X135624386Y-84364199D01*
X135624386Y-84364199D02*
X135576767Y-84459437D01*
X135576767Y-84459437D02*
X135481528Y-84554675D01*
X135481528Y-84554675D02*
X135291052Y-84602294D01*
X135291052Y-84602294D02*
X134957719Y-84602294D01*
X134957719Y-84602294D02*
X134767243Y-84554675D01*
X134767243Y-84554675D02*
X134672005Y-84459437D01*
X134672005Y-84459437D02*
X134624386Y-84364199D01*
X134624386Y-83649913D02*
X134624386Y-83078485D01*
X135624386Y-83364199D02*
X134624386Y-83364199D01*
D11*
X126254819Y-78061904D02*
X127064342Y-78061904D01*
X127064342Y-78061904D02*
X127159580Y-78014285D01*
X127159580Y-78014285D02*
X127207200Y-77966666D01*
X127207200Y-77966666D02*
X127254819Y-77871428D01*
X127254819Y-77871428D02*
X127254819Y-77680952D01*
X127254819Y-77680952D02*
X127207200Y-77585714D01*
X127207200Y-77585714D02*
X127159580Y-77538095D01*
X127159580Y-77538095D02*
X127064342Y-77490476D01*
X127064342Y-77490476D02*
X126254819Y-77490476D01*
X126254819Y-77109523D02*
X126254819Y-76490476D01*
X126254819Y-76490476D02*
X126635771Y-76823809D01*
X126635771Y-76823809D02*
X126635771Y-76680952D01*
X126635771Y-76680952D02*
X126683390Y-76585714D01*
X126683390Y-76585714D02*
X126731009Y-76538095D01*
X126731009Y-76538095D02*
X126826247Y-76490476D01*
X126826247Y-76490476D02*
X127064342Y-76490476D01*
X127064342Y-76490476D02*
X127159580Y-76538095D01*
X127159580Y-76538095D02*
X127207200Y-76585714D01*
X127207200Y-76585714D02*
X127254819Y-76680952D01*
X127254819Y-76680952D02*
X127254819Y-76966666D01*
X127254819Y-76966666D02*
X127207200Y-77061904D01*
X127207200Y-77061904D02*
X127159580Y-77109523D01*
X133659580Y-79766666D02*
X133707200Y-79814285D01*
X133707200Y-79814285D02*
X133754819Y-79957142D01*
X133754819Y-79957142D02*
X133754819Y-80052380D01*
X133754819Y-80052380D02*
X133707200Y-80195237D01*
X133707200Y-80195237D02*
X133611961Y-80290475D01*
X133611961Y-80290475D02*
X133516723Y-80338094D01*
X133516723Y-80338094D02*
X133326247Y-80385713D01*
X133326247Y-80385713D02*
X133183390Y-80385713D01*
X133183390Y-80385713D02*
X132992914Y-80338094D01*
X132992914Y-80338094D02*
X132897676Y-80290475D01*
X132897676Y-80290475D02*
X132802438Y-80195237D01*
X132802438Y-80195237D02*
X132754819Y-80052380D01*
X132754819Y-80052380D02*
X132754819Y-79957142D01*
X132754819Y-79957142D02*
X132802438Y-79814285D01*
X132802438Y-79814285D02*
X132850057Y-79766666D01*
X133088152Y-78909523D02*
X133754819Y-78909523D01*
X132707200Y-79147618D02*
X133421485Y-79385713D01*
X133421485Y-79385713D02*
X133421485Y-78766666D01*
X133854819Y-83166666D02*
X133378628Y-83499999D01*
X133854819Y-83738094D02*
X132854819Y-83738094D01*
X132854819Y-83738094D02*
X132854819Y-83357142D01*
X132854819Y-83357142D02*
X132902438Y-83261904D01*
X132902438Y-83261904D02*
X132950057Y-83214285D01*
X132950057Y-83214285D02*
X133045295Y-83166666D01*
X133045295Y-83166666D02*
X133188152Y-83166666D01*
X133188152Y-83166666D02*
X133283390Y-83214285D01*
X133283390Y-83214285D02*
X133331009Y-83261904D01*
X133331009Y-83261904D02*
X133378628Y-83357142D01*
X133378628Y-83357142D02*
X133378628Y-83738094D01*
X133854819Y-82214285D02*
X133854819Y-82785713D01*
X133854819Y-82499999D02*
X132854819Y-82499999D01*
X132854819Y-82499999D02*
X132997676Y-82595237D01*
X132997676Y-82595237D02*
X133092914Y-82690475D01*
X133092914Y-82690475D02*
X133140533Y-82785713D01*
X125186905Y-68254819D02*
X125186905Y-67254819D01*
X125186905Y-67254819D02*
X125425000Y-67254819D01*
X125425000Y-67254819D02*
X125567857Y-67302438D01*
X125567857Y-67302438D02*
X125663095Y-67397676D01*
X125663095Y-67397676D02*
X125710714Y-67492914D01*
X125710714Y-67492914D02*
X125758333Y-67683390D01*
X125758333Y-67683390D02*
X125758333Y-67826247D01*
X125758333Y-67826247D02*
X125710714Y-68016723D01*
X125710714Y-68016723D02*
X125663095Y-68111961D01*
X125663095Y-68111961D02*
X125567857Y-68207200D01*
X125567857Y-68207200D02*
X125425000Y-68254819D01*
X125425000Y-68254819D02*
X125186905Y-68254819D01*
X126091667Y-67254819D02*
X126710714Y-67254819D01*
X126710714Y-67254819D02*
X126377381Y-67635771D01*
X126377381Y-67635771D02*
X126520238Y-67635771D01*
X126520238Y-67635771D02*
X126615476Y-67683390D01*
X126615476Y-67683390D02*
X126663095Y-67731009D01*
X126663095Y-67731009D02*
X126710714Y-67826247D01*
X126710714Y-67826247D02*
X126710714Y-68064342D01*
X126710714Y-68064342D02*
X126663095Y-68159580D01*
X126663095Y-68159580D02*
X126615476Y-68207200D01*
X126615476Y-68207200D02*
X126520238Y-68254819D01*
X126520238Y-68254819D02*
X126234524Y-68254819D01*
X126234524Y-68254819D02*
X126139286Y-68207200D01*
X126139286Y-68207200D02*
X126091667Y-68159580D01*
X126866666Y-91254819D02*
X126866666Y-91969104D01*
X126866666Y-91969104D02*
X126819047Y-92111961D01*
X126819047Y-92111961D02*
X126723809Y-92207200D01*
X126723809Y-92207200D02*
X126580952Y-92254819D01*
X126580952Y-92254819D02*
X126485714Y-92254819D01*
X127866666Y-92254819D02*
X127295238Y-92254819D01*
X127580952Y-92254819D02*
X127580952Y-91254819D01*
X127580952Y-91254819D02*
X127485714Y-91397676D01*
X127485714Y-91397676D02*
X127390476Y-91492914D01*
X127390476Y-91492914D02*
X127295238Y-91540533D01*
X125186905Y-69954819D02*
X125186905Y-68954819D01*
X125186905Y-68954819D02*
X125425000Y-68954819D01*
X125425000Y-68954819D02*
X125567857Y-69002438D01*
X125567857Y-69002438D02*
X125663095Y-69097676D01*
X125663095Y-69097676D02*
X125710714Y-69192914D01*
X125710714Y-69192914D02*
X125758333Y-69383390D01*
X125758333Y-69383390D02*
X125758333Y-69526247D01*
X125758333Y-69526247D02*
X125710714Y-69716723D01*
X125710714Y-69716723D02*
X125663095Y-69811961D01*
X125663095Y-69811961D02*
X125567857Y-69907200D01*
X125567857Y-69907200D02*
X125425000Y-69954819D01*
X125425000Y-69954819D02*
X125186905Y-69954819D01*
X126139286Y-69050057D02*
X126186905Y-69002438D01*
X126186905Y-69002438D02*
X126282143Y-68954819D01*
X126282143Y-68954819D02*
X126520238Y-68954819D01*
X126520238Y-68954819D02*
X126615476Y-69002438D01*
X126615476Y-69002438D02*
X126663095Y-69050057D01*
X126663095Y-69050057D02*
X126710714Y-69145295D01*
X126710714Y-69145295D02*
X126710714Y-69240533D01*
X126710714Y-69240533D02*
X126663095Y-69383390D01*
X126663095Y-69383390D02*
X126091667Y-69954819D01*
X126091667Y-69954819D02*
X126710714Y-69954819D01*
X125733333Y-66559580D02*
X125685714Y-66607200D01*
X125685714Y-66607200D02*
X125542857Y-66654819D01*
X125542857Y-66654819D02*
X125447619Y-66654819D01*
X125447619Y-66654819D02*
X125304762Y-66607200D01*
X125304762Y-66607200D02*
X125209524Y-66511961D01*
X125209524Y-66511961D02*
X125161905Y-66416723D01*
X125161905Y-66416723D02*
X125114286Y-66226247D01*
X125114286Y-66226247D02*
X125114286Y-66083390D01*
X125114286Y-66083390D02*
X125161905Y-65892914D01*
X125161905Y-65892914D02*
X125209524Y-65797676D01*
X125209524Y-65797676D02*
X125304762Y-65702438D01*
X125304762Y-65702438D02*
X125447619Y-65654819D01*
X125447619Y-65654819D02*
X125542857Y-65654819D01*
X125542857Y-65654819D02*
X125685714Y-65702438D01*
X125685714Y-65702438D02*
X125733333Y-65750057D01*
X126638095Y-65654819D02*
X126161905Y-65654819D01*
X126161905Y-65654819D02*
X126114286Y-66131009D01*
X126114286Y-66131009D02*
X126161905Y-66083390D01*
X126161905Y-66083390D02*
X126257143Y-66035771D01*
X126257143Y-66035771D02*
X126495238Y-66035771D01*
X126495238Y-66035771D02*
X126590476Y-66083390D01*
X126590476Y-66083390D02*
X126638095Y-66131009D01*
X126638095Y-66131009D02*
X126685714Y-66226247D01*
X126685714Y-66226247D02*
X126685714Y-66464342D01*
X126685714Y-66464342D02*
X126638095Y-66559580D01*
X126638095Y-66559580D02*
X126590476Y-66607200D01*
X126590476Y-66607200D02*
X126495238Y-66654819D01*
X126495238Y-66654819D02*
X126257143Y-66654819D01*
X126257143Y-66654819D02*
X126161905Y-66607200D01*
X126161905Y-66607200D02*
X126114286Y-66559580D01*
X122459580Y-66616666D02*
X122507200Y-66664285D01*
X122507200Y-66664285D02*
X122554819Y-66807142D01*
X122554819Y-66807142D02*
X122554819Y-66902380D01*
X122554819Y-66902380D02*
X122507200Y-67045237D01*
X122507200Y-67045237D02*
X122411961Y-67140475D01*
X122411961Y-67140475D02*
X122316723Y-67188094D01*
X122316723Y-67188094D02*
X122126247Y-67235713D01*
X122126247Y-67235713D02*
X121983390Y-67235713D01*
X121983390Y-67235713D02*
X121792914Y-67188094D01*
X121792914Y-67188094D02*
X121697676Y-67140475D01*
X121697676Y-67140475D02*
X121602438Y-67045237D01*
X121602438Y-67045237D02*
X121554819Y-66902380D01*
X121554819Y-66902380D02*
X121554819Y-66807142D01*
X121554819Y-66807142D02*
X121602438Y-66664285D01*
X121602438Y-66664285D02*
X121650057Y-66616666D01*
X121650057Y-66235713D02*
X121602438Y-66188094D01*
X121602438Y-66188094D02*
X121554819Y-66092856D01*
X121554819Y-66092856D02*
X121554819Y-65854761D01*
X121554819Y-65854761D02*
X121602438Y-65759523D01*
X121602438Y-65759523D02*
X121650057Y-65711904D01*
X121650057Y-65711904D02*
X121745295Y-65664285D01*
X121745295Y-65664285D02*
X121840533Y-65664285D01*
X121840533Y-65664285D02*
X121983390Y-65711904D01*
X121983390Y-65711904D02*
X122554819Y-66283332D01*
X122554819Y-66283332D02*
X122554819Y-65664285D01*
X134133333Y-70054819D02*
X133800000Y-69578628D01*
X133561905Y-70054819D02*
X133561905Y-69054819D01*
X133561905Y-69054819D02*
X133942857Y-69054819D01*
X133942857Y-69054819D02*
X134038095Y-69102438D01*
X134038095Y-69102438D02*
X134085714Y-69150057D01*
X134085714Y-69150057D02*
X134133333Y-69245295D01*
X134133333Y-69245295D02*
X134133333Y-69388152D01*
X134133333Y-69388152D02*
X134085714Y-69483390D01*
X134085714Y-69483390D02*
X134038095Y-69531009D01*
X134038095Y-69531009D02*
X133942857Y-69578628D01*
X133942857Y-69578628D02*
X133561905Y-69578628D01*
X135038095Y-69054819D02*
X134561905Y-69054819D01*
X134561905Y-69054819D02*
X134514286Y-69531009D01*
X134514286Y-69531009D02*
X134561905Y-69483390D01*
X134561905Y-69483390D02*
X134657143Y-69435771D01*
X134657143Y-69435771D02*
X134895238Y-69435771D01*
X134895238Y-69435771D02*
X134990476Y-69483390D01*
X134990476Y-69483390D02*
X135038095Y-69531009D01*
X135038095Y-69531009D02*
X135085714Y-69626247D01*
X135085714Y-69626247D02*
X135085714Y-69864342D01*
X135085714Y-69864342D02*
X135038095Y-69959580D01*
X135038095Y-69959580D02*
X134990476Y-70007200D01*
X134990476Y-70007200D02*
X134895238Y-70054819D01*
X134895238Y-70054819D02*
X134657143Y-70054819D01*
X134657143Y-70054819D02*
X134561905Y-70007200D01*
X134561905Y-70007200D02*
X134514286Y-69959580D01*
X134120833Y-68254819D02*
X133787500Y-67778628D01*
X133549405Y-68254819D02*
X133549405Y-67254819D01*
X133549405Y-67254819D02*
X133930357Y-67254819D01*
X133930357Y-67254819D02*
X134025595Y-67302438D01*
X134025595Y-67302438D02*
X134073214Y-67350057D01*
X134073214Y-67350057D02*
X134120833Y-67445295D01*
X134120833Y-67445295D02*
X134120833Y-67588152D01*
X134120833Y-67588152D02*
X134073214Y-67683390D01*
X134073214Y-67683390D02*
X134025595Y-67731009D01*
X134025595Y-67731009D02*
X133930357Y-67778628D01*
X133930357Y-67778628D02*
X133549405Y-67778628D01*
X134977976Y-67254819D02*
X134787500Y-67254819D01*
X134787500Y-67254819D02*
X134692262Y-67302438D01*
X134692262Y-67302438D02*
X134644643Y-67350057D01*
X134644643Y-67350057D02*
X134549405Y-67492914D01*
X134549405Y-67492914D02*
X134501786Y-67683390D01*
X134501786Y-67683390D02*
X134501786Y-68064342D01*
X134501786Y-68064342D02*
X134549405Y-68159580D01*
X134549405Y-68159580D02*
X134597024Y-68207200D01*
X134597024Y-68207200D02*
X134692262Y-68254819D01*
X134692262Y-68254819D02*
X134882738Y-68254819D01*
X134882738Y-68254819D02*
X134977976Y-68207200D01*
X134977976Y-68207200D02*
X135025595Y-68159580D01*
X135025595Y-68159580D02*
X135073214Y-68064342D01*
X135073214Y-68064342D02*
X135073214Y-67826247D01*
X135073214Y-67826247D02*
X135025595Y-67731009D01*
X135025595Y-67731009D02*
X134977976Y-67683390D01*
X134977976Y-67683390D02*
X134882738Y-67635771D01*
X134882738Y-67635771D02*
X134692262Y-67635771D01*
X134692262Y-67635771D02*
X134597024Y-67683390D01*
X134597024Y-67683390D02*
X134549405Y-67731009D01*
X134549405Y-67731009D02*
X134501786Y-67826247D01*
X122638095Y-42554819D02*
X122638095Y-43364342D01*
X122638095Y-43364342D02*
X122685714Y-43459580D01*
X122685714Y-43459580D02*
X122733333Y-43507200D01*
X122733333Y-43507200D02*
X122828571Y-43554819D01*
X122828571Y-43554819D02*
X123019047Y-43554819D01*
X123019047Y-43554819D02*
X123114285Y-43507200D01*
X123114285Y-43507200D02*
X123161904Y-43459580D01*
X123161904Y-43459580D02*
X123209523Y-43364342D01*
X123209523Y-43364342D02*
X123209523Y-42554819D01*
X123638095Y-42650057D02*
X123685714Y-42602438D01*
X123685714Y-42602438D02*
X123780952Y-42554819D01*
X123780952Y-42554819D02*
X124019047Y-42554819D01*
X124019047Y-42554819D02*
X124114285Y-42602438D01*
X124114285Y-42602438D02*
X124161904Y-42650057D01*
X124161904Y-42650057D02*
X124209523Y-42745295D01*
X124209523Y-42745295D02*
X124209523Y-42840533D01*
X124209523Y-42840533D02*
X124161904Y-42983390D01*
X124161904Y-42983390D02*
X123590476Y-43554819D01*
X123590476Y-43554819D02*
X124209523Y-43554819D01*
X122238094Y-38669104D02*
X122714284Y-38669104D01*
X122142856Y-38954819D02*
X122476189Y-37954819D01*
X122476189Y-37954819D02*
X122809522Y-38954819D01*
X123142856Y-38288152D02*
X123142856Y-38954819D01*
X123142856Y-38383390D02*
X123190475Y-38335771D01*
X123190475Y-38335771D02*
X123285713Y-38288152D01*
X123285713Y-38288152D02*
X123428570Y-38288152D01*
X123428570Y-38288152D02*
X123523808Y-38335771D01*
X123523808Y-38335771D02*
X123571427Y-38431009D01*
X123571427Y-38431009D02*
X123571427Y-38954819D01*
X123904761Y-38288152D02*
X124285713Y-38288152D01*
X124047618Y-37954819D02*
X124047618Y-38811961D01*
X124047618Y-38811961D02*
X124095237Y-38907200D01*
X124095237Y-38907200D02*
X124190475Y-38954819D01*
X124190475Y-38954819D02*
X124285713Y-38954819D01*
X124999999Y-38907200D02*
X124904761Y-38954819D01*
X124904761Y-38954819D02*
X124714285Y-38954819D01*
X124714285Y-38954819D02*
X124619047Y-38907200D01*
X124619047Y-38907200D02*
X124571428Y-38811961D01*
X124571428Y-38811961D02*
X124571428Y-38431009D01*
X124571428Y-38431009D02*
X124619047Y-38335771D01*
X124619047Y-38335771D02*
X124714285Y-38288152D01*
X124714285Y-38288152D02*
X124904761Y-38288152D01*
X124904761Y-38288152D02*
X124999999Y-38335771D01*
X124999999Y-38335771D02*
X125047618Y-38431009D01*
X125047618Y-38431009D02*
X125047618Y-38526247D01*
X125047618Y-38526247D02*
X124571428Y-38621485D01*
X125476190Y-38288152D02*
X125476190Y-38954819D01*
X125476190Y-38383390D02*
X125523809Y-38335771D01*
X125523809Y-38335771D02*
X125619047Y-38288152D01*
X125619047Y-38288152D02*
X125761904Y-38288152D01*
X125761904Y-38288152D02*
X125857142Y-38335771D01*
X125857142Y-38335771D02*
X125904761Y-38431009D01*
X125904761Y-38431009D02*
X125904761Y-38954819D01*
X126380952Y-38288152D02*
X126380952Y-38954819D01*
X126380952Y-38383390D02*
X126428571Y-38335771D01*
X126428571Y-38335771D02*
X126523809Y-38288152D01*
X126523809Y-38288152D02*
X126666666Y-38288152D01*
X126666666Y-38288152D02*
X126761904Y-38335771D01*
X126761904Y-38335771D02*
X126809523Y-38431009D01*
X126809523Y-38431009D02*
X126809523Y-38954819D01*
X127714285Y-38954819D02*
X127714285Y-38431009D01*
X127714285Y-38431009D02*
X127666666Y-38335771D01*
X127666666Y-38335771D02*
X127571428Y-38288152D01*
X127571428Y-38288152D02*
X127380952Y-38288152D01*
X127380952Y-38288152D02*
X127285714Y-38335771D01*
X127714285Y-38907200D02*
X127619047Y-38954819D01*
X127619047Y-38954819D02*
X127380952Y-38954819D01*
X127380952Y-38954819D02*
X127285714Y-38907200D01*
X127285714Y-38907200D02*
X127238095Y-38811961D01*
X127238095Y-38811961D02*
X127238095Y-38716723D01*
X127238095Y-38716723D02*
X127285714Y-38621485D01*
X127285714Y-38621485D02*
X127380952Y-38573866D01*
X127380952Y-38573866D02*
X127619047Y-38573866D01*
X127619047Y-38573866D02*
X127714285Y-38526247D01*
X128904762Y-38669104D02*
X129380952Y-38669104D01*
X128809524Y-38954819D02*
X129142857Y-37954819D01*
X129142857Y-37954819D02*
X129476190Y-38954819D01*
X129809524Y-38954819D02*
X129809524Y-38288152D01*
X129809524Y-38478628D02*
X129857143Y-38383390D01*
X129857143Y-38383390D02*
X129904762Y-38335771D01*
X129904762Y-38335771D02*
X130000000Y-38288152D01*
X130000000Y-38288152D02*
X130095238Y-38288152D01*
X130809524Y-38907200D02*
X130714286Y-38954819D01*
X130714286Y-38954819D02*
X130523810Y-38954819D01*
X130523810Y-38954819D02*
X130428572Y-38907200D01*
X130428572Y-38907200D02*
X130380953Y-38811961D01*
X130380953Y-38811961D02*
X130380953Y-38431009D01*
X130380953Y-38431009D02*
X130428572Y-38335771D01*
X130428572Y-38335771D02*
X130523810Y-38288152D01*
X130523810Y-38288152D02*
X130714286Y-38288152D01*
X130714286Y-38288152D02*
X130809524Y-38335771D01*
X130809524Y-38335771D02*
X130857143Y-38431009D01*
X130857143Y-38431009D02*
X130857143Y-38526247D01*
X130857143Y-38526247D02*
X130380953Y-38621485D01*
X131714286Y-38954819D02*
X131714286Y-38431009D01*
X131714286Y-38431009D02*
X131666667Y-38335771D01*
X131666667Y-38335771D02*
X131571429Y-38288152D01*
X131571429Y-38288152D02*
X131380953Y-38288152D01*
X131380953Y-38288152D02*
X131285715Y-38335771D01*
X131714286Y-38907200D02*
X131619048Y-38954819D01*
X131619048Y-38954819D02*
X131380953Y-38954819D01*
X131380953Y-38954819D02*
X131285715Y-38907200D01*
X131285715Y-38907200D02*
X131238096Y-38811961D01*
X131238096Y-38811961D02*
X131238096Y-38716723D01*
X131238096Y-38716723D02*
X131285715Y-38621485D01*
X131285715Y-38621485D02*
X131380953Y-38573866D01*
X131380953Y-38573866D02*
X131619048Y-38573866D01*
X131619048Y-38573866D02*
X131714286Y-38526247D01*
X134233333Y-71654819D02*
X133900000Y-71178628D01*
X133661905Y-71654819D02*
X133661905Y-70654819D01*
X133661905Y-70654819D02*
X134042857Y-70654819D01*
X134042857Y-70654819D02*
X134138095Y-70702438D01*
X134138095Y-70702438D02*
X134185714Y-70750057D01*
X134185714Y-70750057D02*
X134233333Y-70845295D01*
X134233333Y-70845295D02*
X134233333Y-70988152D01*
X134233333Y-70988152D02*
X134185714Y-71083390D01*
X134185714Y-71083390D02*
X134138095Y-71131009D01*
X134138095Y-71131009D02*
X134042857Y-71178628D01*
X134042857Y-71178628D02*
X133661905Y-71178628D01*
X135090476Y-70988152D02*
X135090476Y-71654819D01*
X134852381Y-70607200D02*
X134614286Y-71321485D01*
X134614286Y-71321485D02*
X135233333Y-71321485D01*
X124159580Y-66616666D02*
X124207200Y-66664285D01*
X124207200Y-66664285D02*
X124254819Y-66807142D01*
X124254819Y-66807142D02*
X124254819Y-66902380D01*
X124254819Y-66902380D02*
X124207200Y-67045237D01*
X124207200Y-67045237D02*
X124111961Y-67140475D01*
X124111961Y-67140475D02*
X124016723Y-67188094D01*
X124016723Y-67188094D02*
X123826247Y-67235713D01*
X123826247Y-67235713D02*
X123683390Y-67235713D01*
X123683390Y-67235713D02*
X123492914Y-67188094D01*
X123492914Y-67188094D02*
X123397676Y-67140475D01*
X123397676Y-67140475D02*
X123302438Y-67045237D01*
X123302438Y-67045237D02*
X123254819Y-66902380D01*
X123254819Y-66902380D02*
X123254819Y-66807142D01*
X123254819Y-66807142D02*
X123302438Y-66664285D01*
X123302438Y-66664285D02*
X123350057Y-66616666D01*
X124254819Y-65664285D02*
X124254819Y-66235713D01*
X124254819Y-65949999D02*
X123254819Y-65949999D01*
X123254819Y-65949999D02*
X123397676Y-66045237D01*
X123397676Y-66045237D02*
X123492914Y-66140475D01*
X123492914Y-66140475D02*
X123540533Y-66235713D01*
X134133333Y-66654819D02*
X133800000Y-66178628D01*
X133561905Y-66654819D02*
X133561905Y-65654819D01*
X133561905Y-65654819D02*
X133942857Y-65654819D01*
X133942857Y-65654819D02*
X134038095Y-65702438D01*
X134038095Y-65702438D02*
X134085714Y-65750057D01*
X134085714Y-65750057D02*
X134133333Y-65845295D01*
X134133333Y-65845295D02*
X134133333Y-65988152D01*
X134133333Y-65988152D02*
X134085714Y-66083390D01*
X134085714Y-66083390D02*
X134038095Y-66131009D01*
X134038095Y-66131009D02*
X133942857Y-66178628D01*
X133942857Y-66178628D02*
X133561905Y-66178628D01*
X134466667Y-65654819D02*
X135085714Y-65654819D01*
X135085714Y-65654819D02*
X134752381Y-66035771D01*
X134752381Y-66035771D02*
X134895238Y-66035771D01*
X134895238Y-66035771D02*
X134990476Y-66083390D01*
X134990476Y-66083390D02*
X135038095Y-66131009D01*
X135038095Y-66131009D02*
X135085714Y-66226247D01*
X135085714Y-66226247D02*
X135085714Y-66464342D01*
X135085714Y-66464342D02*
X135038095Y-66559580D01*
X135038095Y-66559580D02*
X134990476Y-66607200D01*
X134990476Y-66607200D02*
X134895238Y-66654819D01*
X134895238Y-66654819D02*
X134609524Y-66654819D01*
X134609524Y-66654819D02*
X134514286Y-66607200D01*
X134514286Y-66607200D02*
X134466667Y-66559580D01*
X125161905Y-71654819D02*
X125161905Y-70654819D01*
X125161905Y-70654819D02*
X125400000Y-70654819D01*
X125400000Y-70654819D02*
X125542857Y-70702438D01*
X125542857Y-70702438D02*
X125638095Y-70797676D01*
X125638095Y-70797676D02*
X125685714Y-70892914D01*
X125685714Y-70892914D02*
X125733333Y-71083390D01*
X125733333Y-71083390D02*
X125733333Y-71226247D01*
X125733333Y-71226247D02*
X125685714Y-71416723D01*
X125685714Y-71416723D02*
X125638095Y-71511961D01*
X125638095Y-71511961D02*
X125542857Y-71607200D01*
X125542857Y-71607200D02*
X125400000Y-71654819D01*
X125400000Y-71654819D02*
X125161905Y-71654819D01*
X126685714Y-71654819D02*
X126114286Y-71654819D01*
X126400000Y-71654819D02*
X126400000Y-70654819D01*
X126400000Y-70654819D02*
X126304762Y-70797676D01*
X126304762Y-70797676D02*
X126209524Y-70892914D01*
X126209524Y-70892914D02*
X126114286Y-70940533D01*
X121154819Y-83066666D02*
X120678628Y-83399999D01*
X121154819Y-83638094D02*
X120154819Y-83638094D01*
X120154819Y-83638094D02*
X120154819Y-83257142D01*
X120154819Y-83257142D02*
X120202438Y-83161904D01*
X120202438Y-83161904D02*
X120250057Y-83114285D01*
X120250057Y-83114285D02*
X120345295Y-83066666D01*
X120345295Y-83066666D02*
X120488152Y-83066666D01*
X120488152Y-83066666D02*
X120583390Y-83114285D01*
X120583390Y-83114285D02*
X120631009Y-83161904D01*
X120631009Y-83161904D02*
X120678628Y-83257142D01*
X120678628Y-83257142D02*
X120678628Y-83638094D01*
X120250057Y-82685713D02*
X120202438Y-82638094D01*
X120202438Y-82638094D02*
X120154819Y-82542856D01*
X120154819Y-82542856D02*
X120154819Y-82304761D01*
X120154819Y-82304761D02*
X120202438Y-82209523D01*
X120202438Y-82209523D02*
X120250057Y-82161904D01*
X120250057Y-82161904D02*
X120345295Y-82114285D01*
X120345295Y-82114285D02*
X120440533Y-82114285D01*
X120440533Y-82114285D02*
X120583390Y-82161904D01*
X120583390Y-82161904D02*
X121154819Y-82733332D01*
X121154819Y-82733332D02*
X121154819Y-82114285D01*
%TO.C,U3*%
D12*
X123390000Y-75390000D02*
X124650000Y-75390000D01*
X123390000Y-79150000D02*
X123390000Y-75390000D01*
X130210000Y-75390000D02*
X128950000Y-75390000D01*
X130210000Y-79150000D02*
X130210000Y-75390000D01*
X123490000Y-80430000D02*
X123160000Y-80670000D01*
X123160000Y-80190000D01*
X123490000Y-80430000D01*
G36*
X123490000Y-80430000D02*
G01*
X123160000Y-80670000D01*
X123160000Y-80190000D01*
X123490000Y-80430000D01*
G37*
%TO.C,C4*%
X131090000Y-79740580D02*
X131090000Y-79459420D01*
X132110000Y-79740580D02*
X132110000Y-79459420D01*
%TO.C,R1*%
X132877500Y-85262742D02*
X132877500Y-85737258D01*
X133922500Y-85262742D02*
X133922500Y-85737258D01*
%TO.C,SW2*%
D11*
X133660000Y-87970000D02*
X133660000Y-92030000D01*
X133660000Y-92030000D02*
X134320000Y-92030000D01*
X136740000Y-87970000D02*
X136740000Y-92030000D01*
X136740000Y-92030000D02*
X136080000Y-92030000D01*
D13*
X136100000Y-90000000D02*
G75*
G02*
X134300000Y-90000000I-900000J0D01*
G01*
X134300000Y-90000000D02*
G75*
G02*
X136100000Y-90000000I900000J0D01*
G01*
%TO.C,D3*%
D12*
X126927500Y-67065000D02*
X126927500Y-68535000D01*
X126927500Y-68535000D02*
X129212500Y-68535000D01*
X129212500Y-67065000D02*
X126927500Y-67065000D01*
%TO.C,J1*%
D14*
X122730000Y-88950000D02*
X122730000Y-90630000D01*
X122730000Y-94400000D02*
X122730000Y-92970000D01*
X122730000Y-94400000D02*
X131670000Y-94400000D01*
X131670000Y-88950000D02*
X131670000Y-90630000D01*
X131670000Y-94400000D02*
X131670000Y-92970000D01*
D15*
X124100000Y-85800000D02*
G75*
G02*
X123900000Y-85800000I-100000J0D01*
G01*
X123900000Y-85800000D02*
G75*
G02*
X124100000Y-85800000I100000J0D01*
G01*
%TO.C,D2*%
D12*
X126915000Y-68765000D02*
X126915000Y-70235000D01*
X126915000Y-70235000D02*
X129200000Y-70235000D01*
X129200000Y-68765000D02*
X126915000Y-68765000D01*
%TO.C,C5*%
X128540580Y-65690000D02*
X128259420Y-65690000D01*
X128540580Y-66710000D02*
X128259420Y-66710000D01*
%TO.C,C2*%
X121590000Y-68784420D02*
X121590000Y-69065580D01*
X122610000Y-68784420D02*
X122610000Y-69065580D01*
%TO.C,R5*%
X132037258Y-68977500D02*
X131562742Y-68977500D01*
X132037258Y-70022500D02*
X131562742Y-70022500D01*
%TO.C,R6*%
X132049758Y-67277500D02*
X131575242Y-67277500D01*
X132049758Y-68322500D02*
X131575242Y-68322500D01*
%TO.C,SW1*%
D11*
X117360000Y-87970000D02*
X117360000Y-92030000D01*
X117360000Y-92030000D02*
X118020000Y-92030000D01*
X120440000Y-87970000D02*
X120440000Y-92030000D01*
X120440000Y-92030000D02*
X119780000Y-92030000D01*
D13*
X119800000Y-90000000D02*
G75*
G02*
X118000000Y-90000000I-900000J0D01*
G01*
X118000000Y-90000000D02*
G75*
G02*
X119800000Y-90000000I900000J0D01*
G01*
%TO.C,U2*%
D12*
X118000000Y-35500000D02*
X118000000Y-42250000D01*
X118000000Y-35500000D02*
X136000000Y-35500000D01*
X118000000Y-60250000D02*
X118000000Y-61000000D01*
X118000000Y-61000000D02*
X119000000Y-61000000D01*
X136000000Y-35500000D02*
X136000000Y-42250000D01*
X136000000Y-41440000D02*
X118000000Y-41440000D01*
X136000000Y-60250000D02*
X136000000Y-61000000D01*
X136000000Y-61000000D02*
X135000000Y-61000000D01*
%TO.C,R4*%
X132037258Y-70677500D02*
X131562742Y-70677500D01*
X132037258Y-71722500D02*
X131562742Y-71722500D01*
%TO.C,C1*%
X123290000Y-68784420D02*
X123290000Y-69065580D01*
X124310000Y-68784420D02*
X124310000Y-69065580D01*
%TO.C,R3*%
X132037258Y-65677500D02*
X131562742Y-65677500D01*
X132037258Y-66722500D02*
X131562742Y-66722500D01*
%TO.C,D1*%
X126902500Y-70465000D02*
X126902500Y-71935000D01*
X126902500Y-71935000D02*
X129187500Y-71935000D01*
X129187500Y-70465000D02*
X126902500Y-70465000D01*
%TO.C,R2*%
X120177500Y-85162742D02*
X120177500Y-85637258D01*
X121222500Y-85162742D02*
X121222500Y-85637258D01*
%TD*%
%LPC*%
D16*
%TO.C,J1*%
X123650000Y-86430000D02*
X124350000Y-86430000D01*
X124350000Y-87670000D01*
X123650000Y-87670000D01*
X123650000Y-86430000D01*
G36*
X124350000Y-87670000D02*
G01*
X123650000Y-87670000D01*
X123650000Y-86430000D01*
X124350000Y-86430000D01*
X124350000Y-87670000D01*
G37*
X124450000Y-86430000D02*
X125150000Y-86430000D01*
X125150000Y-87670000D01*
X124450000Y-87670000D01*
X124450000Y-86430000D01*
G36*
X125150000Y-87670000D02*
G01*
X124450000Y-87670000D01*
X124450000Y-86430000D01*
X125150000Y-86430000D01*
X125150000Y-87670000D01*
G37*
X125250000Y-86430000D02*
X125650000Y-86430000D01*
X125650000Y-87670000D01*
X125250000Y-87670000D01*
X125250000Y-86430000D01*
G36*
X125650000Y-87670000D02*
G01*
X125250000Y-87670000D01*
X125250000Y-86430000D01*
X125650000Y-86430000D01*
X125650000Y-87670000D01*
G37*
X125750000Y-86430000D02*
X126150000Y-86430000D01*
X126150000Y-87670000D01*
X125750000Y-87670000D01*
X125750000Y-86430000D01*
G36*
X126150000Y-87670000D02*
G01*
X125750000Y-87670000D01*
X125750000Y-86430000D01*
X126150000Y-86430000D01*
X126150000Y-87670000D01*
G37*
X126250000Y-86430000D02*
X126650000Y-86430000D01*
X126650000Y-87670000D01*
X126250000Y-87670000D01*
X126250000Y-86430000D01*
G36*
X126650000Y-87670000D02*
G01*
X126250000Y-87670000D01*
X126250000Y-86430000D01*
X126650000Y-86430000D01*
X126650000Y-87670000D01*
G37*
X126750000Y-86430000D02*
X127150000Y-86430000D01*
X127150000Y-87670000D01*
X126750000Y-87670000D01*
X126750000Y-86430000D01*
G36*
X127150000Y-87670000D02*
G01*
X126750000Y-87670000D01*
X126750000Y-86430000D01*
X127150000Y-86430000D01*
X127150000Y-87670000D01*
G37*
X127250000Y-86430000D02*
X127650000Y-86430000D01*
X127650000Y-87670000D01*
X127250000Y-87670000D01*
X127250000Y-86430000D01*
G36*
X127650000Y-87670000D02*
G01*
X127250000Y-87670000D01*
X127250000Y-86430000D01*
X127650000Y-86430000D01*
X127650000Y-87670000D01*
G37*
X127750000Y-86430000D02*
X128150000Y-86430000D01*
X128150000Y-87670000D01*
X127750000Y-87670000D01*
X127750000Y-86430000D01*
G36*
X128150000Y-87670000D02*
G01*
X127750000Y-87670000D01*
X127750000Y-86430000D01*
X128150000Y-86430000D01*
X128150000Y-87670000D01*
G37*
X128250000Y-86430000D02*
X128650000Y-86430000D01*
X128650000Y-87670000D01*
X128250000Y-87670000D01*
X128250000Y-86430000D01*
G36*
X128650000Y-87670000D02*
G01*
X128250000Y-87670000D01*
X128250000Y-86430000D01*
X128650000Y-86430000D01*
X128650000Y-87670000D01*
G37*
X128750000Y-86430000D02*
X129150000Y-86430000D01*
X129150000Y-87670000D01*
X128750000Y-87670000D01*
X128750000Y-86430000D01*
G36*
X129150000Y-87670000D02*
G01*
X128750000Y-87670000D01*
X128750000Y-86430000D01*
X129150000Y-86430000D01*
X129150000Y-87670000D01*
G37*
X129250000Y-86430000D02*
X129950000Y-86430000D01*
X129950000Y-87670000D01*
X129250000Y-87670000D01*
X129250000Y-86430000D01*
G36*
X129950000Y-87670000D02*
G01*
X129250000Y-87670000D01*
X129250000Y-86430000D01*
X129950000Y-86430000D01*
X129950000Y-87670000D01*
G37*
X130050000Y-86430000D02*
X130750000Y-86430000D01*
X130750000Y-87670000D01*
X130050000Y-87670000D01*
X130050000Y-86430000D01*
G36*
X130750000Y-87670000D02*
G01*
X130050000Y-87670000D01*
X130050000Y-86430000D01*
X130750000Y-86430000D01*
X130750000Y-87670000D01*
G37*
%TD*%
D17*
%TO.C,U3*%
X124500000Y-80450000D03*
X126800000Y-80450000D03*
D18*
X126800000Y-74150000D03*
D17*
X129100000Y-80450000D03*
%TD*%
D19*
%TO.C,C4*%
X131600000Y-80375000D03*
X131600000Y-78825000D03*
%TD*%
D20*
%TO.C,R1*%
X133400000Y-84675000D03*
X133400000Y-86325000D03*
%TD*%
D21*
%TO.C,SW2*%
X135200000Y-92180000D03*
X135200000Y-87820000D03*
%TD*%
D22*
%TO.C,D3*%
X127625000Y-67800000D03*
X129200000Y-67800000D03*
%TD*%
D23*
%TO.C,J1*%
X124310000Y-88120000D03*
X130090000Y-88120000D03*
D24*
X122875000Y-87630000D03*
X131525000Y-87630000D03*
D25*
X122875000Y-91800000D03*
X131525000Y-91800000D03*
%TD*%
D22*
%TO.C,D2*%
X127612500Y-69500000D03*
X129187500Y-69500000D03*
%TD*%
D26*
%TO.C,C5*%
X129175000Y-66200000D03*
X127625000Y-66200000D03*
%TD*%
D27*
%TO.C,C2*%
X122100000Y-68150000D03*
X122100000Y-69700000D03*
%TD*%
D28*
%TO.C,R5*%
X132625000Y-69500000D03*
X130975000Y-69500000D03*
%TD*%
%TO.C,R6*%
X132637500Y-67800000D03*
X130987500Y-67800000D03*
%TD*%
D21*
%TO.C,SW1*%
X118900000Y-92180000D03*
X118900000Y-87820000D03*
%TD*%
D29*
%TO.C,U2*%
X118250000Y-42990000D03*
X118250000Y-44260000D03*
X118250000Y-45530000D03*
X118250000Y-46800000D03*
X118250000Y-48070000D03*
X118250000Y-49340000D03*
X118250000Y-50610000D03*
X118250000Y-51880000D03*
X118250000Y-53150000D03*
X118250000Y-54420000D03*
X118250000Y-55690000D03*
X118250000Y-56960000D03*
X118250000Y-58230000D03*
X118250000Y-59500000D03*
D30*
X120015000Y-60750000D03*
X121285000Y-60750000D03*
X122555000Y-60750000D03*
X123825000Y-60750000D03*
X125095000Y-60750000D03*
X126365000Y-60750000D03*
X127635000Y-60750000D03*
X128905000Y-60750000D03*
X130175000Y-60750000D03*
X131445000Y-60750000D03*
X132715000Y-60750000D03*
X133985000Y-60750000D03*
D29*
X135750000Y-59500000D03*
X135750000Y-58230000D03*
X135750000Y-56960000D03*
X135750000Y-55690000D03*
X135750000Y-54420000D03*
X135750000Y-53150000D03*
X135750000Y-51880000D03*
X135750000Y-50610000D03*
X135750000Y-49340000D03*
X135750000Y-48070000D03*
X135750000Y-46800000D03*
X135750000Y-45530000D03*
X135750000Y-44260000D03*
X135750000Y-42990000D03*
D31*
X124100000Y-49310000D03*
X124100000Y-50710000D03*
X124100000Y-52110000D03*
X124100000Y-52110000D03*
X125500000Y-49310000D03*
X125500000Y-49310000D03*
X125500000Y-50710000D03*
X125500000Y-52110000D03*
X126900000Y-49310000D03*
X126900000Y-50710000D03*
X126900000Y-52110000D03*
%TD*%
D28*
%TO.C,R4*%
X132625000Y-71200000D03*
X130975000Y-71200000D03*
%TD*%
D27*
%TO.C,C1*%
X123800000Y-68150000D03*
X123800000Y-69700000D03*
%TD*%
D28*
%TO.C,R3*%
X132625000Y-66200000D03*
X130975000Y-66200000D03*
%TD*%
D22*
%TO.C,D1*%
X127600000Y-71200000D03*
X129175000Y-71200000D03*
%TD*%
D20*
%TO.C,R2*%
X120700000Y-84575000D03*
X120700000Y-86225000D03*
%TD*%
D32*
%TO.C,J3*%
X139700000Y-43180000D03*
D33*
X139700000Y-45720000D03*
X139700000Y-48260000D03*
X139700000Y-50800000D03*
X139700000Y-53340000D03*
X139700000Y-55880000D03*
X139700000Y-58420000D03*
X139700000Y-60960000D03*
X139700000Y-63500000D03*
X139700000Y-66040000D03*
X139700000Y-68580000D03*
X139700000Y-71120000D03*
X139700000Y-73660000D03*
X139700000Y-76200000D03*
X139700000Y-78740000D03*
X139700000Y-81280000D03*
X139700000Y-83820000D03*
X139700000Y-86360000D03*
X139700000Y-88900000D03*
X139700000Y-91440000D03*
%TD*%
D32*
%TO.C,J2*%
X114300000Y-43185000D03*
D33*
X114300000Y-45725000D03*
X114300000Y-48265000D03*
X114300000Y-50805000D03*
X114300000Y-53345000D03*
X114300000Y-55885000D03*
X114300000Y-58425000D03*
X114300000Y-60965000D03*
X114300000Y-63505000D03*
X114300000Y-66045000D03*
X114300000Y-68585000D03*
X114300000Y-71125000D03*
X114300000Y-73665000D03*
X114300000Y-76205000D03*
X114300000Y-78745000D03*
X114300000Y-81285000D03*
X114300000Y-83825000D03*
X114300000Y-86365000D03*
X114300000Y-88905000D03*
X114300000Y-91445000D03*
%TD*%
%LPD*%
M02*
